<!-- mayurDayal2000 github icons -->
<svg width="190" height="59" viewBox="0 0 190 59" fill="none" xmlns="http://www.w3.org/2000/svg">
<path d="M86.5416 35.4373H90.0665L84.5479 19.6688H80.6473L75.1347 35.4373H78.5429L79.7538 31.613H85.3307L86.5416 35.4373ZM82.5003 22.6848H82.5767L84.6123 29.1404H80.4722L82.5003 22.6848ZM91.8552 35.4373H95.0717V28.7138C95.0717 27.199 95.9848 26.1468 97.4217 26.1468C98.866 26.1468 99.592 27.0239 99.592 28.5506V35.4373H102.801V27.8831C102.801 25.141 101.328 23.5035 98.7089 23.5035C96.8963 23.5035 95.651 24.3567 95.0253 25.8085H94.961V23.7205H91.8627V35.4373H91.8552ZM106.139 21.0249V23.7205H104.479V26.1229H106.14V32.2806C106.14 34.5602 107.221 35.4777 109.993 35.4777C110.641 35.4777 111.19 35.4253 111.52 35.3505V33.0005C111.262 33.0395 111.002 33.0585 110.741 33.0574C109.794 33.0574 109.355 32.6308 109.355 31.7358V26.1289H111.53V23.728H109.355V21.0264L106.139 21.0249ZM118.465 19.6688V35.4373H124.527C129.286 35.4373 132.087 32.4961 132.087 27.4924C132.087 22.4872 129.288 19.6688 124.528 19.6688H118.465ZM121.786 22.3869H124.13C127.053 22.3869 128.703 24.2055 128.703 27.5029C128.703 30.9125 127.101 32.7072 124.13 32.7072H121.786V22.3869ZM139.688 25.831C141.115 25.831 142.097 26.8608 142.162 28.3575H137.156C137.267 26.8907 138.279 25.831 139.688 25.831ZM142.202 31.854C141.903 32.7476 141.005 33.3268 139.828 33.3268C138.191 33.3268 137.128 32.1803 137.128 30.5024V30.3093H145.248V29.3334C145.248 25.7726 143.085 23.4691 139.653 23.4691C136.169 23.4691 133.97 25.8954 133.97 29.6313C133.97 33.3792 136.145 35.6827 139.777 35.6827C142.687 35.6827 144.803 34.1456 145.155 31.854H142.202ZM147.155 27.1646C147.155 28.8889 148.294 30.0474 150.529 30.5503L152.703 31.0353C153.762 31.2867 154.158 31.613 154.158 32.2042C154.158 32.9646 153.422 33.4496 152.201 33.4496C150.925 33.4496 150.142 32.8823 149.99 31.8929H146.857C147.032 34.18 148.967 35.6887 152.112 35.6887C155.223 35.6887 157.357 34.168 157.357 31.8645C157.357 30.1163 156.399 29.1868 154.036 28.6614L151.786 28.1824C150.75 27.9355 150.241 27.5448 150.241 26.9655C150.241 26.2112 150.967 25.7083 152.078 25.7083C153.271 25.7083 154.024 26.2875 154.094 27.229H157.047C157.007 24.9539 155.083 23.4691 152.124 23.4691C149.101 23.4691 147.155 24.9314 147.155 27.1646ZM170.693 32.9466C169.098 32.9466 168.11 31.6953 168.11 29.555C168.11 27.4281 169.11 26.0944 170.693 26.0944C172.295 26.0944 173.318 27.4505 173.318 29.555C173.318 31.6774 172.296 32.9466 170.693 32.9466ZM170.635 39.8513C174.167 39.8513 176.517 38.0686 176.517 35.2741V23.7205H173.354V25.7666H173.295C172.681 24.4225 171.349 23.5334 169.657 23.5334C166.664 23.5334 164.818 25.819 164.818 29.5325C164.818 33.1921 166.719 35.4028 169.6 35.4028C171.307 35.4028 172.693 34.5497 173.242 33.3029H173.307V35.3609C173.307 36.7125 172.383 37.63 170.723 37.63C169.5 37.63 168.583 37.0747 168.325 36.268H165.181C165.438 38.3545 167.536 39.8513 170.635 39.8513ZM179.062 35.4373V23.7205H182.16V25.8085H182.223C182.854 24.3522 184.094 23.5035 185.906 23.5035C188.526 23.5035 190 25.141 190 27.8831V35.4373H186.789V28.5506C186.789 27.0239 186.065 26.1468 184.621 26.1468C183.184 26.1468 182.271 27.199 182.271 28.7138V35.4373H179.054H179.062Z" fill="#F54254"/>
<path fill-rule="evenodd" clip-rule="evenodd" d="M159.457 36.3788H162.672V24.662H159.455L159.457 36.3788Z" fill="#F54254"/>
<path d="M161.151 22.3929C162.338 22.3929 163.268 21.4649 163.268 20.3004C163.268 19.1255 162.34 18.196 161.151 18.196C159.976 18.196 159.047 19.124 159.047 20.3004C159.041 20.8542 159.264 21.3931 159.66 21.7852C160.053 22.1774 160.59 22.3929 161.151 22.3929Z" fill="#F54254"/>
<path d="M27.8921 1.03551L1.07895 26.6498C0.738374 26.9691 0.466908 27.3549 0.281328 27.7832C0.0957487 28.2116 0 28.6735 0 29.1404C0 29.6072 0.0957487 30.0691 0.281328 30.4975C0.466908 30.9259 0.738374 31.3117 1.07895 31.631L27.8921 57.2453C29.3305 58.6193 31.664 58.6193 33.1009 57.2453L44.3446 46.5059C44.6513 46.2202 44.8958 45.8744 45.063 45.4901C45.2302 45.1058 45.3165 44.6911 45.3165 44.272C45.3165 43.8529 45.2302 43.4382 45.063 43.0539C44.8958 42.6696 44.6513 42.3238 44.3446 42.0381C43.7108 41.4469 42.8764 41.1181 42.0097 41.1181C41.143 41.1181 40.3085 41.4469 39.6747 42.0381L31.1491 50.1835C30.9793 50.3467 30.753 50.4378 30.5175 50.4378C30.282 50.4378 30.0556 50.3467 29.8858 50.1835L8.4745 29.7256C8.39015 29.6496 8.32272 29.5566 8.27656 29.4529C8.2304 29.3491 8.20655 29.2368 8.20655 29.1232C8.20655 29.0096 8.2304 28.8973 8.27656 28.7935C8.32272 28.6897 8.39015 28.5968 8.4745 28.5207L29.8858 8.06285C30.0541 7.89686 30.2811 7.80379 30.5175 7.80379C30.7539 7.80379 30.9808 7.89686 31.1491 8.06285L39.6732 16.2068C40.9829 17.4341 43.035 17.4341 44.3446 16.2068C44.651 15.9211 44.8954 15.5754 45.0624 15.1912C45.2295 14.807 45.3157 14.3925 45.3157 13.9736C45.3157 13.5547 45.2295 13.1402 45.0624 12.756C44.8954 12.3718 44.651 12.0261 44.3446 11.7404L33.1024 0.999586C31.658 -0.344515 29.3305 -0.33254 27.8936 1.03551H27.8921Z" fill="url(#paint0_linear_4_82)"/>
<path d="M27.8921 1.03547L1.07895 26.6497C0.738374 26.969 0.466908 27.3548 0.281328 27.7832C0.0957487 28.2116 0 28.6735 0 29.1404C0 29.6072 0.0957487 30.0691 0.281328 30.4975C0.466908 30.9259 0.738374 31.3117 1.07895 31.631L27.8921 57.2452C29.3305 58.6193 31.664 58.6193 33.1009 57.2452L44.3446 46.5059C44.6513 46.2202 44.8958 45.8744 45.063 45.4901C45.2302 45.1057 45.3165 44.6911 45.3165 44.272C45.3165 43.8528 45.2302 43.4382 45.063 43.0539C44.8958 42.6696 44.6513 42.3238 44.3446 42.038C43.7108 41.4468 42.8764 41.1181 42.0097 41.1181C41.143 41.1181 40.3085 41.4468 39.6747 42.038L31.1491 50.1835C30.9793 50.3467 30.753 50.4378 30.5175 50.4378C30.282 50.4378 30.0556 50.3467 29.8858 50.1835L8.4745 29.7256C8.39015 29.6495 8.32272 29.5566 8.27656 29.4528C8.2304 29.349 8.20655 29.2367 8.20655 29.1231C8.20655 29.0096 8.2304 28.8972 8.27656 28.7935C8.32272 28.6897 8.39015 28.5968 8.4745 28.5207L29.8858 8.06282C30.7809 7.3264 32.2358 5.83562 34.3821 5.48388C35.9732 5.22793 37.7094 5.7997 39.5969 7.19768L33.1009 1.00105C31.658 -0.346049 29.3305 -0.332578 27.8921 1.03547Z" fill="url(#paint1_linear_4_82)"/>
<path d="M46.94 39.6537C47.5726 40.2484 48.4082 40.5795 49.2765 40.5795C50.1448 40.5795 50.9804 40.2484 51.613 39.6537L59.9036 31.7313C60.2456 31.4133 60.5184 31.0282 60.705 30.6C60.8915 30.1719 60.9878 29.7099 60.9878 29.2429C60.9878 28.7759 60.8915 28.3139 60.705 27.8857C60.5184 27.4576 60.2456 27.0725 59.9036 26.7545L51.5426 18.7917C50.2509 17.5583 48.1509 17.5583 46.8652 18.7977C46.5592 19.083 46.3151 19.4282 46.1482 19.8119C45.9814 20.1955 45.8953 20.6095 45.8953 21.0279C45.8953 21.4462 45.9814 21.8602 46.1482 22.2438C46.3151 22.6275 46.5592 22.9727 46.8652 23.258L52.5125 28.6554C52.5966 28.7321 52.6637 28.8255 52.7096 28.9296C52.7556 29.0338 52.7793 29.1463 52.7793 29.2601C52.7793 29.3739 52.7556 29.4864 52.7096 29.5906C52.6637 29.6947 52.5966 29.7881 52.5125 29.8648L46.9415 35.1858C46.6351 35.4715 46.3908 35.8172 46.2238 36.2014C46.0567 36.5856 45.9705 37.0001 45.9705 37.419C45.9705 37.8379 46.0567 38.2524 46.2238 38.6366C46.3908 39.0208 46.6351 39.3665 46.9415 39.6522L46.94 39.6537Z" fill="url(#paint2_linear_4_82)"/>
<path d="M23.3898 29.2691C23.3898 25.4343 26.6228 22.3525 30.6282 22.3525C34.6395 22.3525 37.8726 25.4343 37.8726 29.2691C37.8726 33.0993 34.6395 36.1797 30.6282 36.1797C26.6228 36.1797 23.3898 33.0993 23.3898 29.2691Z" fill="url(#paint3_linear_4_82)"/>
<defs>
<linearGradient id="paint0_linear_4_82" x1="28.5499" y1="0.999584" x2="52.6505" y2="16.5828" gradientUnits="userSpaceOnUse">
<stop stop-color="#4285EB"/>
<stop offset="1" stop-color="#2EC7FF"/>
</linearGradient>
<linearGradient id="paint1_linear_4_82" x1="31.8676" y1="0.999549" x2="20.8489" y2="61.2735" gradientUnits="userSpaceOnUse">
<stop stop-color="#29CDFF"/>
<stop offset="0.379" stop-color="#148EFF"/>
<stop offset="1" stop-color="#0A60FF"/>
</linearGradient>
<linearGradient id="paint2_linear_4_82" x1="55.658" y1="16.0797" x2="41.617" y2="39.2783" gradientUnits="userSpaceOnUse">
<stop stop-color="#FA816E"/>
<stop offset="0.415" stop-color="#F74A5C"/>
<stop offset="1" stop-color="#F51D2C"/>
</linearGradient>
<linearGradient id="paint3_linear_4_82" x1="33.2523" y1="17.4145" x2="28.249" y2="38.348" gradientUnits="userSpaceOnUse">
<stop stop-color="#FA8E7D"/>
<stop offset="0.513" stop-color="#F74A5C"/>
<stop offset="1" stop-color="#F51D2C"/>
</linearGradient>
</defs>
</svg>
