<!-- mayurDayal2000 github icons -->
<svg width="124" height="38" viewBox="0 0 124 38" fill="none" xmlns="http://www.w3.org/2000/svg">
<path d="M56.4312 23.1075H58.7297L55.1312 12.8253H52.5877L48.9931 23.1075H51.2155L52.005 20.6138H55.6416L56.4312 23.1075ZM53.796 14.792H53.8458L55.1731 19.0015H52.4735L53.796 14.792ZM59.896 23.1075H61.9934V18.7233C61.9934 17.7356 62.5888 17.0495 63.5258 17.0495C64.4676 17.0495 64.941 17.6214 64.941 18.6169V23.1075H67.0335V18.1816C67.0335 16.3936 66.0731 15.3258 64.3651 15.3258C63.1832 15.3258 62.3711 15.8822 61.9632 16.8289H61.9212V15.4674H59.9009V23.1075H59.896ZM69.21 13.7096V15.4674H68.1276V17.0338H69.211V21.0491C69.211 22.5356 69.9156 23.1338 71.7232 23.1338C72.1458 23.1338 72.504 23.0997 72.7187 23.0509V21.5186C72.5507 21.5439 72.3811 21.5563 72.2112 21.5557C71.5934 21.5557 71.3074 21.2775 71.3074 20.6938V17.0377H72.7255V15.4722H71.3074V13.7106L69.21 13.7096ZM77.2474 12.8253V23.1075H81.2002C84.3038 23.1075 86.1299 21.1896 86.1299 17.9269C86.1299 14.6631 84.3048 12.8253 81.2011 12.8253H77.2474ZM79.4131 14.5977H80.9415C82.8476 14.5977 83.9232 15.7836 83.9232 17.9337C83.9232 20.157 82.8789 21.3273 80.9415 21.3273H79.4131V14.5977ZM91.0861 16.8435C92.0172 16.8435 92.6574 17.515 92.6994 18.491H89.4357C89.5079 17.5345 90.1677 16.8435 91.0861 16.8435ZM92.7258 20.7709C92.5306 21.3536 91.945 21.7313 91.1778 21.7313C90.1101 21.7313 89.4171 20.9837 89.4171 19.8896V19.7637H94.7119V19.1274C94.7119 16.8055 93.3016 15.3034 91.0636 15.3034C88.7915 15.3034 87.3578 16.8855 87.3578 19.3216C87.3578 21.7655 88.7759 23.2676 91.1446 23.2676C93.042 23.2676 94.422 22.2652 94.6514 20.7709H92.7258ZM95.9553 17.7131C95.9553 18.8375 96.6981 19.5929 98.1552 19.9208L99.5734 20.2371C100.263 20.401 100.522 20.6138 100.522 20.9993C100.522 21.4951 100.042 21.8114 99.2454 21.8114C98.4139 21.8114 97.9034 21.4415 97.8039 20.7963H95.7611C95.8753 22.2877 97.1373 23.2715 99.1879 23.2715C101.216 23.2715 102.608 22.2798 102.608 20.7778C102.608 19.6378 101.983 19.0317 100.442 18.6891L98.9751 18.3768C98.2997 18.2158 97.9679 17.961 97.9679 17.5833C97.9679 17.0914 98.4412 16.7635 99.1654 16.7635C99.9433 16.7635 100.434 17.1412 100.48 17.7551H102.406C102.379 16.2716 101.125 15.3034 99.1957 15.3034C97.2241 15.3034 95.9553 16.2569 95.9553 17.7131ZM111.304 21.4834C110.264 21.4834 109.619 20.6675 109.619 19.2718C109.619 17.8849 110.271 17.0153 111.304 17.0153C112.348 17.0153 113.016 17.8995 113.016 19.2718C113.016 20.6558 112.349 21.4834 111.304 21.4834ZM111.266 25.9857C113.569 25.9857 115.102 24.8233 115.102 23.0011V15.4674H113.039V16.8015H113C112.6 15.9251 111.731 15.3454 110.629 15.3454C108.677 15.3454 107.473 16.8357 107.473 19.2572C107.473 21.6435 108.713 23.085 110.591 23.085C111.704 23.085 112.608 22.5287 112.966 21.7157H113.008V23.0577C113.008 23.939 112.406 24.5373 111.323 24.5373C110.526 24.5373 109.928 24.1752 109.76 23.6492H107.709C107.877 25.0097 109.246 25.9857 111.266 25.9857ZM116.761 23.1075V15.4674H118.781V16.8289H118.822C119.234 15.8792 120.042 15.3258 121.224 15.3258C122.932 15.3258 123.893 16.3936 123.893 18.1816V23.1075H121.8V18.6169C121.8 17.6214 121.327 17.0495 120.386 17.0495C119.449 17.0495 118.853 17.7356 118.853 18.7233V23.1075H116.756H116.761Z" fill="#F51D2C"/>
<path fill-rule="evenodd" clip-rule="evenodd" d="M103.977 23.7211H106.074V16.081H103.976L103.977 23.7211Z" fill="#F51D2C"/>
<path d="M105.082 14.6015C105.856 14.6015 106.462 13.9964 106.462 13.2371C106.462 12.4709 105.857 11.8648 105.082 11.8648C104.316 11.8648 103.71 12.4699 103.71 13.2371C103.706 13.5982 103.851 13.9495 104.11 14.2053C104.366 14.461 104.716 14.6015 105.082 14.6015Z" fill="#F51D2C"/>
<path d="M18.1876 0.675384L0.703551 17.3777C0.481472 17.5859 0.304457 17.8375 0.183446 18.1168C0.0624349 18.3961 0 18.6973 0 19.0018C0 19.3062 0.0624349 19.6074 0.183446 19.8867C0.304457 20.166 0.481472 20.4176 0.703551 20.6258L18.1876 37.3281C19.1256 38.2241 20.6472 38.2241 21.5841 37.3281L28.9158 30.3253C29.1158 30.139 29.2752 29.9135 29.3843 29.6629C29.4933 29.4123 29.5496 29.1419 29.5496 28.8686C29.5496 28.5953 29.4933 28.325 29.3843 28.0744C29.2752 27.8237 29.1158 27.5983 28.9158 27.412C28.5026 27.0265 27.9584 26.8121 27.3933 26.8121C26.8281 26.8121 26.284 27.0265 25.8707 27.412L20.3114 32.7234C20.2007 32.8298 20.0531 32.8892 19.8995 32.8892C19.746 32.8892 19.5984 32.8298 19.4877 32.7234L5.52597 19.3834C5.47097 19.3338 5.427 19.2732 5.3969 19.2055C5.3668 19.1378 5.35125 19.0646 5.35125 18.9905C5.35125 18.9165 5.3668 18.8432 5.3969 18.7756C5.427 18.7079 5.47097 18.6473 5.52597 18.5977L19.4877 5.25771C19.5974 5.14947 19.7454 5.08878 19.8995 5.08878C20.0537 5.08878 20.2017 5.14947 20.3114 5.25771L25.8697 10.5681C26.7237 11.3685 28.0618 11.3685 28.9158 10.5681C29.1156 10.3818 29.2749 10.1564 29.3839 9.90589C29.4928 9.65537 29.549 9.38511 29.549 9.11194C29.549 8.83876 29.4928 8.5685 29.3839 8.31799C29.2749 8.06747 29.1156 7.84204 28.9158 7.65574L21.5851 0.65196C20.6433 -0.224489 19.1256 -0.216681 18.1886 0.675384H18.1876Z" fill="url(#paint0_linear_13_54)"/>
<path d="M18.1876 0.675201L0.703551 17.3775C0.481472 17.5857 0.304457 17.8373 0.183446 18.1166C0.0624349 18.396 0 18.6972 0 19.0016C0 19.306 0.0624349 19.6072 0.183446 19.8865C0.304457 20.1659 0.481472 20.4174 0.703551 20.6256L18.1876 37.328C19.1256 38.2239 20.6472 38.2239 21.5841 37.328L28.9158 30.3251C29.1158 30.1388 29.2752 29.9134 29.3843 29.6627C29.4933 29.4121 29.5496 29.1418 29.5496 28.8685C29.5496 28.5952 29.4933 28.3248 29.3843 28.0742C29.2752 27.8236 29.1158 27.5981 28.9158 27.4118C28.5026 27.0263 27.9584 26.8119 27.3933 26.8119C26.8281 26.8119 26.284 27.0263 25.8707 27.4118L20.3114 32.7232C20.2007 32.8296 20.0531 32.889 19.8995 32.889C19.746 32.889 19.5984 32.8296 19.4877 32.7232L5.52597 19.3832C5.47097 19.3336 5.427 19.273 5.3969 19.2053C5.3668 19.1377 5.35125 19.0644 5.35125 18.9904C5.35125 18.9163 5.3668 18.8431 5.3969 18.7754C5.427 18.7077 5.47097 18.6471 5.52597 18.5975L19.4877 5.25753C20.0713 4.77733 21.02 3.80524 22.4196 3.57588C23.4571 3.40898 24.5892 3.78181 25.82 4.6934L21.5841 0.652753C20.6432 -0.225649 19.1256 -0.216865 18.1876 0.675201Z" fill="url(#paint1_linear_13_54)"/>
<path d="M30.6085 25.8572C31.021 26.245 31.5659 26.4609 32.1321 26.4609C32.6982 26.4609 33.2431 26.245 33.6556 25.8572L39.0617 20.6913C39.2847 20.4839 39.4626 20.2328 39.5842 19.9536C39.7059 19.6745 39.7686 19.3732 39.7686 19.0687C39.7686 18.7641 39.7059 18.4629 39.5842 18.1837C39.4626 17.9045 39.2847 17.6534 39.0617 17.4461L33.6097 12.2537C32.7674 11.4495 31.3981 11.4495 30.5597 12.2576C30.3602 12.4437 30.201 12.6688 30.0922 12.919C29.9834 13.1692 29.9272 13.4391 29.9272 13.7119C29.9272 13.9847 29.9834 14.2546 30.0922 14.5048C30.201 14.755 30.3602 14.9801 30.5597 15.1661L34.2422 18.6856C34.297 18.7356 34.3407 18.7965 34.3707 18.8644C34.4006 18.9323 34.4161 19.0057 34.4161 19.0799C34.4161 19.1541 34.4006 19.2275 34.3707 19.2954C34.3407 19.3633 34.297 19.4242 34.2422 19.4742L30.6095 22.9439C30.4097 23.1302 30.2504 23.3556 30.1414 23.6061C30.0325 23.8566 29.9763 24.1269 29.9763 24.4001C29.9763 24.6733 30.0325 24.9435 30.1414 25.194C30.2504 25.4445 30.4097 25.67 30.6095 25.8563L30.6085 25.8572Z" fill="url(#paint2_linear_13_54)"/>
<path d="M15.2517 19.0857C15.2517 16.5851 17.3599 14.5756 19.9717 14.5756C22.5873 14.5756 24.6955 16.5851 24.6955 19.0857C24.6955 21.5832 22.5873 23.5919 19.9717 23.5919C17.3599 23.5919 15.2517 21.5832 15.2517 19.0857Z" fill="url(#paint3_linear_13_54)"/>
<defs>
<linearGradient id="paint0_linear_13_54" x1="18.6165" y1="0.651958" x2="34.3318" y2="10.8133" gradientUnits="userSpaceOnUse">
<stop stop-color="#4285EB"/>
<stop offset="1" stop-color="#2EC7FF"/>
</linearGradient>
<linearGradient id="paint1_linear_13_54" x1="20.78" y1="0.651777" x2="13.5949" y2="39.9547" gradientUnits="userSpaceOnUse">
<stop stop-color="#29CDFF"/>
<stop offset="0.379" stop-color="#148EFF"/>
<stop offset="1" stop-color="#0A60FF"/>
</linearGradient>
<linearGradient id="paint2_linear_13_54" x1="36.2932" y1="10.4854" x2="27.1375" y2="25.6125" gradientUnits="userSpaceOnUse">
<stop stop-color="#FA816E"/>
<stop offset="0.415" stop-color="#F74A5C"/>
<stop offset="1" stop-color="#F51D2C"/>
</linearGradient>
<linearGradient id="paint3_linear_13_54" x1="21.6828" y1="11.3557" x2="18.4202" y2="25.0058" gradientUnits="userSpaceOnUse">
<stop stop-color="#FA8E7D"/>
<stop offset="0.513" stop-color="#F74A5C"/>
<stop offset="1" stop-color="#F51D2C"/>
</linearGradient>
</defs>
</svg>
