<!-- mayurDayal2000 github icons -->
<svg width="157" height="48" viewBox="0 0 157 48" fill="none" xmlns="http://www.w3.org/2000/svg">
<path d="M71.2817 29.1886H74.185L69.6395 16.2006H66.4267L61.8862 29.1886H64.6934L65.6907 26.0387H70.2843L71.2817 29.1886ZM67.953 18.6847H68.0159L69.6925 24.002H66.2825L67.953 18.6847ZM75.6583 29.1886H78.3076V23.6506C78.3076 22.403 79.0597 21.5363 80.2432 21.5363C81.4329 21.5363 82.0308 22.2588 82.0308 23.5163V29.1886H84.674V22.9664C84.674 20.7078 83.4609 19.3591 81.3035 19.3591C79.8105 19.3591 78.7848 20.0618 78.2694 21.2577H78.2164V19.5379H75.6644V29.1886H75.6583ZM87.4233 17.3175V19.5379H86.0561V21.5166H87.4245V26.5885C87.4245 28.4661 88.3146 29.2219 90.5979 29.2219C91.1317 29.2219 91.5841 29.1787 91.8554 29.1171V27.1815C91.6432 27.2136 91.4289 27.2292 91.2143 27.2283C90.4339 27.2283 90.0727 26.877 90.0727 26.1397V21.5215H91.864V19.544H90.0727V17.3188L87.4233 17.3175ZM97.5758 16.2006V29.1886H102.569C106.489 29.1886 108.796 26.766 108.796 22.6446C108.796 18.522 106.49 16.2006 102.57 16.2006H97.5758ZM100.311 18.4394H102.242C104.65 18.4394 106.008 19.9373 106.008 22.6533C106.008 25.4617 104.689 26.9399 102.242 26.9399H100.311V18.4394ZM115.056 21.2762C116.232 21.2762 117.041 22.1244 117.094 23.3572H112.972C113.063 22.149 113.896 21.2762 115.056 21.2762ZM117.127 26.2371C116.881 26.9731 116.141 27.4503 115.172 27.4503C113.823 27.4503 112.948 26.5059 112.948 25.1239V24.9648H119.636V24.161C119.636 21.2281 117.855 19.3308 115.028 19.3308C112.158 19.3308 110.347 21.3292 110.347 24.4064C110.347 27.4934 112.138 29.3908 115.13 29.3908C117.527 29.3908 119.27 28.1246 119.56 26.2371H117.127ZM121.207 22.3746C121.207 23.7949 122.145 24.7491 123.986 25.1633L125.777 25.5628C126.649 25.7699 126.975 26.0387 126.975 26.5256C126.975 27.1519 126.369 27.5514 125.363 27.5514C124.312 27.5514 123.668 27.0841 123.542 26.2692H120.962C121.106 28.153 122.7 29.3957 125.29 29.3957C127.852 29.3957 129.61 28.1431 129.61 26.2458C129.61 24.8058 128.821 24.0402 126.874 23.6075L125.021 23.213C124.168 23.0096 123.749 22.6878 123.749 22.2107C123.749 21.5893 124.347 21.1751 125.262 21.1751C126.244 21.1751 126.864 21.6522 126.922 22.4277H129.355C129.321 20.5537 127.737 19.3308 125.3 19.3308C122.81 19.3308 121.207 20.5352 121.207 22.3746ZM140.595 27.1371C139.28 27.1371 138.467 26.1065 138.467 24.3435C138.467 22.5916 139.29 21.4932 140.595 21.4932C141.914 21.4932 142.757 22.6101 142.757 24.3435C142.757 26.0917 141.915 27.1371 140.595 27.1371ZM140.547 32.8242C143.456 32.8242 145.392 31.3559 145.392 29.0542V19.5379H142.787V21.2232H142.737C142.232 20.1161 141.135 19.3838 139.741 19.3838C137.276 19.3838 135.756 21.2663 135.756 24.325C135.756 27.3393 137.321 29.1602 139.695 29.1602C141.1 29.1602 142.242 28.4575 142.694 27.4305H142.747V29.1257C142.747 30.239 141.986 30.9947 140.619 30.9947C139.612 30.9947 138.856 30.5373 138.644 29.8728H136.054C136.266 31.5914 137.995 32.8242 140.547 32.8242ZM147.487 29.1886V19.5379H150.039V21.2577H150.091C150.611 20.0581 151.632 19.3591 153.125 19.3591C155.283 19.3591 156.497 20.7078 156.497 22.9664V29.1886H153.853V23.5163C153.853 22.2588 153.256 21.5363 152.066 21.5363C150.883 21.5363 150.131 22.403 150.131 23.6506V29.1886H147.481H147.487Z" fill="#F51D2C"/>
<path fill-rule="evenodd" clip-rule="evenodd" d="M131.34 29.9641H133.988V20.3134H131.338L131.34 29.9641Z" fill="#F51D2C"/>
<path d="M132.735 18.4443C133.713 18.4443 134.478 17.6799 134.478 16.7207C134.478 15.753 133.714 14.9874 132.735 14.9874C131.767 14.9874 131.002 15.7517 131.002 16.7207C130.997 17.1769 131.181 17.6207 131.507 17.9437C131.83 18.2667 132.273 18.4443 132.735 18.4443Z" fill="#F51D2C"/>
<path d="M22.9739 0.853004L0.888696 21.9507C0.608176 22.2137 0.384577 22.5314 0.231721 22.8843C0.0788652 23.2371 0 23.6176 0 24.0021C0 24.3866 0.0788652 24.7671 0.231721 25.1199C0.384577 25.4728 0.608176 25.7905 0.888696 26.0536L22.9739 47.1512C24.1586 48.283 26.0806 48.283 27.2642 47.1512L36.5253 38.3056C36.7778 38.0702 36.9793 37.7854 37.117 37.4688C37.2547 37.1523 37.3258 36.8108 37.3258 36.4655C37.3258 36.1203 37.2547 35.7788 37.117 35.4622C36.9793 35.1457 36.7778 34.8609 36.5253 34.6255C36.0032 34.1386 35.3159 33.8678 34.602 33.8678C33.8881 33.8678 33.2008 34.1386 32.6788 34.6255L25.6565 41.3347C25.5167 41.4691 25.3302 41.5441 25.1363 41.5441C24.9423 41.5441 24.7559 41.4691 24.616 41.3347L6.98018 24.4841C6.9107 24.4215 6.85516 24.345 6.81714 24.2595C6.77912 24.174 6.75948 24.0815 6.75948 23.9879C6.75948 23.8944 6.77912 23.8019 6.81714 23.7164C6.85516 23.6309 6.9107 23.5544 6.98018 23.4917L24.616 6.6412C24.7546 6.50448 24.9415 6.42783 25.1363 6.42783C25.331 6.42783 25.5179 6.50448 25.6565 6.6412L32.6776 13.3491C33.7563 14.36 35.4465 14.36 36.5253 13.3491C36.7776 13.1138 36.9789 12.829 37.1165 12.5126C37.2541 12.1961 37.3251 11.8548 37.3251 11.5097C37.3251 11.1646 37.2541 10.8233 37.1165 10.5068C36.9789 10.1904 36.7776 9.90563 36.5253 9.6703L27.2654 0.823416C26.0757 -0.283678 24.1586 -0.273815 22.9751 0.853004H22.9739Z" fill="url(#paint0_linear_13_54)"/>
<path d="M22.9739 0.852885L0.888696 21.9505C0.608176 22.2136 0.384577 22.5313 0.231721 22.8842C0.0788652 23.237 0 23.6175 0 24.002C0 24.3865 0.0788652 24.767 0.231721 25.1198C0.384577 25.4727 0.608176 25.7904 0.888696 26.0534L22.9739 47.1511C24.1586 48.2828 26.0806 48.2828 27.2642 47.1511L36.5253 38.3054C36.7778 38.0701 36.9793 37.7853 37.117 37.4687C37.2547 37.1522 37.3258 36.8106 37.3258 36.4654C37.3258 36.1202 37.2547 35.7787 37.117 35.4621C36.9793 35.1456 36.7778 34.8607 36.5253 34.6254C36.0032 34.1384 35.3159 33.8676 34.602 33.8676C33.8881 33.8676 33.2008 34.1384 32.6788 34.6254L25.6565 41.3345C25.5167 41.4689 25.3302 41.544 25.1363 41.544C24.9423 41.544 24.7559 41.4689 24.616 41.3345L6.98018 24.484C6.9107 24.4214 6.85516 24.3448 6.81714 24.2594C6.77912 24.1739 6.75948 24.0814 6.75948 23.9878C6.75948 23.8943 6.77912 23.8017 6.81714 23.7163C6.85516 23.6308 6.9107 23.5542 6.98018 23.4916L24.616 6.64109C25.3532 6.03453 26.5516 4.80661 28.3195 4.5169C29.63 4.30608 31.0601 4.77703 32.6147 5.9285L27.2642 0.824529C26.0757 -0.28503 24.1586 -0.273934 22.9739 0.852885Z" fill="url(#paint1_linear_13_54)"/>
<path d="M38.6632 32.6615C39.1842 33.1514 39.8725 33.4241 40.5876 33.4241C41.3028 33.4241 41.991 33.1514 42.5121 32.6615L49.3408 26.1361C49.6225 25.8742 49.8472 25.557 50.0009 25.2043C50.1545 24.8517 50.2338 24.4711 50.2338 24.0865C50.2338 23.7018 50.1545 23.3213 50.0009 22.9686C49.8472 22.616 49.6225 22.2988 49.3408 22.0369L42.4542 15.4781C41.3902 14.4623 39.6605 14.4623 38.6015 15.4831C38.3494 15.7181 38.1484 16.0024 38.011 16.3184C37.8735 16.6345 37.8026 16.9754 37.8026 17.32C37.8026 17.6646 37.8735 18.0056 38.011 18.3216C38.1484 18.6376 38.3494 18.922 38.6015 19.1569L43.253 23.6026C43.3223 23.6658 43.3776 23.7427 43.4154 23.8285C43.4532 23.9142 43.4728 24.0069 43.4728 24.1006C43.4728 24.1944 43.4532 24.2871 43.4154 24.3728C43.3776 24.4586 43.3223 24.5355 43.253 24.5987L38.6644 28.9815C38.412 29.2168 38.2108 29.5015 38.0732 29.818C37.9356 30.1344 37.8646 30.4758 37.8646 30.8209C37.8646 31.1659 37.9356 31.5073 38.0732 31.8238C38.2108 32.1402 38.412 32.425 38.6644 32.6603L38.6632 32.6615Z" fill="url(#paint2_linear_13_54)"/>
<path d="M19.2654 24.108C19.2654 20.9494 21.9283 18.411 25.2274 18.411C28.5314 18.411 31.1944 20.9494 31.1944 24.108C31.1944 27.2628 28.5314 29.8 25.2274 29.8C21.9283 29.8 19.2654 27.2628 19.2654 24.108Z" fill="url(#paint3_linear_13_54)"/>
<defs>
<linearGradient id="paint0_linear_13_54" x1="23.5156" y1="0.823414" x2="43.3666" y2="13.6588" gradientUnits="userSpaceOnUse">
<stop stop-color="#4285EB"/>
<stop offset="1" stop-color="#2EC7FF"/>
</linearGradient>
<linearGradient id="paint1_linear_13_54" x1="26.2484" y1="0.823297" x2="17.1725" y2="50.4691" gradientUnits="userSpaceOnUse">
<stop stop-color="#29CDFF"/>
<stop offset="0.379" stop-color="#148EFF"/>
<stop offset="1" stop-color="#0A60FF"/>
</linearGradient>
<linearGradient id="paint2_linear_13_54" x1="45.8438" y1="13.2444" x2="34.2787" y2="32.3523" gradientUnits="userSpaceOnUse">
<stop stop-color="#FA816E"/>
<stop offset="0.415" stop-color="#F74A5C"/>
<stop offset="1" stop-color="#F51D2C"/>
</linearGradient>
<linearGradient id="paint3_linear_13_54" x1="27.3888" y1="14.3438" x2="23.2677" y2="31.586" gradientUnits="userSpaceOnUse">
<stop stop-color="#FA8E7D"/>
<stop offset="0.513" stop-color="#F74A5C"/>
<stop offset="1" stop-color="#F51D2C"/>
</linearGradient>
</defs>
</svg>
