<!-- mayurDayal2000 github icons -->
<svg width="80" height="80" viewBox="0 0 80 80" fill="none" xmlns="http://www.w3.org/2000/svg">
<path d="M68.1312 17.9L44.55 3.90005C43.1437 3.0688 41.5687 2.65005 40 2.65005C38.4312 2.65005 36.8562 3.06881 35.45 3.90631L11.8624 17.9063C9.04991 19.575 7.31241 22.6625 7.31241 26.0063V54.0063C7.31241 57.35 9.04366 60.4375 11.8624 62.1063L35.4437 76.1063C36.85 76.9438 38.4187 77.3563 39.9937 77.3563C41.5625 77.3563 43.1373 76.9375 44.5437 76.1063L68.1312 62.1063C70.9437 60.4375 72.6812 57.3438 72.6812 54.0063V26C72.6812 22.6625 70.95 19.5688 68.1312 17.9ZM49.8687 61.6188L49.9062 63.6313C49.9062 63.875 49.75 64.15 49.5625 64.25L48.3687 64.9375C48.1812 65.0313 48.0187 64.9188 48.0187 64.675L48 62.6938C46.9812 63.1188 45.9437 63.2188 45.2875 62.9563C45.1625 62.9063 45.1062 62.725 45.1562 62.5125L45.5875 60.6938C45.625 60.55 45.7 60.4063 45.8 60.3188C45.8375 60.2813 45.875 60.2563 45.9125 60.2375C45.9812 60.2 46.0498 60.1938 46.1062 60.2188C46.8187 60.4563 47.725 60.3438 48.6 59.9063C49.7125 59.3438 50.4562 58.2063 50.4437 57.0813C50.4312 56.0563 49.8812 55.6375 48.5375 55.625C46.825 55.6313 45.225 55.2938 45.2 52.7688C45.1812 50.6938 46.2562 48.5313 47.9687 47.1688L47.95 45.1375C47.95 44.8875 48.1 44.6125 48.2937 44.5125L49.45 43.775C49.6375 43.6813 49.8 43.8 49.8 44.0438L49.8187 46.075C50.6687 45.7375 51.4062 45.6438 52.075 45.8C52.2187 45.8375 52.2875 46.0375 52.225 46.2688L51.775 48.0688C51.7375 48.2063 51.6625 48.3438 51.5687 48.4313C51.5338 48.4663 51.4938 48.4958 51.45 48.5188C51.3875 48.55 51.3312 48.5563 51.275 48.55C50.9687 48.4813 50.2437 48.325 49.1 48.9C47.9 49.5063 47.4812 50.55 47.4875 51.325C47.5 52.25 47.9687 52.5313 49.6062 52.5563C51.7875 52.5938 52.725 53.5438 52.75 55.7375C52.7812 57.8875 51.6312 60.2063 49.8687 61.6188ZM66.3312 23.8063L44.0187 37.5875C41.2375 39.2125 39.1875 41.0375 39.1812 44.3938V71.8875C39.1812 73.8938 39.9937 75.1938 41.2375 75.575C40.8312 75.6438 40.4125 75.6938 40 75.6938C38.6937 75.6938 37.4062 75.3375 36.275 74.6688L12.6937 60.6688C10.3874 59.3 8.95616 56.7438 8.95616 54V26C8.95616 23.2563 10.3874 20.7 12.6937 19.3313L36.2812 5.33131C37.4125 4.66256 38.7 4.30631 40.0062 4.30631C41.3125 4.30631 42.6 4.66256 43.7312 5.33131L67.3187 19.3313C69.2625 20.4875 70.575 22.4813 70.9437 24.725C70.15 23.0563 68.3875 22.6063 66.3312 23.8063Z" fill="#4FA847"/>
<path d="M61.95 56.7063L56.075 60.2188C55.9188 60.3125 55.8063 60.4125 55.8063 60.6V62.1375C55.8063 62.325 55.9313 62.4063 56.0875 62.3125L62.05 58.6875C62.2063 58.5938 62.2313 58.425 62.2313 58.2375V56.8813C62.2313 56.6938 62.1063 56.6188 61.95 56.7063Z" fill="#293138"/>
</svg>
