<!-- mayurDayal2000 github icons -->
<svg width="48" height="48" viewBox="0 0 48 48" fill="none" xmlns="http://www.w3.org/2000/svg">
<path d="M40.8787 10.74L26.73 2.34003C25.8862 1.84128 24.9412 1.59003 24 1.59003C23.0587 1.59003 22.1137 1.84128 21.27 2.34378L7.11745 10.7438C5.42995 11.745 4.38745 13.5975 4.38745 15.6038V32.4038C4.38745 34.41 5.4262 36.2625 7.11745 37.2638L21.2662 45.6638C22.11 46.1663 23.0512 46.4138 23.9962 46.4138C24.9375 46.4138 25.8824 46.1625 26.7262 45.6638L40.8787 37.2638C42.5662 36.2625 43.6087 34.4063 43.6087 32.4038V15.6C43.6087 13.5975 42.57 11.7413 40.8787 10.74ZM29.9212 36.9713L29.9437 38.1788C29.9437 38.325 29.85 38.49 29.7375 38.55L29.0212 38.9625C28.9087 39.0188 28.8112 38.9513 28.8112 38.805L28.8 37.6163C28.1887 37.8713 27.5662 37.9313 27.1725 37.7738C27.0975 37.7438 27.0637 37.635 27.0937 37.5075L27.3525 36.4163C27.375 36.33 27.42 36.2438 27.48 36.1913C27.5025 36.1688 27.525 36.1538 27.5475 36.1425C27.5887 36.12 27.6299 36.1163 27.6637 36.1313C28.0912 36.2738 28.635 36.2063 29.16 35.9438C29.8275 35.6063 30.2737 34.9238 30.2662 34.2488C30.2587 33.6338 29.9287 33.3825 29.1225 33.375C28.095 33.3788 27.135 33.1763 27.12 31.6613C27.1087 30.4163 27.7537 29.1188 28.7812 28.3013L28.77 27.0825C28.77 26.9325 28.86 26.7675 28.9762 26.7075L29.67 26.265C29.7825 26.2088 29.88 26.28 29.88 26.4263L29.8912 27.645C30.4012 27.4425 30.8437 27.3863 31.245 27.48C31.3312 27.5025 31.3725 27.6225 31.335 27.7613L31.065 28.8413C31.0425 28.9238 30.9975 29.0063 30.9412 29.0588C30.9203 29.0798 30.8963 29.0975 30.87 29.1113C30.8325 29.13 30.7987 29.1338 30.765 29.13C30.5812 29.0888 30.1462 28.995 29.46 29.34C28.74 29.7038 28.4887 30.33 28.4925 30.795C28.5 31.35 28.7812 31.5188 29.7637 31.5338C31.0725 31.5563 31.635 32.1263 31.65 33.4425C31.6687 34.7325 30.9787 36.1238 29.9212 36.9713ZM39.7987 14.2838L26.4112 22.5525C24.7425 23.5275 23.5125 24.6225 23.5087 26.6363V43.1325C23.5087 44.3363 23.9962 45.1163 24.7425 45.345C24.4987 45.3863 24.2475 45.4163 24 45.4163C23.2162 45.4163 22.4437 45.2025 21.765 44.8013L7.6162 36.4013C6.23245 35.58 5.3737 34.0463 5.3737 32.4V15.6C5.3737 13.9538 6.23245 12.42 7.6162 11.5988L21.7687 3.19878C22.4475 2.79753 23.22 2.58378 24.0037 2.58378C24.7875 2.58378 25.56 2.79753 26.2387 3.19878L40.3912 11.5988C41.5575 12.2925 42.345 13.4888 42.5662 14.835C42.09 13.8338 41.0325 13.5638 39.7987 14.2838Z" fill="#4FA847"/>
<path d="M37.17 34.0238L33.645 36.1313C33.5513 36.1875 33.4838 36.2475 33.4838 36.36V37.2825C33.4838 37.395 33.5588 37.4438 33.6525 37.3875L37.23 35.2125C37.3238 35.1563 37.3388 35.055 37.3388 34.9425V34.1288C37.3388 34.0163 37.2638 33.9713 37.17 34.0238Z" fill="#293138"/>
</svg>
