<!-- mayurDayal2000 github icons -->
<svg width="48" height="48" viewBox="0 0 48 48" fill="none" xmlns="http://www.w3.org/2000/svg">
<g clip-path="url(#clip0_13_39)">
<path d="M5.61939 5.68123C5.53052 3.1256 7.52139 0.769104 10.2128 0.769104H37.7903C40.4816 0.769104 42.4725 3.1256 42.3836 5.68123C42.2981 8.13598 42.4091 11.316 43.2094 13.9087C44.0123 16.5097 45.366 18.1534 47.5834 18.3649V20.76C45.366 20.9711 44.0123 22.6151 43.2094 25.2161C42.4091 27.8089 42.2981 30.9889 42.3836 33.4436C42.4725 35.9992 40.4816 38.3554 37.7903 38.3554H10.2128C7.52139 38.3554 5.53052 35.9989 5.61939 33.4436C5.70489 30.9889 5.59389 27.8089 4.79327 25.2161C3.99077 22.6155 2.63327 20.9715 0.415894 20.76V18.3649C2.63327 18.1537 3.99077 16.5097 4.79327 13.9087C5.59389 11.316 5.70452 8.13598 5.61939 5.68123Z" fill="url(#paint0_linear_13_39)"/>
<g filter="url(#filter0_d_13_39)">
<path d="M25.1662 29.6903C29.5234 29.6903 32.1487 27.5569 32.1487 24.0383C32.1487 21.3784 30.2756 19.4528 27.4939 19.1479V19.0369C29.5376 18.7046 31.1411 16.8068 31.1411 14.6869C31.1411 11.667 28.7569 9.69977 25.1235 9.69977H16.9485V29.6903H25.1662ZM20.1277 12.2351H24.3574C26.6561 12.2351 27.9622 13.26 27.9622 15.1166C27.9622 17.0974 26.4435 18.2059 23.6902 18.2059H20.1277V12.2351ZM20.1277 27.1553V20.5748H24.3289C27.3375 20.5748 28.8986 21.6829 28.8986 23.844C28.8986 26.0051 27.3802 27.1553 24.5134 27.1553H20.1277Z" fill="url(#paint1_linear_13_39)"/>
<path d="M25.1662 29.6903C29.5234 29.6903 32.1487 27.5569 32.1487 24.0383C32.1487 21.3784 30.2756 19.4528 27.4939 19.1479V19.0369C29.5376 18.7046 31.1411 16.8068 31.1411 14.6869C31.1411 11.667 28.7569 9.69977 25.1235 9.69977H16.9485V29.6903H25.1662ZM20.1277 12.2351H24.3574C26.6561 12.2351 27.9622 13.26 27.9622 15.1166C27.9622 17.0974 26.4435 18.2059 23.6902 18.2059H20.1277V12.2351ZM20.1277 27.1553V20.5748H24.3289C27.3375 20.5748 28.8986 21.6829 28.8986 23.844C28.8986 26.0051 27.3802 27.1553 24.5134 27.1553H20.1277Z" fill="white"/>
</g>
<path d="M4.27423 45.5363V38.8845H6.16686C6.74173 38.8845 7.19811 39.0251 7.53523 39.3068C7.87236 39.588 8.04073 39.9544 8.04073 40.4059C8.04073 40.7835 7.93873 41.1113 7.73473 41.3895C7.53036 41.6678 7.24911 41.8658 6.89023 41.9831V42.0019C7.33873 42.0544 7.69761 42.2243 7.96648 42.5119C8.23536 42.7965 8.36998 43.1674 8.36998 43.6253C8.36998 44.1941 8.16598 44.655 7.75798 45.0075C7.34961 45.36 6.83473 45.5363 6.21298 45.5363H4.27423ZM5.05348 39.5895V41.7371H5.85148C6.27823 41.7371 6.61386 41.6351 6.85798 41.4311C7.10211 41.2238 7.22436 40.9328 7.22436 40.5589C7.22436 39.9128 6.79911 39.5895 5.94861 39.5895H5.05348ZM5.05348 42.4376V44.8313H6.11098C6.56848 44.8313 6.92286 44.7229 7.17336 44.5065C7.42686 44.2901 7.55361 43.9931 7.55361 43.6159C7.55361 42.8303 7.01848 42.4376 5.94861 42.4376H5.05348ZM11.6032 45.6488C10.9012 45.6488 10.3399 45.4275 9.91948 44.9854C9.50211 44.5403 9.29323 43.9511 9.29323 43.218C9.29323 42.4204 9.51111 41.7971 9.94723 41.3486C10.3834 40.9005 10.9725 40.6763 11.7146 40.6763C12.4226 40.6763 12.9746 40.8941 13.3706 41.3303C13.7692 41.7664 13.9687 42.3709 13.9687 43.1438C13.9687 43.9016 13.7539 44.5091 13.3237 44.967C12.8974 45.4215 12.3236 45.6488 11.6032 45.6488ZM11.6587 41.3164C11.1701 41.3164 10.7839 41.4833 10.4992 41.8174C10.2146 42.1481 10.0725 42.6056 10.0725 43.1903C10.0725 43.7531 10.2161 44.1971 10.5037 44.5215C10.7914 44.8466 11.1761 45.009 11.6587 45.009C12.1504 45.009 12.528 44.8496 12.7909 44.5309C13.0567 44.2125 13.1895 43.7595 13.1895 43.1719C13.1895 42.5783 13.0567 42.1204 12.7909 41.7986C12.528 41.4773 12.1504 41.3164 11.6587 41.3164ZM17.1697 45.6488C16.4677 45.6488 15.9064 45.4275 15.486 44.9854C15.0686 44.5403 14.8597 43.9511 14.8597 43.218C14.8597 42.4204 15.0776 41.7971 15.5137 41.3486C15.9499 40.9005 16.539 40.6763 17.2811 40.6763C17.9891 40.6763 18.5411 40.8941 18.9371 41.3303C19.3361 41.7664 19.5356 42.3709 19.5356 43.1438C19.5356 43.9016 19.3207 44.5091 18.8906 44.967C18.4639 45.4215 17.8905 45.6488 17.1697 45.6488ZM17.2252 41.3164C16.7366 41.3164 16.3504 41.4833 16.0657 41.8174C15.7811 42.1481 15.639 42.6056 15.639 43.1903C15.639 43.7531 15.7826 44.1971 16.0702 44.5215C16.3579 44.8466 16.7426 45.009 17.2252 45.009C17.7169 45.009 18.0945 44.8496 18.3574 44.5309C18.6232 44.2125 18.756 43.7595 18.756 43.1719C18.756 42.5783 18.6232 42.1204 18.3574 41.7986C18.0945 41.4773 17.7172 41.3164 17.2252 41.3164ZM22.9537 45.4913C22.7745 45.5903 22.5379 45.6398 22.2439 45.6398C21.4121 45.6398 20.9962 45.1759 20.9962 44.2481V41.4371H20.1799V40.7876H20.9962V39.6281L21.7571 39.3821V40.7876H22.9534V41.4371H21.7571V44.1135C21.7571 44.4319 21.8111 44.6595 21.9195 44.7956C22.0275 44.9318 22.2067 44.9996 22.4572 44.9996C22.6489 44.9996 22.8146 44.9471 22.9537 44.8421V45.4913ZM23.682 45.3638V44.5474C24.0964 44.8534 24.5524 45.0064 25.0504 45.0064C25.7182 45.0064 26.0524 44.784 26.0524 44.3389C26.0524 44.2118 26.0231 44.1053 25.9642 44.0186C25.9042 43.9245 25.8251 43.8439 25.7321 43.782C25.6254 43.7083 25.5102 43.6476 25.389 43.6013C25.2492 43.5416 25.1085 43.4843 24.9667 43.4295C24.7772 43.3553 24.5915 43.2717 24.4102 43.179C24.265 43.1014 24.1308 43.0047 24.0112 42.8914C23.908 42.7859 23.8262 42.6615 23.7701 42.525C23.7176 42.3889 23.6914 42.2299 23.6914 42.0473C23.6914 41.8249 23.7424 41.6284 23.8444 41.4581C23.946 41.2854 24.0855 41.1379 24.2524 41.0269C24.4292 40.9062 24.6254 40.8167 24.8325 40.7621C25.0534 40.7031 25.2811 40.6735 25.5097 40.674C25.9211 40.674 26.289 40.7453 26.6137 40.8878V41.6576C26.2642 41.4285 25.8622 41.3141 25.4074 41.3141C25.2649 41.3141 25.137 41.331 25.0226 41.3651C24.9165 41.3924 24.816 41.4381 24.7256 41.5001C24.6472 41.5562 24.5823 41.6289 24.5355 41.7131C24.4916 41.796 24.4693 41.8886 24.4706 41.9824C24.4706 42.1058 24.4924 42.2093 24.5355 42.2929C24.5816 42.3765 24.648 42.4508 24.735 42.5156C24.8212 42.5805 24.9266 42.6394 25.0504 42.6919C25.1741 42.7444 25.3147 42.8018 25.4726 42.8636C25.6826 42.9439 25.8712 43.0275 26.0385 43.1141C26.1935 43.1895 26.3372 43.2864 26.4652 43.4018C26.5826 43.5068 26.6722 43.629 26.7341 43.7681C26.799 43.9073 26.8316 44.0726 26.8316 44.2643C26.8316 44.4994 26.7791 44.7034 26.6741 44.8766C26.5717 45.0499 26.4341 45.1935 26.2609 45.3079C26.0776 45.4267 25.8753 45.5131 25.6627 45.5633C25.4304 45.6199 25.192 45.648 24.9529 45.6469C24.4642 45.6469 24.0409 45.5524 23.682 45.3638ZM30.2032 45.4913C30.0244 45.5903 29.7877 45.6398 29.4937 45.6398C28.662 45.6398 28.2461 45.1759 28.2461 44.2481V41.4371H27.4297V40.7876H28.2461V39.6281L29.007 39.3821V40.7876H30.2032V41.4371H29.007V44.1135C29.007 44.4319 29.061 44.6595 29.1694 44.7956C29.2774 44.9318 29.4566 44.9996 29.7071 44.9996C29.8987 44.9996 30.0645 44.9471 30.2036 44.8421L30.2032 45.4913ZM33.6967 41.5575C33.5636 41.4555 33.372 41.4045 33.1215 41.4045C32.7967 41.4045 32.5245 41.5575 32.3051 41.8635C32.0887 42.1699 31.9804 42.5873 31.9804 43.116V45.5374H31.2199V40.7876H31.9804V41.7664H31.9991C32.1075 41.4323 32.2729 41.1728 32.4952 40.9871C32.7176 40.7985 32.9666 40.704 33.2422 40.704C33.4399 40.704 33.5914 40.7258 33.6967 40.7693V41.5575ZM37.9234 45.5363H37.1625V44.7938H37.1437C36.8134 45.363 36.3262 45.6476 35.6835 45.6476C35.2102 45.6476 34.839 45.5224 34.5697 45.2719C34.3039 45.0214 34.1711 44.6888 34.1711 44.2744C34.1711 43.3868 34.6935 42.8708 35.7386 42.7256L37.1629 42.5258C37.1629 41.7188 36.8366 41.3153 36.1841 41.3153C35.6122 41.3153 35.0959 41.5099 34.635 41.8995V41.1203C35.1019 40.8236 35.64 40.6751 36.2494 40.6751C37.3657 40.6751 37.9237 41.2658 37.9237 42.447L37.9234 45.5363ZM37.1621 43.1336L36.0169 43.2911C35.6644 43.3406 35.3981 43.4288 35.2189 43.5555C35.0396 43.6793 34.95 43.9005 34.95 44.2189C34.95 44.451 35.0321 44.6411 35.196 44.7896C35.3629 44.9348 35.5841 45.0071 35.8594 45.0071C36.2366 45.0071 36.5475 44.8759 36.7916 44.6134C37.0391 44.3475 37.1629 44.0119 37.1629 43.6065L37.1621 43.1336ZM40.1359 44.85H40.1171V47.7214H39.3566V40.7865H40.1175V41.6213H40.1359C40.5101 40.9905 41.0576 40.6751 41.778 40.6751C42.3904 40.6751 42.8681 40.8885 43.2112 41.3153C43.5544 41.7386 43.7261 42.3079 43.7261 43.0223C43.7261 43.8169 43.533 44.454 43.1464 44.9333C42.7597 45.4095 42.231 45.6476 41.5601 45.6476C40.9447 45.6476 40.47 45.3821 40.1359 44.85ZM40.1171 42.9341V43.5979C40.1171 43.9905 40.2439 44.3243 40.4977 44.5995C40.7546 44.8718 41.079 45.0079 41.4716 45.0079C41.9325 45.0079 42.2929 44.8316 42.5527 44.4791C42.8152 44.1266 42.9465 43.6365 42.9465 43.0084C42.9465 42.4796 42.8246 42.0653 42.5805 41.7653C42.3364 41.4653 42.0052 41.3153 41.5879 41.3153C41.1454 41.3153 40.7899 41.4698 40.521 41.7791C40.2517 42.0855 40.1171 42.4703 40.1171 42.9341Z" fill="#7952B3"/>
</g>
<defs>
<filter id="filter0_d_13_39" x="15.4747" y="8.59464" width="18.1478" height="22.938" filterUnits="userSpaceOnUse" color-interpolation-filters="sRGB">
<feFlood flood-opacity="0" result="BackgroundImageFix"/>
<feColorMatrix in="SourceAlpha" type="matrix" values="0 0 0 0 0 0 0 0 0 0 0 0 0 0 0 0 0 0 127 0" result="hardAlpha"/>
<feOffset dy="0.368625"/>
<feGaussianBlur stdDeviation="0.736875"/>
<feColorMatrix type="matrix" values="0 0 0 0 0 0 0 0 0 0 0 0 0 0 0 0 0 0 0.15 0"/>
<feBlend mode="normal" in2="BackgroundImageFix" result="effect1_dropShadow_13_39"/>
<feBlend mode="normal" in="SourceGraphic" in2="effect1_dropShadow_13_39" result="shape"/>
</filter>
<linearGradient id="paint0_linear_13_39" x1="7.42502" y1="1.76398" x2="48.6405" y2="34.4812" gradientUnits="userSpaceOnUse">
<stop stop-color="#9013FE"/>
<stop offset="1" stop-color="#6610F2"/>
</linearGradient>
<linearGradient id="paint1_linear_13_39" x1="18.387" y1="11.0153" x2="27.5992" y2="26.5958" gradientUnits="userSpaceOnUse">
<stop stop-color="white"/>
<stop offset="1" stop-color="#F1E5FC"/>
</linearGradient>
<clipPath id="clip0_13_39">
<rect width="48" height="48" fill="white"/>
</clipPath>
</defs>
</svg>
