<!-- mayurDayal2000 github icons -->
<svg width="80" height="80" viewBox="0 0 80 80" fill="none" xmlns="http://www.w3.org/2000/svg">
<path d="M9.36563 9.46875C9.21751 5.20937 12.5356 1.28188 17.0213 1.28188H62.9838C67.4694 1.28188 70.7875 5.20937 70.6394 9.46875C70.4969 13.56 70.6819 18.86 72.0156 23.1813C73.3538 27.5163 75.61 30.2556 79.3056 30.6081V34.6C75.61 34.9519 73.3538 37.6919 72.0156 42.0269C70.6819 46.3481 70.4969 51.6481 70.6394 55.7394C70.7875 59.9987 67.4694 63.9256 62.9838 63.9256H17.0213C12.5356 63.9256 9.21751 59.9981 9.36563 55.7394C9.50813 51.6481 9.32313 46.3481 7.98876 42.0269C6.65126 37.6925 4.38876 34.9525 0.69313 34.6V30.6081C4.38876 30.2563 6.65126 27.5163 7.98876 23.1813C9.32313 18.86 9.50751 13.56 9.36563 9.46875Z" fill="url(#paint0_linear_4_63)"/>
<g filter="url(#filter0_d_4_63)">
<path d="M41.9437 49.4838C49.2056 49.4838 53.5813 45.9281 53.5813 40.0638C53.5813 35.6306 50.4594 32.4213 45.8231 31.9131V31.7281C49.2294 31.1744 51.9019 28.0113 51.9019 24.4781C51.9019 19.445 47.9281 16.1663 41.8725 16.1663H28.2475V49.4838H41.9437ZM33.5462 20.3919H40.5956C44.4269 20.3919 46.6037 22.1 46.6037 25.1944C46.6037 28.4956 44.0725 30.3431 39.4837 30.3431H33.5462V20.3919ZM33.5462 45.2588V34.2913H40.5481C45.5625 34.2913 48.1644 36.1381 48.1644 39.74C48.1644 43.3419 45.6338 45.2588 40.8556 45.2588H33.5462Z" fill="url(#paint1_linear_4_63)"/>
<path d="M41.9437 49.4838C49.2056 49.4838 53.5813 45.9281 53.5813 40.0638C53.5813 35.6306 50.4594 32.4213 45.8231 31.9131V31.7281C49.2294 31.1744 51.9019 28.0113 51.9019 24.4781C51.9019 19.445 47.9281 16.1663 41.8725 16.1663H28.2475V49.4838H41.9437ZM33.5462 20.3919H40.5956C44.4269 20.3919 46.6037 22.1 46.6037 25.1944C46.6037 28.4956 44.0725 30.3431 39.4837 30.3431H33.5462V20.3919ZM33.5462 45.2588V34.2913H40.5481C45.5625 34.2913 48.1644 36.1381 48.1644 39.74C48.1644 43.3419 45.6338 45.2588 40.8556 45.2588H33.5462Z" fill="white"/>
</g>
<path d="M7.12375 75.8938V64.8075H10.2781C11.2362 64.8075 11.9969 65.0419 12.5587 65.5113C13.1206 65.98 13.4012 66.5906 13.4012 67.3431C13.4012 67.9725 13.2312 68.5188 12.8912 68.9825C12.5506 69.4463 12.0819 69.7763 11.4837 69.9719V70.0031C12.2312 70.0906 12.8294 70.3738 13.2775 70.8531C13.7256 71.3275 13.95 71.9456 13.95 72.7088C13.95 73.6569 13.61 74.425 12.93 75.0125C12.2494 75.6 11.3912 75.8938 10.355 75.8938H7.12375ZM8.4225 65.9825V69.5619H9.7525C10.4637 69.5619 11.0231 69.3919 11.43 69.0519C11.8369 68.7063 12.0406 68.2213 12.0406 67.5981C12.0406 66.5213 11.3319 65.9825 9.91437 65.9825H8.4225ZM8.4225 70.7294V74.7188H10.185C10.9475 74.7188 11.5381 74.5381 11.9556 74.1775C12.3781 73.8169 12.5894 73.3219 12.5894 72.6931C12.5894 71.3838 11.6975 70.7294 9.91437 70.7294H8.4225ZM19.3387 76.0813C18.1687 76.0813 17.2331 75.7125 16.5325 74.9756C15.8369 74.2338 15.4887 73.2519 15.4887 72.03C15.4887 70.7006 15.8519 69.6619 16.5787 68.9144C17.3056 68.1675 18.2875 67.7938 19.5244 67.7938C20.7044 67.7938 21.6244 68.1569 22.2844 68.8837C22.9487 69.6106 23.2812 70.6181 23.2812 71.9063C23.2812 73.1694 22.9231 74.1819 22.2062 74.945C21.4956 75.7025 20.5394 76.0813 19.3387 76.0813ZM19.4312 68.8606C18.6169 68.8606 17.9731 69.1388 17.4987 69.6956C17.0244 70.2469 16.7875 71.0094 16.7875 71.9838C16.7875 72.9219 17.0269 73.6619 17.5062 74.2025C17.9856 74.7444 18.6269 75.015 19.4312 75.015C20.2506 75.015 20.88 74.7494 21.3181 74.2181C21.7613 73.6875 21.9825 72.9325 21.9825 71.9531C21.9825 70.9638 21.7613 70.2006 21.3181 69.6644C20.88 69.1288 20.2506 68.8606 19.4312 68.8606ZM28.6162 76.0813C27.4462 76.0813 26.5106 75.7125 25.81 74.9756C25.1144 74.2338 24.7662 73.2519 24.7662 72.03C24.7662 70.7006 25.1294 69.6619 25.8562 68.9144C26.5831 68.1675 27.565 67.7938 28.8019 67.7938C29.9819 67.7938 30.9019 68.1569 31.5619 68.8837C32.2269 69.6106 32.5594 70.6181 32.5594 71.9063C32.5594 73.1694 32.2012 74.1819 31.4844 74.945C30.7731 75.7025 29.8175 76.0813 28.6162 76.0813ZM28.7087 68.8606C27.8944 68.8606 27.2506 69.1388 26.7762 69.6956C26.3019 70.2469 26.065 71.0094 26.065 71.9838C26.065 72.9219 26.3044 73.6619 26.7837 74.2025C27.2631 74.7444 27.9044 75.015 28.7087 75.015C29.5281 75.015 30.1575 74.7494 30.5956 74.2181C31.0387 73.6875 31.26 72.9325 31.26 71.9531C31.26 70.9638 31.0387 70.2006 30.5956 69.6644C30.1575 69.1288 29.5287 68.8606 28.7087 68.8606ZM38.2562 75.8188C37.9575 75.9838 37.5631 76.0663 37.0731 76.0663C35.6869 76.0663 34.9938 75.2931 34.9938 73.7469V69.0619H33.6331V67.9794H34.9938V66.0469L36.2619 65.6369V67.9794H38.2556V69.0619H36.2619V73.5225C36.2619 74.0531 36.3519 74.4325 36.5325 74.6594C36.7125 74.8863 37.0113 74.9994 37.4288 74.9994C37.7481 74.9994 38.0244 74.9119 38.2562 74.7369V75.8188ZM39.47 75.6063V74.2456C40.1606 74.7556 40.9206 75.0106 41.7506 75.0106C42.8638 75.0106 43.4206 74.64 43.4206 73.8981C43.4206 73.6863 43.3719 73.5088 43.2737 73.3644C43.1737 73.2074 43.0419 73.0731 42.8869 72.97C42.709 72.8471 42.517 72.7459 42.315 72.6687C42.0821 72.5692 41.8475 72.4738 41.6113 72.3825C41.2954 72.2588 40.9858 72.1194 40.6838 71.965C40.4417 71.8356 40.218 71.6744 40.0187 71.4856C39.8468 71.3098 39.7103 71.1025 39.6169 70.875C39.5294 70.6481 39.4856 70.3831 39.4856 70.0788C39.4856 69.7081 39.5706 69.3806 39.7406 69.0969C39.91 68.8089 40.1425 68.5631 40.4206 68.3781C40.7154 68.177 41.0424 68.0278 41.3875 67.9369C41.7557 67.8385 42.1352 67.7892 42.5163 67.79C43.2019 67.79 43.815 67.9087 44.3563 68.1462V69.4294C43.7738 69.0475 43.1037 68.8569 42.3456 68.8569C42.1081 68.8569 41.895 68.885 41.7044 68.9419C41.5275 68.9874 41.36 69.0635 41.2094 69.1669C41.0788 69.2603 40.9705 69.3815 40.8925 69.5219C40.8194 69.66 40.7823 69.8144 40.7844 69.9706C40.7844 70.1763 40.8206 70.3488 40.8925 70.4881C40.9694 70.6275 41.08 70.7513 41.225 70.8594C41.3687 70.9675 41.5444 71.0656 41.7506 71.1531C41.9569 71.2406 42.1913 71.3363 42.4544 71.4394C42.8044 71.5731 43.1187 71.7125 43.3975 71.8569C43.6559 71.9825 43.8953 72.1439 44.1087 72.3363C44.3044 72.5113 44.4537 72.715 44.5569 72.9469C44.665 73.1787 44.7194 73.4544 44.7194 73.7738C44.7194 74.1656 44.6319 74.5056 44.4569 74.7944C44.2862 75.0831 44.0569 75.3225 43.7681 75.5131C43.4627 75.7111 43.1255 75.8551 42.7712 75.9388C42.384 76.0331 41.9867 76.0799 41.5881 76.0781C40.7737 76.0781 40.0681 75.9206 39.47 75.6063ZM50.3387 75.8188C50.0406 75.9838 49.6462 76.0663 49.1562 76.0663C47.77 76.0663 47.0769 75.2931 47.0769 73.7469V69.0619H45.7163V67.9794H47.0769V66.0469L48.345 65.6369V67.9794H50.3387V69.0619H48.345V73.5225C48.345 74.0531 48.435 74.4325 48.6156 74.6594C48.7956 74.8863 49.0944 74.9994 49.5119 74.9994C49.8312 74.9994 50.1075 74.9119 50.3394 74.7369L50.3387 75.8188ZM56.1612 69.2625C55.9394 69.0925 55.62 69.0075 55.2025 69.0075C54.6612 69.0075 54.2075 69.2625 53.8419 69.7725C53.4812 70.2831 53.3006 70.9788 53.3006 71.86V75.8956H52.0331V67.9794H53.3006V69.6106H53.3319C53.5125 69.0538 53.7881 68.6213 54.1587 68.3119C54.5294 67.9975 54.9444 67.84 55.4037 67.84C55.7331 67.84 55.9856 67.8763 56.1612 67.9488V69.2625ZM63.2056 75.8938H61.9375V74.6562H61.9062C61.3556 75.605 60.5437 76.0794 59.4725 76.0794C58.6837 76.0794 58.065 75.8706 57.6162 75.4531C57.1731 75.0356 56.9519 74.4813 56.9519 73.7906C56.9519 72.3113 57.8225 71.4513 59.5644 71.2094L61.9381 70.8763C61.9381 69.5313 61.3944 68.8588 60.3069 68.8588C59.3537 68.8588 58.4931 69.1831 57.725 69.8325V68.5338C58.5031 68.0394 59.4 67.7919 60.4156 67.7919C62.2762 67.7919 63.2062 68.7763 63.2062 70.745L63.2056 75.8938ZM61.9369 71.8894L60.0281 72.1519C59.4406 72.2344 58.9969 72.3813 58.6981 72.5925C58.3994 72.7988 58.25 73.1675 58.25 73.6981C58.25 74.085 58.3869 74.4019 58.66 74.6494C58.9381 74.8913 59.3069 75.0119 59.7656 75.0119C60.3944 75.0119 60.9125 74.7931 61.3194 74.3556C61.7319 73.9125 61.9381 73.3531 61.9381 72.6775L61.9369 71.8894ZM66.8931 74.75H66.8619V79.5356H65.5944V67.9775H66.8625V69.3688H66.8931C67.5169 68.3175 68.4294 67.7919 69.63 67.7919C70.6506 67.7919 71.4469 68.1475 72.0187 68.8588C72.5906 69.5644 72.8769 70.5131 72.8769 71.7038C72.8769 73.0281 72.555 74.09 71.9106 74.8888C71.2662 75.6825 70.385 76.0794 69.2669 76.0794C68.2412 76.0794 67.45 75.6369 66.8931 74.75ZM66.8619 71.5569V72.6631C66.8619 73.3175 67.0731 73.8738 67.4962 74.3325C67.9244 74.7863 68.465 75.0131 69.1194 75.0131C69.8875 75.0131 70.4881 74.7194 70.9212 74.1319C71.3587 73.5444 71.5775 72.7275 71.5775 71.6806C71.5775 70.7994 71.3744 70.1088 70.9675 69.6088C70.5606 69.1088 70.0087 68.8588 69.3131 68.8588C68.5756 68.8588 67.9831 69.1163 67.535 69.6319C67.0862 70.1425 66.8619 70.7838 66.8619 71.5569Z" fill="#7952B3"/>
<defs>
<filter id="filter0_d_4_63" x="24.3175" y="13.2193" width="33.1938" height="41.1775" filterUnits="userSpaceOnUse" color-interpolation-filters="sRGB">
<feFlood flood-opacity="0" result="BackgroundImageFix"/>
<feColorMatrix in="SourceAlpha" type="matrix" values="0 0 0 0 0 0 0 0 0 0 0 0 0 0 0 0 0 0 127 0" result="hardAlpha"/>
<feOffset dy="0.983"/>
<feGaussianBlur stdDeviation="1.965"/>
<feColorMatrix type="matrix" values="0 0 0 0 0 0 0 0 0 0 0 0 0 0 0 0 0 0 0.15 0"/>
<feBlend mode="normal" in2="BackgroundImageFix" result="effect1_dropShadow_4_63"/>
<feBlend mode="normal" in="SourceGraphic" in2="effect1_dropShadow_4_63" result="shape"/>
</filter>
<linearGradient id="paint0_linear_4_63" x1="12.375" y1="2.94" x2="81.0675" y2="57.4688" gradientUnits="userSpaceOnUse">
<stop stop-color="#9013FE"/>
<stop offset="1" stop-color="#6610F2"/>
</linearGradient>
<linearGradient id="paint1_linear_4_63" x1="30.645" y1="18.3588" x2="45.9988" y2="44.3263" gradientUnits="userSpaceOnUse">
<stop stop-color="white"/>
<stop offset="1" stop-color="#F1E5FC"/>
</linearGradient>
</defs>
</svg>
