<!-- mayurDayal2000 github icons -->
<svg width="48" height="48" viewBox="0 0 48 48" fill="none" xmlns="http://www.w3.org/2000/svg">
<path d="M44.0625 12.5625L44.175 12.4875C43.95 12.075 43.6125 11.7 43.275 11.5125L25.1625 1.08751C24.8625 0.900012 24.45 0.825012 24 0.825012C23.55 0.825012 23.1375 0.937512 22.8375 1.08751L4.8375 11.55C4.2 11.925 3.75 12.8625 3.75 13.575V34.4625C3.75 34.875 3.825 35.325 4.0875 35.7375L4.0125 35.775C4.2 36.075 4.4625 36.3375 4.725 36.4875L22.8 46.95C23.1 47.1375 23.5125 47.2125 23.9625 47.2125C24.4125 47.2125 24.825 47.1 25.125 46.95L43.125 36.4875C43.7625 36.1125 44.2125 35.175 44.2125 34.4625V13.5375C44.25 13.2375 44.2125 12.9 44.0625 12.5625ZM30.75 24.75V23.25H32.625V21.375H34.5V23.25H36.375V24.75H34.5V26.625H32.625V24.75H30.75ZM31.9875 19.5C30.4125 16.6875 27.4125 14.8125 24 14.8125C18.9375 14.8125 14.8125 18.9375 14.8125 24C14.8125 29.0625 18.9375 33.1875 24 33.1875C27.4125 33.1875 30.4125 31.3125 31.9875 28.5375L36.825 31.3875C34.275 35.8125 29.475 38.8125 24 38.8125C15.825 38.8125 9.1875 32.175 9.1875 24C9.1875 15.825 15.825 9.18751 24 9.18751C29.5125 9.18751 34.3125 12.225 36.8625 16.6875L31.9875 19.5ZM43.125 24.75H41.25V26.625H39.75V24.75H37.5V23.25H39.75V21.375H41.25V23.25H43.125V24.75Z" fill="#9C033A"/>
</svg>
