<!-- mayurDayal2000 github icons -->
<svg width="80" height="80" viewBox="0 0 80 80" fill="none" xmlns="http://www.w3.org/2000/svg">
<path d="M39.9654 79.7979L16.8779 73.3886L11.733 15.6822H68.267L63.1166 73.3796L39.9654 79.7979Z" fill="#264DE4"/>
<path d="M58.7073 69.7056L63.1086 20.4005H40V74.892L58.7073 69.7056Z" fill="#2965F1"/>
<path d="M23.5277 41.803L24.162 48.8804H40V41.803H23.5277Z" fill="#EBEBEB"/>
<path d="M22.2531 27.4781L22.8964 34.5556H40V27.4781H22.2531Z" fill="#EBEBEB"/>
<path d="M40 60.184L39.969 60.1922L32.0868 58.0639L31.5829 52.4193H24.4782L25.4698 63.5319L39.9674 67.5565L40 67.5475V60.184Z" fill="#EBEBEB"/>
<path d="M25.0379 0H33.6099V3.58467H28.6226V7.16934H33.6099V10.754H25.0379V0Z" fill="#264DE4"/>
<path d="M35.3243 0H43.8964V3.1171H38.909V3.74053H43.8964V10.9099H35.3243V7.63691H40.3117V7.01349H35.3243V0Z" fill="#264DE4"/>
<path d="M45.6108 0H54.1828V3.1171H49.1955V3.74053H54.1828V10.9099H45.6108V7.63691H50.5981V7.01349H45.6108V0Z" fill="#264DE4"/>
<path d="M56.427 41.803L57.7047 27.4781H39.9755V34.5556H49.9484L49.3044 41.803H39.9755V48.8804H48.6906L47.8691 58.0593L39.9755 60.1899V67.5531L54.4847 63.5319L54.5912 62.3362L56.2543 43.7035L56.427 41.803Z" fill="white"/>
</svg>
