<!-- mayurDayal2000 github icons -->
<svg width="48" height="48" viewBox="0 0 48 48" fill="none" xmlns="http://www.w3.org/2000/svg">
<path d="M7.37622 9.75L10.4021 43.6849L23.9793 47.4536L37.5945 43.68L40.6237 9.75H7.37622ZM33.33 28.683L32.4487 36.8925L32.4521 37.5956L24 39.9563L23.9932 39.9622L15.4736 37.6279L14.8972 31.125H19.0751L19.3713 34.4123L24.0015 35.6479L24 35.6535V35.6415L28.6477 34.3309L29.1382 28.875H19.4231L19.3398 27.9919L19.1501 25.8743L19.0507 24.75H29.508L29.8882 20.625H13.9608L13.8772 19.6541L13.6875 17.3929L13.5881 16.125H34.437L34.3368 17.3752L33.33 28.683ZM33.375 5.39025L30.6941 2.25H33.375V0.375H27.375V2.01112L30.5212 4.875H27.375V6.75H33.375V5.39025ZM26.25 5.39025L23.6973 2.25H26.25V0.375H20.625V2.01112L23.5248 4.875H20.625V6.75H26.25V5.39025ZM19.5 4.875H16.5V2.25H19.5V0.375H14.25V6.75H19.5V4.875Z" fill="#1572B6"/>
</svg>
