<!-- mayurDayal2000 github icons -->
<svg width="158" height="24" viewBox="0 0 158 24" fill="none" xmlns="http://www.w3.org/2000/svg">
<path d="M33.1257 19.2808H41.7949C41.9159 19.2808 42.032 19.2328 42.1175 19.1472C42.2031 19.0616 42.2512 18.9456 42.2512 18.8246C42.2512 18.7036 42.2031 18.5875 42.1175 18.5019C42.032 18.4164 41.9159 18.3683 41.7949 18.3683H33.6341V13.0364H40.8693C40.9903 13.0364 41.1064 12.9883 41.192 12.9028C41.2775 12.8172 41.3256 12.7011 41.3256 12.5801C41.3256 12.4591 41.2775 12.3431 41.192 12.2575C41.1064 12.1719 40.9903 12.1239 40.8693 12.1239H33.6341V6.9093H41.7167C41.8377 6.9093 41.9538 6.86123 42.0393 6.77566C42.1249 6.6901 42.173 6.57404 42.173 6.45303C42.173 6.33202 42.1249 6.21597 42.0393 6.1304C41.9538 6.04483 41.8377 5.99676 41.7167 5.99676H33.1257C32.9954 6.00006 32.8713 6.05331 32.7791 6.14551C32.6869 6.2377 32.6336 6.36179 32.6303 6.49214V18.7855C32.6336 18.9158 32.6869 19.0399 32.7791 19.1321C32.8713 19.2243 32.9954 19.2775 33.1257 19.2808ZM48.274 18.7855C48.2773 18.9158 48.3306 19.0399 48.4227 19.1321C48.5149 19.2243 48.639 19.2775 48.7694 19.2808H56.6825C56.8035 19.2808 56.9195 19.2328 57.0051 19.1472C57.0907 19.0616 57.1387 18.9456 57.1387 18.8246C57.1387 18.7036 57.0907 18.5875 57.0051 18.5019C56.9195 18.4164 56.8035 18.3683 56.6825 18.3683H49.2778V6.41392C49.2778 6.28254 49.2256 6.15653 49.1327 6.06363C49.0398 5.97073 48.9138 5.91854 48.7824 5.91854C48.651 5.91854 48.525 5.97073 48.4321 6.06363C48.3392 6.15653 48.287 6.28254 48.287 6.41392L48.274 18.7855ZM63.4484 19.2808H72.1176C72.2386 19.2808 72.3546 19.2328 72.4402 19.1472C72.5258 19.0616 72.5738 18.9456 72.5738 18.8246C72.5738 18.7036 72.5258 18.5875 72.4402 18.5019C72.3546 18.4164 72.2386 18.3683 72.1176 18.3683H63.9437V13.0364H71.1789C71.3 13.0364 71.416 12.9883 71.5016 12.9028C71.5872 12.8172 71.6352 12.7011 71.6352 12.5801C71.6352 12.4591 71.5872 12.3431 71.5016 12.2575C71.416 12.1719 71.3 12.1239 71.1789 12.1239H63.9437V6.9093H72.0263C72.1473 6.9093 72.2634 6.86123 72.3489 6.77566C72.4345 6.6901 72.4826 6.57404 72.4826 6.45303C72.4826 6.33202 72.4345 6.21597 72.3489 6.1304C72.2634 6.04483 72.1473 5.99676 72.0263 5.99676H63.4484C63.318 6.00006 63.1939 6.05331 63.1017 6.14551C63.0095 6.2377 62.9563 6.36179 62.953 6.49214V18.7855C62.9563 18.9158 63.0095 19.0399 63.1017 19.1321C63.1939 19.2243 63.318 19.2775 63.4484 19.2808ZM84.6195 19.5025C85.5551 19.5171 86.4839 19.3409 87.3491 18.9845C88.2143 18.6281 88.9977 18.0991 89.6515 17.4297C89.6988 17.3864 89.737 17.3341 89.7639 17.276C89.7907 17.2178 89.8057 17.1548 89.808 17.0907C89.8017 16.9683 89.7502 16.8525 89.6635 16.7659C89.5768 16.6792 89.4611 16.6277 89.3387 16.6214C89.2746 16.6237 89.2116 16.6387 89.1534 16.6655C89.0952 16.6924 89.043 16.7306 88.9997 16.7779C88.4446 17.3668 87.7733 17.8343 87.0284 18.1507C86.2834 18.467 85.4809 18.6255 84.6716 18.616C83.9064 18.6028 83.1517 18.4364 82.4519 18.1264C81.7522 17.8164 81.1218 17.3693 80.5979 16.8114C80.0741 16.2535 79.6674 15.5962 79.402 14.8784C79.1367 14.1605 79.018 13.3968 79.0529 12.6323C79.0179 11.8718 79.136 11.1121 79.4002 10.3982C79.6645 9.68427 80.0694 9.03069 80.591 8.47624C81.1126 7.9218 81.7403 7.47778 82.4368 7.17054C83.1333 6.8633 83.8844 6.6991 84.6455 6.68769C85.4305 6.6799 86.2092 6.82799 86.9365 7.12338C87.6638 7.41877 88.3252 7.85558 88.8824 8.40849C88.9755 8.49219 89.0961 8.53861 89.2213 8.53885C89.353 8.53572 89.4785 8.48292 89.5728 8.39103C89.6671 8.29914 89.7232 8.17498 89.7297 8.04347C89.726 7.96642 89.7068 7.89092 89.6732 7.82148C89.6396 7.75204 89.5923 7.69009 89.5342 7.63934C88.2138 6.40672 86.4645 5.73789 84.6586 5.77514C83.7687 5.77997 82.8887 5.96272 82.0704 6.31264C81.2521 6.66256 80.5121 7.17258 79.8939 7.8127C79.2756 8.45282 78.7916 9.21011 78.4703 10.04C78.149 10.87 77.997 11.7558 78.0231 12.6453C77.9915 13.5322 78.1392 14.4164 78.4574 15.2448C78.7755 16.0733 79.2576 16.829 79.8747 17.4668C80.4918 18.1046 81.2312 18.6113 82.0487 18.9566C82.8663 19.3019 83.7451 19.4787 84.6325 19.4764L84.6195 19.5025ZM99.2202 18.8637C99.2202 18.9951 99.2724 19.1211 99.3653 19.214C99.4582 19.3069 99.5842 19.3591 99.7156 19.3591C99.847 19.3591 99.973 19.3069 100.066 19.214C100.159 19.1211 100.211 18.9951 100.211 18.8637V6.9093H104.461C104.582 6.9093 104.698 6.86123 104.784 6.77566C104.869 6.6901 104.917 6.57404 104.917 6.45303C104.917 6.33202 104.869 6.21597 104.784 6.1304C104.698 6.04483 104.582 5.99676 104.461 5.99676H94.9704C94.8494 5.99676 94.7333 6.04483 94.6477 6.1304C94.5622 6.21597 94.5141 6.33202 94.5141 6.45303C94.5141 6.57404 94.5622 6.6901 94.6477 6.77566C94.7333 6.86123 94.8494 6.9093 94.9704 6.9093H99.2202V18.8637ZM110.757 18.8637C110.757 18.9951 110.81 19.1211 110.903 19.214C110.995 19.3069 111.121 19.3591 111.253 19.3591C111.384 19.3591 111.51 19.3069 111.603 19.214C111.696 19.1211 111.748 18.9951 111.748 18.8637V13.7795H116.089L120.17 19.0983C120.215 19.173 120.278 19.2357 120.353 19.281C120.428 19.3264 120.513 19.3532 120.6 19.3591C120.733 19.3527 120.858 19.2971 120.952 19.2031C121.046 19.1091 121.102 18.9834 121.108 18.8506C121.098 18.7228 121.042 18.6029 120.952 18.5117L117.171 13.61C119.414 13.3102 121.082 12.0326 121.082 9.81642C121.084 8.89516 120.724 8.0101 120.078 7.35254C119.051 6.44267 117.707 5.97427 116.337 6.0489H111.253C111.122 6.0522 110.998 6.10546 110.906 6.19765C110.814 6.28985 110.761 6.41394 110.757 6.54429V18.8637ZM111.748 12.88V6.9093H116.285C118.697 6.9093 120.105 8.03044 120.105 9.81642C120.105 11.7328 118.449 12.8539 116.194 12.8539L111.748 12.88ZM133.506 19.5025C134.401 19.5045 135.287 19.327 136.112 18.9803C136.937 18.6337 137.684 18.1249 138.309 17.4843C138.934 16.8436 139.424 16.0841 139.75 15.2507C140.076 14.4172 140.231 13.5269 140.207 12.6323C140.247 11.7301 140.103 10.8291 139.785 9.98381C139.468 9.13847 138.982 8.36626 138.358 7.71373C137.733 7.06121 136.983 6.5419 136.153 6.18711C135.322 5.83232 134.429 5.64942 133.526 5.64942C132.622 5.64942 131.729 5.83232 130.898 6.18711C130.068 6.5419 129.318 7.06121 128.693 7.71373C128.069 8.36626 127.583 9.13847 127.266 9.98381C126.948 10.8291 126.805 11.7301 126.844 12.6323C126.811 13.5259 126.959 14.417 127.279 15.2519C127.599 16.0868 128.085 16.8482 128.708 17.4902C129.33 18.1322 130.076 18.6414 130.901 18.9873C131.726 19.3331 132.612 19.5084 133.506 19.5025ZM133.506 18.616C132.737 18.6062 131.979 18.4424 131.275 18.1342C130.57 17.8261 129.935 17.3799 129.407 16.822C128.878 16.2642 128.466 15.606 128.196 14.8863C127.927 14.1667 127.804 13.4002 127.835 12.6323C127.796 11.8632 127.914 11.0942 128.181 10.372C128.449 9.64987 128.86 8.98956 129.391 8.43119C129.921 7.87283 130.559 7.42805 131.267 7.12385C131.974 6.81966 132.736 6.6624 133.506 6.66161C134.275 6.67143 135.033 6.83525 135.737 7.14338C136.442 7.45151 137.077 7.8977 137.605 8.45556C138.134 9.01343 138.546 9.67164 138.815 10.3913C139.085 11.1109 139.208 11.8774 139.177 12.6453C139.216 13.4144 139.098 14.1834 138.83 14.9056C138.563 15.6277 138.152 16.288 137.621 16.8464C137.091 17.4048 136.453 17.8496 135.745 18.1538C135.038 18.4579 134.276 18.6152 133.506 18.616ZM146.451 18.8767C146.451 19.0029 146.501 19.1239 146.59 19.2132C146.68 19.3024 146.801 19.3525 146.927 19.3525C147.053 19.3525 147.174 19.3024 147.263 19.2132C147.353 19.1239 147.403 19.0029 147.403 18.8767V7.43076L156.528 19.0071C156.581 19.0954 156.653 19.1706 156.738 19.2271C156.824 19.2835 156.922 19.3198 157.024 19.333H157.102C157.156 19.333 157.21 19.3222 157.26 19.301C157.309 19.2799 157.355 19.249 157.392 19.2101C157.43 19.1711 157.46 19.125 157.479 19.0745C157.499 19.0239 157.508 18.97 157.506 18.9158V6.38785C157.506 6.26165 157.456 6.14062 157.367 6.05139C157.277 5.96215 157.156 5.91202 157.03 5.91202C156.904 5.91202 156.783 5.96215 156.694 6.05139C156.604 6.14062 156.554 6.26165 156.554 6.38785V17.5861L147.598 6.21838C147.545 6.13386 147.473 6.06355 147.386 6.01357C147.3 5.96359 147.203 5.93544 147.103 5.93157H146.946C146.816 5.93487 146.692 5.98813 146.6 6.08033C146.508 6.17252 146.454 6.29661 146.451 6.42696V18.8767ZM7.80902 5.14939C4.66725 4.57579 2.19034 5.14939 1.19957 6.88323C0.854208 7.65456 0.719318 8.50359 0.808623 9.34397C0.897927 10.1843 1.20824 10.9861 1.70799 11.6676C1.75544 11.7328 1.82541 11.7782 1.90436 11.7948C1.98331 11.8114 2.06562 11.7982 2.13537 11.7577C2.20513 11.7171 2.25735 11.6521 2.28196 11.5753C2.30656 11.4984 2.30178 11.4152 2.26855 11.3417C1.82816 10.7557 1.5494 10.0644 1.46017 9.33686C1.37095 8.60932 1.47439 7.8711 1.76013 7.19611C2.58143 5.77514 4.79761 5.24065 7.69169 5.77514C7.77296 5.78302 7.85423 5.76011 7.91942 5.71095C7.9846 5.66178 8.02896 5.58993 8.04371 5.50962C8.05846 5.42932 8.04253 5.3464 7.99907 5.27728C7.95561 5.20816 7.88779 5.15787 7.80902 5.13636V5.14939ZM3.33754 13.8707C4.73504 15.3676 6.35279 16.6425 8.13493 17.6513C12.6846 20.2586 17.5342 20.9756 19.8677 19.3591C19.9278 19.3066 19.9665 19.2339 19.9766 19.1548C19.9867 19.0757 19.9675 18.9956 19.9225 18.9298C19.8775 18.8639 19.8099 18.8168 19.7326 18.7974C19.6552 18.778 19.5734 18.7877 19.5027 18.8246C17.3647 20.2846 12.7629 19.6198 8.4087 17.1038C6.68498 16.125 5.12011 14.8898 3.76774 13.4405C3.70696 13.3978 3.63341 13.3771 3.55927 13.3819C3.48513 13.3867 3.41486 13.4167 3.36009 13.4669C3.30533 13.5171 3.26936 13.5845 3.25814 13.658C3.24693 13.7314 3.26114 13.8065 3.29843 13.8707H3.33754Z" fill="#47848F"/>
<path d="M19.1637 13.4797C21.2235 11.0549 21.9405 8.61708 20.9497 6.96145C20.4654 6.28949 19.8131 5.75644 19.0582 5.41557C18.3032 5.0747 17.4721 4.93797 16.6477 5.01903C16.574 5.03399 16.5078 5.07396 16.4602 5.13217C16.4126 5.19038 16.3866 5.26324 16.3866 5.33842C16.3866 5.4136 16.4126 5.48646 16.4602 5.54467C16.5078 5.60288 16.574 5.64285 16.6477 5.65781C17.3611 5.58005 18.0825 5.68941 18.7408 5.97514C19.3992 6.26088 19.9717 6.71312 20.4022 7.28736C21.2235 8.70833 20.5847 10.8854 18.6814 13.1277C18.648 13.1592 18.6217 13.1974 18.6042 13.2399C18.5866 13.2823 18.5782 13.328 18.5795 13.3738C18.5809 13.4197 18.5919 13.4648 18.6118 13.5062C18.6318 13.5475 18.6603 13.5842 18.6954 13.6138C18.7305 13.6433 18.7715 13.6651 18.8156 13.6778C18.8597 13.6904 18.9061 13.6936 18.9515 13.6871C18.997 13.6806 19.0405 13.6645 19.0793 13.64C19.1181 13.6155 19.1513 13.5831 19.1768 13.5448L19.1637 13.4797ZM13.9492 5.25369C11.9318 5.71001 9.99698 6.47513 8.21315 7.52202C3.52005 10.2336 0.391314 14.2358 0.87366 17.1298C0.895627 17.2052 0.944022 17.27 1.00996 17.3125C1.0759 17.355 1.15496 17.3723 1.23262 17.3612C1.31029 17.3501 1.38134 17.3114 1.43274 17.2521C1.48414 17.1929 1.51244 17.117 1.51244 17.0386C1.06921 14.4704 3.97632 10.6899 8.47388 8.08258C10.1965 7.06781 12.0653 6.3247 14.0143 5.87943C14.0626 5.87904 14.1101 5.86795 14.1535 5.84698C14.1969 5.826 14.2351 5.79565 14.2654 5.75811C14.2957 5.72058 14.3172 5.6768 14.3285 5.62993C14.3398 5.58306 14.3406 5.53426 14.3307 5.48706C14.3209 5.43986 14.3007 5.39543 14.2717 5.35697C14.2426 5.31851 14.2053 5.28699 14.1626 5.26466C14.1199 5.24234 14.0727 5.22978 14.0245 5.22788C13.9763 5.22598 13.9283 5.2348 13.884 5.25369H13.9492Z" fill="#47848F"/>
<path d="M6.27073 19.1505C7.33971 22.1489 9.09963 24 11.0812 24C11.8946 23.9166 12.6722 23.6226 13.3374 23.1471C14.0026 22.6717 14.5325 22.031 14.8748 21.2885C14.9079 21.2528 14.9326 21.2103 14.9471 21.1639C14.9617 21.1175 14.9656 21.0684 14.9587 21.0203C14.9518 20.9721 14.9342 20.9261 14.9073 20.8857C14.8803 20.8452 14.8446 20.8113 14.8028 20.7864C14.761 20.7616 14.7142 20.7464 14.6658 20.7419C14.6173 20.7375 14.5685 20.744 14.5229 20.7609C14.4773 20.7777 14.4361 20.8046 14.4022 20.8395C14.3684 20.8744 14.3427 20.9165 14.3272 20.9625C14.0373 21.6098 13.5848 22.1709 13.0137 22.5912C12.4425 23.0116 11.7722 23.2769 11.0681 23.3612C9.42554 23.3612 7.86117 21.7187 6.8704 18.9419C6.83097 18.8776 6.77048 18.829 6.69922 18.8043C6.62796 18.7797 6.55035 18.7805 6.47961 18.8066C6.40888 18.8327 6.3494 18.8826 6.31131 18.9477C6.27322 19.0128 6.25888 19.0891 6.27073 19.1635V19.1505ZM16.0741 18.5117C16.6569 16.58 16.947 14.5718 16.9345 12.5541C16.9345 7.22219 15.0703 2.63338 12.4109 1.44707C12.3365 1.42854 12.258 1.43682 12.1891 1.47045C12.1202 1.50408 12.0654 1.56091 12.0343 1.63095C12.0031 1.70099 11.9977 1.77976 12.0189 1.85342C12.0401 1.92708 12.0866 1.99091 12.1501 2.0337C14.5228 3.08965 16.2957 7.44381 16.2957 12.541C16.3122 14.4963 16.0354 16.443 15.4744 18.3162C15.4632 18.3926 15.4795 18.4705 15.5204 18.5361C15.5613 18.6016 15.6242 18.6505 15.6978 18.674C15.7714 18.6975 15.8509 18.694 15.9223 18.6643C15.9936 18.6346 16.052 18.5805 16.0871 18.5117H16.0741ZM22.136 18.251C22.1309 17.9479 22.0363 17.6531 21.8642 17.4036C21.6921 17.154 21.4501 16.9609 21.1686 16.8485C20.8871 16.7361 20.5786 16.7093 20.282 16.7716C19.9853 16.8338 19.7136 16.9824 19.5011 17.1985C19.2886 17.4146 19.1446 17.6887 19.0874 17.9864C19.0301 18.2841 19.062 18.592 19.1792 18.8716C19.2964 19.1512 19.4935 19.3899 19.7459 19.5578C19.9982 19.7257 20.2946 19.8153 20.5977 19.8153C21.0057 19.8153 21.397 19.6533 21.6855 19.3648C21.974 19.0763 22.136 18.685 22.136 18.2771V18.251ZM21.4972 18.251C21.4972 18.4289 21.4445 18.6028 21.3457 18.7507C21.2468 18.8986 21.1063 19.0139 20.942 19.082C20.7776 19.1501 20.5967 19.1679 20.4222 19.1332C20.2478 19.0985 20.0875 19.0128 19.9617 18.887C19.8359 18.7612 19.7502 18.601 19.7155 18.4265C19.6808 18.252 19.6986 18.0711 19.7667 17.9068C19.8348 17.7424 19.9501 17.6019 20.098 17.5031C20.2459 17.4042 20.4198 17.3515 20.5977 17.3515C20.7159 17.3515 20.8328 17.3747 20.942 17.4199C21.0511 17.4651 21.1503 17.5314 21.2338 17.6149C21.3173 17.6985 21.3836 17.7976 21.4288 17.9068C21.474 18.0159 21.4972 18.1329 21.4972 18.251ZM1.53851 19.8153C1.84164 19.8153 2.138 19.7257 2.39037 19.5578C2.64275 19.3899 2.83989 19.1512 2.95705 18.8716C3.07421 18.592 3.10615 18.2841 3.04888 17.9864C2.99161 17.6887 2.84767 17.4146 2.63513 17.1985C2.4226 16.9824 2.15095 16.8338 1.85429 16.7716C1.55762 16.7093 1.24918 16.7361 0.967676 16.8485C0.686176 16.9609 0.44417 17.154 0.272048 17.4036C0.0999245 17.6531 0.00535682 17.9479 0.000219081 18.251C-0.00324235 18.4552 0.0339905 18.658 0.109746 18.8477C0.185501 19.0373 0.298262 19.21 0.441452 19.3556C0.584642 19.5012 0.755394 19.6169 0.943749 19.6958C1.1321 19.7747 1.33429 19.8154 1.53851 19.8153ZM1.53851 19.1766C1.36061 19.1766 1.1867 19.1238 1.03877 19.025C0.890849 18.9261 0.775556 18.7856 0.707474 18.6213C0.639392 18.4569 0.621579 18.2761 0.656287 18.1016C0.690995 17.9271 0.776665 17.7668 0.902464 17.641C1.02826 17.5152 1.18854 17.4295 1.36303 17.3948C1.53752 17.3601 1.71838 17.3779 1.88274 17.446C2.04711 17.5141 2.18759 17.6294 2.28643 17.7773C2.38527 17.9252 2.43803 18.0991 2.43803 18.2771C2.43803 18.5156 2.34326 18.7444 2.17457 18.9131C2.00587 19.0818 1.77708 19.1766 1.53851 19.1766Z" fill="#47848F"/>
<path d="M11.0812 3.07661C11.3865 3.07657 11.6849 2.98565 11.9384 2.81544C12.1919 2.64523 12.3891 2.40343 12.5047 2.12082C12.6203 1.83821 12.6492 1.52758 12.5877 1.22849C12.5262 0.929399 12.3771 0.655379 12.1593 0.441319C11.9416 0.227259 11.6651 0.0828503 11.365 0.0264721C11.0649 -0.0299061 10.7548 0.0043004 10.4742 0.124738C10.1936 0.245176 9.9552 0.446396 9.78934 0.702774C9.62349 0.959152 9.53769 1.25909 9.54286 1.56439C9.54286 1.97237 9.70493 2.36364 9.99342 2.65213C10.2819 2.94061 10.6732 3.10268 11.0812 3.10268V3.07661ZM11.0812 2.43783C10.9033 2.43783 10.7293 2.38507 10.5814 2.28623C10.4335 2.18739 10.3182 2.04691 10.2501 1.88255C10.182 1.71818 10.1642 1.53732 10.1989 1.36283C10.2336 1.18834 10.3193 1.02806 10.4451 0.902266C10.5709 0.776467 10.7312 0.690795 10.9057 0.656088C11.0802 0.62138 11.261 0.639193 11.4254 0.707275C11.5898 0.775356 11.7302 0.890651 11.8291 1.03858C11.9279 1.1865 11.9807 1.36041 11.9807 1.53832C11.9807 1.77688 11.8859 2.00568 11.7172 2.17437C11.5485 2.34306 11.3197 2.43783 11.0812 2.43783ZM11.3158 13.6882C11.1011 13.7355 10.8771 13.7179 10.6724 13.6375C10.4677 13.5571 10.2916 13.4177 10.1664 13.2369C10.0412 13.0561 9.97268 12.8422 9.96947 12.6223C9.96626 12.4024 10.0285 12.1866 10.1484 12.0022C10.2682 11.8178 10.4402 11.6733 10.6424 11.5869C10.8447 11.5006 11.068 11.4764 11.2841 11.5174C11.5001 11.5584 11.6991 11.6628 11.8556 11.8172C12.0122 11.9716 12.1192 12.1691 12.1632 12.3846C12.2213 12.6696 12.1651 12.9661 12.0065 13.21C11.848 13.4539 11.5999 13.6257 11.3158 13.6882Z" fill="#47848F"/>
</svg>
