<!-- mayurDayal2000 github icons -->
<svg width="80" height="80" viewBox="0 0 80 80" fill="none" xmlns="http://www.w3.org/2000/svg">
<path d="M10.4185 35.944C10.5983 35.6789 10.7951 35.6452 10.9548 35.6452C11.1145 35.6452 11.3805 35.6789 11.5603 35.944C12.9776 37.8906 15.317 41.7685 17.0427 44.629C18.1681 46.4945 19.0325 47.9272 19.2098 48.1096C19.8755 48.7941 20.7885 48.3675 21.3191 47.5911C21.8414 46.8267 21.9863 46.29 21.9863 45.7174C21.9863 45.3274 14.4195 31.2545 13.6575 30.0831C12.9246 28.9565 12.6859 28.6719 11.4316 28.6719H10.493C9.24246 28.6719 9.06174 28.9565 8.32883 30.0831C7.56685 31.2545 0 45.3274 0 45.7174C0 46.29 0.144996 46.8267 0.667302 47.5911C1.19783 48.3675 2.11081 48.7941 2.7765 48.1096C2.95386 47.9272 3.81823 46.4945 4.94362 44.629C6.6693 41.7685 9.00123 37.8906 10.4185 35.944Z" fill="#4630EB"/>
<path d="M60.6003 34.8273C63.7168 34.8273 66.1952 37.6409 66.1952 41.1209C66.1952 44.6009 63.7168 47.4392 60.6003 47.4392C58.9317 47.4392 57.6311 46.7481 56.7967 45.4894V51.1906H53.3367V35.0741H56.7967V36.7771C57.6311 35.5184 58.9317 34.8273 60.6003 34.8273ZM73.7426 34.8273C77.2759 34.8273 80 37.5422 80 41.1456C80 44.7489 77.2759 47.4392 73.7426 47.4392C70.1843 47.4392 67.4849 44.7489 67.4849 41.1456C67.4849 37.5422 70.1843 34.8273 73.7426 34.8273ZM37.7738 29.9158V33.4205H30.8783V36.5303H37.0131V40.0349H30.8783V43.6877H37.7738V47.1924H27.2465V29.9158H37.7738ZM43.4038 35.0741L45.3915 37.9371L47.4037 35.0741H51.5264L47.4529 40.9234L51.8208 47.1924H47.6491L45.367 43.9098L43.0849 47.1924H38.9623L43.3057 40.9481L39.2322 35.0741H43.4038ZM59.8151 38.1345C58.1218 38.1345 56.7967 39.4426 56.7967 41.1209C56.7967 42.8239 58.1218 44.1073 59.8151 44.1073C61.4837 44.1073 62.8334 42.7992 62.8334 41.1209C62.8334 39.4673 61.4837 38.1345 59.8151 38.1345ZM73.7426 38.1592C72.098 38.1592 70.8715 39.4179 70.8715 41.1456C70.8715 42.8239 72.098 44.1073 73.7426 44.1073C75.3618 44.1073 76.6137 42.8239 76.6137 41.1456C76.6137 39.4179 75.3618 38.1592 73.7426 38.1592Z" fill="#4630EB"/>
</svg>
