<!-- mayurDayal2000 github icons -->
<svg width="80" height="80" viewBox="0 0 80 80" fill="none" xmlns="http://www.w3.org/2000/svg">
<path d="M7.125 72.2625H5.15625V57.0125H14.0625V58.8938H7.125V63.9063H13.4V65.7375H7.1375V72.2625H7.125ZM17.45 59.2125C17.1813 59.4812 16.85 59.6125 16.4688 59.6125C16.0875 59.6125 15.75 59.4812 15.4875 59.2125C15.2188 58.9437 15.0875 58.6125 15.0875 58.2312C15.0875 57.85 15.2188 57.5125 15.4875 57.25C15.7563 56.9812 16.0875 56.85 16.4688 56.85C16.85 56.85 17.1875 56.9812 17.45 57.25C17.7125 57.5188 17.85 57.85 17.85 58.2312C17.85 58.6125 17.7125 58.925 17.45 59.2125ZM17.45 72.2625H15.4875V61.825H17.45V72.2625ZM21.5438 72.2625H19.5812V61.825H21.4625V63.525H21.5438C21.7438 62.9563 22.1437 62.4938 22.775 62.125C23.3937 61.7563 23.9937 61.575 24.575 61.575C25.1562 61.575 25.6437 61.6562 26.0375 61.825L25.2875 63.6562C25.0375 63.5563 24.6875 63.5063 24.2375 63.5063C23.5187 63.5063 22.9063 63.7875 22.3563 64.3563C21.8063 64.925 21.5375 65.6562 21.5375 66.5562V72.2625H21.5438ZM30.7687 72.6125C29.1875 72.6125 27.9063 72.0813 26.925 71.0313C25.9438 69.9813 25.4437 68.65 25.4437 67.05C25.4437 65.5375 25.925 64.2187 26.875 63.1187C27.8437 62.0187 29.0562 61.4688 30.5562 61.4688C32.1062 61.4688 33.3375 61.9687 34.2688 62.9812C35.2 64 35.6687 65.3437 35.6687 67.025L35.65 67.3938H27.4062C27.4562 68.4438 27.825 69.275 28.4562 69.8938C29.1062 70.5125 29.8563 70.8125 30.7188 70.8125C32.1188 70.8125 33.0812 70.2125 33.5812 69.0125L35.3312 69.7437C35 70.5625 34.4313 71.225 33.65 71.775C32.8688 72.3312 31.9 72.6125 30.7687 72.6125ZM33.5875 65.7875C33.5375 65.1875 33.2688 64.6188 32.7688 64.0875C32.2688 63.5563 31.5188 63.2688 30.5188 63.2688C29.7875 63.2688 29.1687 63.5 28.6375 63.95C28.1062 64.4 27.7375 65.0188 27.5375 65.7813L33.5875 65.7875ZM42.5625 72.6125C41.7625 72.6125 41.05 72.4438 40.4125 72.0938C39.7813 71.7625 39.3125 71.325 39 70.8125H38.9188V72.2625H37.0375V57.0125H39V61.825L38.9188 63.275H39C39.3188 62.7562 39.7813 62.3438 40.4125 61.9938C41.0438 61.6625 41.7625 61.475 42.5625 61.475C43.9125 61.475 45.075 62.0062 46.0625 63.075C47.0437 64.1437 47.525 65.4563 47.525 67.0375C47.525 68.6188 47.0437 69.9375 46.0625 71C45.075 72.0813 43.9125 72.6125 42.5625 72.6125ZM42.225 70.8187C43.1437 70.8187 43.925 70.4688 44.575 69.7875C45.225 69.1063 45.5562 68.1875 45.5562 67.0563C45.5562 65.925 45.225 65.0062 44.575 64.325C43.925 63.6437 43.1437 63.2937 42.225 63.2937C41.3062 63.2937 40.5125 63.625 39.875 64.3125C39.2437 64.9938 38.9062 65.9125 38.9062 67.0625C38.9062 68.2125 39.225 69.125 39.875 69.8125C40.5312 70.4812 41.3125 70.8187 42.225 70.8187ZM52.4 72.6125C51.2812 72.6125 50.3687 72.2937 49.6187 71.6437C48.8687 71.0125 48.5 70.1625 48.5 69.1125C48.5 67.9813 48.9312 67.0813 49.8125 66.4313C50.6937 65.7813 51.775 65.4625 53.075 65.4625C54.225 65.4625 55.175 65.6813 55.9062 66.0938V65.7937C55.9062 65.025 55.6375 64.4125 55.125 63.9437C54.5937 63.475 53.9563 63.2438 53.1938 63.2438C52.625 63.2438 52.1125 63.375 51.6437 63.6438C51.175 63.9125 50.8625 64.275 50.6938 64.7625L48.8938 63.9938C49.1438 63.3625 49.6125 62.7938 50.325 62.2625C51.0437 61.7313 51.975 61.4625 53.1375 61.4625C54.4687 61.4625 55.5875 61.8438 56.4687 62.6313C57.35 63.4125 57.7812 64.5125 57.7812 65.9312V72.2563H55.9V70.8063H55.8187C55.05 72.0125 53.9 72.6125 52.4 72.6125ZM52.7187 70.8187C53.5375 70.8187 54.2688 70.5188 54.9188 69.9188C55.5875 69.3188 55.9188 68.6063 55.9188 67.7688C55.3688 67.3188 54.5375 67.0875 53.4188 67.0875C52.4688 67.0875 51.7562 67.2875 51.2687 67.7063C50.7875 68.125 50.5375 68.6063 50.5375 69.1563C50.5375 69.675 50.7563 70.075 51.2063 70.375C51.65 70.6687 52.15 70.8187 52.7187 70.8187ZM63.2438 72.6125C62.075 72.6125 61.1125 72.3313 60.3625 71.7625C59.6207 71.2207 59.045 70.4826 58.7 69.6313L60.45 68.9C61 70.2125 61.95 70.8625 63.2812 70.8625C63.9 70.8625 64.4 70.7312 64.7813 70.4625C65.1625 70.1937 65.3625 69.8313 65.3625 69.3938C65.3625 68.7125 64.8813 68.2438 63.9313 68.0125L61.8125 67.5C61.1438 67.3313 60.5125 67 59.9125 66.5312C59.3125 66.05 59.0125 65.4125 59.0125 64.6C59.0125 63.6813 59.4312 62.9375 60.2437 62.35C61.0625 61.7688 62.025 61.4813 63.1563 61.4813C64.075 61.4813 64.9062 61.7 65.6187 62.1125C66.35 62.5312 66.8688 63.1313 67.1688 63.9125L65.4688 64.6125C65.0875 63.6937 64.2875 63.2312 63.0875 63.2312C62.5063 63.2312 62.0187 63.35 61.625 63.6C61.225 63.85 61.025 64.1688 61.025 64.5813C61.025 65.1813 61.4937 65.5813 62.4062 65.8L64.4688 66.2813C65.45 66.5125 66.1687 66.9 66.65 67.45C67.1187 68 67.35 68.6313 67.35 69.3313C67.35 70.2625 66.9687 71.0438 66.2 71.6813C65.4437 72.3125 64.4563 72.6125 63.2438 72.6125ZM73.4875 72.6125C71.9063 72.6125 70.625 72.0813 69.6438 71.0313C68.6625 69.9813 68.1625 68.65 68.1625 67.05C68.1625 65.5375 68.6437 64.2187 69.5937 63.1187C70.5625 62.0187 71.775 61.4688 73.275 61.4688C74.825 61.4688 76.0563 61.9687 76.9875 62.9812C77.9188 64 78.3875 65.3437 78.3875 67.025L78.3687 67.3938H70.125C70.175 68.4438 70.5437 69.275 71.175 69.8938C71.825 70.5125 72.575 70.8125 73.4375 70.8125C74.8375 70.8125 75.8 70.2125 76.3 69.0125L78.05 69.7437C77.7187 70.5625 77.15 71.225 76.3688 71.775C75.5813 72.3312 74.6188 72.6125 73.4875 72.6125ZM76.3 65.7875C76.25 65.1875 75.9812 64.6188 75.4812 64.0875C74.9812 63.5563 74.2312 63.2688 73.2312 63.2688C72.5 63.2688 71.8813 63.5 71.35 63.95C70.8188 64.4 70.45 65.0188 70.25 65.7813L76.3 65.7875ZM24.5312 37.1375L29.3375 6.3375C29.5062 5.2875 30.9125 5.0375 31.4062 5.98125L36.5687 15.65L24.5312 37.1375ZM58.7 44.6188L54.1125 16.25C53.975 15.3688 52.8687 15.0063 52.2312 15.6438L23.3437 44.6188L39.3375 53.5938C40.3312 54.1438 41.575 54.1438 42.5688 53.5938L58.7 44.6188ZM45.7125 19.875L42.0125 12.8313C41.6 12.0313 40.4688 12.0313 40.05 12.8313L23.7812 41.8313L45.7125 19.875Z" fill="#F58220"/>
</svg>
