<!-- mayurDayal2000 github icons -->
<svg width="48" height="48" viewBox="0 0 48 48" fill="none" xmlns="http://www.w3.org/2000/svg">
<path d="M4.275 43.3575H3.09375V34.2075H8.4375V35.3362H4.275V38.3437H8.04V39.4425H4.2825V43.3575H4.275ZM10.47 35.5275C10.3088 35.6887 10.11 35.7675 9.88125 35.7675C9.6525 35.7675 9.45 35.6887 9.2925 35.5275C9.13125 35.3662 9.0525 35.1675 9.0525 34.9387C9.0525 34.71 9.13125 34.5075 9.2925 34.35C9.45375 34.1887 9.6525 34.11 9.88125 34.11C10.11 34.11 10.3125 34.1887 10.47 34.35C10.6275 34.5112 10.71 34.71 10.71 34.9387C10.71 35.1675 10.6275 35.355 10.47 35.5275ZM10.47 43.3575H9.2925V37.095H10.47V43.3575ZM12.9263 43.3575H11.7488V37.095H12.8775V38.115H12.9263C13.0463 37.7737 13.2863 37.4962 13.665 37.275C14.0363 37.0537 14.3963 36.945 14.745 36.945C15.0938 36.945 15.3863 36.9937 15.6225 37.095L15.1725 38.1937C15.0225 38.1337 14.8125 38.1037 14.5425 38.1037C14.1113 38.1037 13.7438 38.2725 13.4138 38.6137C13.0838 38.955 12.9225 39.3937 12.9225 39.9337V43.3575H12.9263ZM18.4613 43.5675C17.5125 43.5675 16.7438 43.2487 16.155 42.6187C15.5663 41.9887 15.2663 41.19 15.2663 40.23C15.2663 39.3225 15.555 38.5312 16.125 37.8712C16.7063 37.2112 17.4338 36.8812 18.3338 36.8812C19.2638 36.8812 20.0025 37.1812 20.5613 37.7887C21.12 38.4 21.4013 39.2062 21.4013 40.215L21.39 40.4362H16.4438C16.4738 41.0662 16.695 41.565 17.0738 41.9362C17.4638 42.3075 17.9138 42.4875 18.4313 42.4875C19.2713 42.4875 19.8488 42.1275 20.1488 41.4075L21.1988 41.8462C21 42.3375 20.6588 42.735 20.19 43.065C19.7213 43.3987 19.14 43.5675 18.4613 43.5675ZM20.1525 39.4725C20.1225 39.1125 19.9613 38.7712 19.6613 38.4525C19.3613 38.1337 18.9113 37.9612 18.3113 37.9612C17.8725 37.9612 17.5013 38.1 17.1825 38.37C16.8638 38.64 16.6425 39.0112 16.5225 39.4687L20.1525 39.4725ZM25.5375 43.5675C25.0575 43.5675 24.63 43.4662 24.2475 43.2562C23.8688 43.0575 23.5875 42.795 23.4 42.4875H23.3513V43.3575H22.2225V34.2075H23.4V37.095L23.3513 37.965H23.4C23.5913 37.6537 23.8688 37.4062 24.2475 37.1962C24.6263 36.9975 25.0575 36.885 25.5375 36.885C26.3475 36.885 27.045 37.2037 27.6375 37.845C28.2263 38.4862 28.515 39.2737 28.515 40.2225C28.515 41.1712 28.2263 41.9625 27.6375 42.6C27.045 43.2487 26.3475 43.5675 25.5375 43.5675ZM25.335 42.4912C25.8863 42.4912 26.355 42.2812 26.745 41.8725C27.135 41.4637 27.3338 40.9125 27.3338 40.2337C27.3338 39.555 27.135 39.0037 26.745 38.595C26.355 38.1862 25.8863 37.9762 25.335 37.9762C24.7838 37.9762 24.3075 38.175 23.925 38.5875C23.5463 38.9962 23.3438 39.5475 23.3438 40.2375C23.3438 40.9275 23.535 41.475 23.925 41.8875C24.3188 42.2887 24.7875 42.4912 25.335 42.4912ZM31.44 43.5675C30.7688 43.5675 30.2213 43.3762 29.7713 42.9862C29.3213 42.6075 29.1 42.0975 29.1 41.4675C29.1 40.7887 29.3588 40.2487 29.8875 39.8587C30.4163 39.4687 31.065 39.2775 31.845 39.2775C32.535 39.2775 33.105 39.4087 33.5438 39.6562V39.4762C33.5438 39.015 33.3825 38.6475 33.075 38.3662C32.7563 38.085 32.3738 37.9462 31.9163 37.9462C31.575 37.9462 31.2675 38.025 30.9863 38.1862C30.705 38.3475 30.5175 38.565 30.4163 38.8575L29.3363 38.3962C29.4863 38.0175 29.7675 37.6762 30.195 37.3575C30.6263 37.0387 31.185 36.8775 31.8825 36.8775C32.6813 36.8775 33.3525 37.1062 33.8813 37.5787C34.41 38.0475 34.6688 38.7075 34.6688 39.5587V43.3537H33.54V42.4837H33.4913C33.03 43.2075 32.34 43.5675 31.44 43.5675ZM31.6313 42.4912C32.1225 42.4912 32.5613 42.3112 32.9513 41.9512C33.3525 41.5912 33.5513 41.1637 33.5513 40.6612C33.2213 40.3912 32.7225 40.2525 32.0513 40.2525C31.4813 40.2525 31.0538 40.3725 30.7613 40.6237C30.4725 40.875 30.3225 41.1637 30.3225 41.4937C30.3225 41.805 30.4538 42.045 30.7238 42.225C30.99 42.4012 31.29 42.4912 31.6313 42.4912ZM37.9463 43.5675C37.245 43.5675 36.6675 43.3987 36.2175 43.0575C35.7724 42.7324 35.427 42.2895 35.22 41.7787L36.27 41.34C36.6 42.1275 37.17 42.5175 37.9688 42.5175C38.34 42.5175 38.64 42.4387 38.8688 42.2775C39.0975 42.1162 39.2175 41.8987 39.2175 41.6362C39.2175 41.2275 38.9288 40.9462 38.3588 40.8075L37.0875 40.5C36.6863 40.3987 36.3075 40.2 35.9475 39.9187C35.5875 39.63 35.4075 39.2475 35.4075 38.76C35.4075 38.2087 35.6588 37.7625 36.1463 37.41C36.6375 37.0612 37.215 36.8887 37.8938 36.8887C38.445 36.8887 38.9438 37.02 39.3713 37.2675C39.81 37.5187 40.1213 37.8787 40.3013 38.3475L39.2813 38.7675C39.0525 38.2162 38.5725 37.9387 37.8525 37.9387C37.5038 37.9387 37.2113 38.01 36.975 38.16C36.735 38.31 36.615 38.5012 36.615 38.7487C36.615 39.1087 36.8963 39.3487 37.4438 39.48L38.6813 39.7687C39.27 39.9075 39.7013 40.14 39.99 40.47C40.2713 40.8 40.41 41.1787 40.41 41.5987C40.41 42.1575 40.1813 42.6262 39.72 43.0087C39.2663 43.3875 38.6738 43.5675 37.9463 43.5675ZM44.0925 43.5675C43.1438 43.5675 42.375 43.2487 41.7863 42.6187C41.1975 41.9887 40.8975 41.19 40.8975 40.23C40.8975 39.3225 41.1863 38.5312 41.7563 37.8712C42.3375 37.2112 43.065 36.8812 43.965 36.8812C44.895 36.8812 45.6338 37.1812 46.1925 37.7887C46.7513 38.4 47.0325 39.2062 47.0325 40.215L47.0213 40.4362H42.075C42.105 41.0662 42.3263 41.565 42.705 41.9362C43.095 42.3075 43.545 42.4875 44.0625 42.4875C44.9025 42.4875 45.48 42.1275 45.78 41.4075L46.83 41.8462C46.6313 42.3375 46.29 42.735 45.8213 43.065C45.3488 43.3987 44.7713 43.5675 44.0925 43.5675ZM45.78 39.4725C45.75 39.1125 45.5888 38.7712 45.2888 38.4525C44.9888 38.1337 44.5388 37.9612 43.9388 37.9612C43.5 37.9612 43.1288 38.1 42.81 38.37C42.4913 38.64 42.27 39.0112 42.15 39.4687L45.78 39.4725ZM14.7188 22.2825L17.6025 3.80249C17.7038 3.17249 18.5475 3.02249 18.8438 3.58874L21.9413 9.38999L14.7188 22.2825ZM35.22 26.7712L32.4675 9.74999C32.385 9.22124 31.7213 9.00374 31.3388 9.38624L14.0063 26.7712L23.6025 32.1562C24.1988 32.4862 24.945 32.4862 25.5413 32.1562L35.22 26.7712ZM27.4275 11.925L25.2075 7.69874C24.96 7.21874 24.2813 7.21874 24.03 7.69874L14.2688 25.0987L27.4275 11.925Z" fill="#F58220"/>
</svg>
