<!-- mayurDayal2000 github icons -->
<svg width="48" height="48" viewBox="0 0 48 48" fill="none" xmlns="http://www.w3.org/2000/svg">
<path d="M28.5015 18.9705C25.6309 18.9705 24.2044 20.469 24.2044 22.6268C24.2044 24.0158 24.8989 24.9998 25.8184 25.4501C25.368 25.863 24.993 26.2241 24.6551 26.5804C24.3169 26.9374 24.1106 27.3143 24.1106 27.7275C24.1106 28.2345 24.3169 28.7044 24.9364 28.9661C24.2797 29.5864 23.904 30.0364 23.904 30.8813C23.904 32.3636 25.1989 33.2273 28.5956 33.2273C31.8611 33.2273 33.756 32.0081 33.756 29.8496C33.756 27.3548 31.8424 27.2606 28.5956 27.0536L26.7566 26.9411L27.3761 25.9466C27.7132 26.0404 28.2581 26.1154 28.8592 26.1154C31.2232 26.1154 32.856 24.8959 32.856 22.8124C32.856 21.9491 32.4296 21.3488 32.0921 20.9168L33.75 20.7855V19.125H30.2284C29.7971 19.125 29.3085 18.9705 28.5015 18.9705ZM29.346 29.6621C30.2475 29.7184 30.9607 29.7559 30.9607 30.3574C30.9607 31.3695 29.4776 31.4456 28.3897 31.4456C27.0757 31.4456 26.1187 31.2199 26.1187 30.4695C26.1187 30.0938 26.3625 29.775 26.607 29.475L29.346 29.6621ZM28.6151 24.1451C27.3761 24.1451 26.8695 23.5065 26.8695 22.5874C26.8695 21.3675 27.6386 20.8605 28.671 20.8605C29.7405 20.8605 30.3787 21.4425 30.3787 22.5495C30.3787 23.526 29.6655 24.1451 28.6151 24.1451ZM37.1899 17.5069C38.2781 17.5069 38.8976 16.8874 38.8976 15.8171C38.8976 14.7484 38.2781 14.166 37.1899 14.166C36.12 14.166 35.5005 14.7484 35.5005 15.8171C35.5005 16.887 36.12 17.5069 37.1899 17.5069ZM38.625 26.7956V19.125H34.9751L34.7689 20.586L35.769 20.9138C35.9572 20.9696 36 21.0724 36 21.2786V26.7956C36 27.0776 35.8417 27.1339 35.5789 27.1718L34.5 27.303V28.875H40.125V27.303L39.0465 27.1718C38.7641 27.1339 38.625 27.0968 38.625 26.7956ZM47.0317 26.4056C46.581 26.5744 46.0447 26.7053 45.5186 26.7053C44.5057 26.7053 44.25 26.274 44.25 25.1666V20.625H46.875V18.75H44.3857C44.2354 18.75 44.25 18.7489 44.25 18.6176V16.125H42.4526C42.2464 18 41.25 18.8235 39.75 19.0118V20.625H41.2511C41.4015 20.625 41.25 20.7574 41.25 20.8695V25.7861C41.25 27.9075 42.1702 28.8079 44.403 28.8079C45.4732 28.8079 46.6931 28.4513 47.5005 28.0575L47.0317 26.4056ZM11.1517 14.5523C11.0342 14.4347 10.8947 14.3415 10.7411 14.2779C10.5876 14.2143 10.423 14.1816 10.2568 14.1816C10.0906 14.1816 9.92602 14.2143 9.77246 14.2779C9.61891 14.3415 9.47939 14.4347 9.36186 14.5523L7.58024 16.3339L9.84036 18.594C10.1069 18.5033 10.3935 18.4892 10.6677 18.5535C10.9418 18.6177 11.1923 18.7577 11.3908 18.9575C11.5892 19.1572 11.7275 19.4087 11.7899 19.6833C11.8523 19.9578 11.8364 20.2444 11.7439 20.5103L13.9222 22.6886C14.2442 22.5767 14.5946 22.5774 14.9161 22.6906C15.2376 22.8038 15.5111 23.0228 15.6919 23.3117C15.8726 23.6007 15.9499 23.9425 15.9111 24.2811C15.8723 24.6197 15.7196 24.9351 15.4781 25.1756C15.3383 25.3156 15.1723 25.4266 14.9896 25.5024C14.8068 25.5782 14.6109 25.6171 14.4131 25.6171C14.2153 25.6171 14.0194 25.5782 13.8367 25.5024C13.6539 25.4266 13.4879 25.3156 13.3481 25.1756C12.9056 24.7328 12.7391 24.0829 12.9637 23.5376L10.875 21.5063V26.8526C10.875 26.9235 11.2106 27.018 11.3302 27.1373C11.9182 27.7253 11.9467 28.6785 11.3584 29.2676C11.2199 29.4073 11.0551 29.5182 10.8735 29.5939C10.692 29.6696 10.4972 29.7086 10.3005 29.7086C10.1038 29.7086 9.90901 29.6696 9.72744 29.5939C9.54587 29.5182 9.38109 29.4073 9.24261 29.2676C8.65461 28.6785 8.66174 27.7256 9.25011 27.1373C9.39561 26.9921 9.37499 26.8823 9.74999 26.8088V21.4129C9.37499 21.3394 9.40236 21.2303 9.25724 21.0844C9.04596 20.8731 8.90231 20.6038 8.84454 20.3106C8.78678 20.0175 8.81752 19.7138 8.93286 19.4381L6.70461 17.2095L0.821237 23.0929C0.70361 23.2104 0.610297 23.3499 0.546631 23.5035C0.482965 23.6571 0.450195 23.8218 0.450195 23.988C0.450195 24.1543 0.482965 24.3189 0.546631 24.4725C0.610297 24.6261 0.70361 24.7656 0.821237 24.8831L9.40199 33.4635C9.63944 33.7007 9.96132 33.8339 10.2969 33.8339C10.6325 33.8339 10.9544 33.7007 11.1919 33.4635L19.7325 24.9225C19.9697 24.685 20.1029 24.3631 20.1029 24.0274C20.1029 23.6917 19.9697 23.3698 19.7325 23.1323L11.1517 14.5523Z" fill="#F34F29"/>
</svg>
