<!-- mayurDayal2000 github icons -->
<svg width="80" height="80" viewBox="0 0 80 80" fill="none" xmlns="http://www.w3.org/2000/svg">
<path d="M47.5025 31.6175C42.7181 31.6175 40.3406 34.115 40.3406 37.7113C40.3406 40.0263 41.4981 41.6662 43.0306 42.4169C42.28 43.105 41.655 43.7069 41.0919 44.3006C40.5281 44.8956 40.1844 45.5238 40.1844 46.2125C40.1844 47.0575 40.5281 47.8406 41.5606 48.2769C40.4663 49.3106 39.84 50.0606 39.84 51.4687C39.84 53.9394 41.9981 55.3788 47.6594 55.3788C53.1019 55.3788 56.26 53.3469 56.26 49.7494C56.26 45.5912 53.0706 45.4344 47.6594 45.0894L44.5944 44.9019L45.6269 43.2444C46.1887 43.4006 47.0969 43.5256 48.0988 43.5256C52.0388 43.5256 54.76 41.4931 54.76 38.0206C54.76 36.5819 54.0494 35.5812 53.4869 34.8612L56.25 34.6425V31.875H50.3806C49.6619 31.875 48.8475 31.6175 47.5025 31.6175ZM48.91 49.4369C50.4125 49.5306 51.6012 49.5931 51.6012 50.5956C51.6012 52.2825 49.1294 52.4094 47.3163 52.4094C45.1263 52.4094 43.5313 52.0331 43.5313 50.7825C43.5313 50.1562 43.9375 49.625 44.345 49.125L48.91 49.4369ZM47.6919 40.2419C45.6269 40.2419 44.7825 39.1775 44.7825 37.6456C44.7825 35.6125 46.0644 34.7675 47.785 34.7675C49.5675 34.7675 50.6313 35.7375 50.6313 37.5825C50.6313 39.21 49.4425 40.2419 47.6919 40.2419ZM61.9831 29.1781C63.7969 29.1781 64.8294 28.1456 64.8294 26.3619C64.8294 24.5806 63.7969 23.61 61.9831 23.61C60.2 23.61 59.1675 24.5806 59.1675 26.3619C59.1675 28.145 60.2 29.1781 61.9831 29.1781ZM64.375 44.6594V31.875H58.2919L57.9481 34.31L59.615 34.8563C59.9288 34.9494 60 35.1206 60 35.4644V44.6594C60 45.1294 59.7363 45.2231 59.2981 45.2863L57.5 45.505V48.125H66.875V45.505L65.0775 45.2863C64.6069 45.2231 64.375 45.1613 64.375 44.6594ZM78.3863 44.0094C77.635 44.2906 76.7413 44.5087 75.8644 44.5087C74.1763 44.5087 73.75 43.79 73.75 41.9444V34.375H78.125V31.25H73.9763C73.7256 31.25 73.75 31.2481 73.75 31.0294V26.875H70.7544C70.4106 30 68.75 31.3725 66.25 31.6863V34.375H68.7519C69.0025 34.375 68.75 34.5956 68.75 34.7825V42.9769C68.75 46.5125 70.2837 48.0131 74.005 48.0131C75.7887 48.0131 77.8219 47.4187 79.1675 46.7625L78.3863 44.0094ZM18.5863 24.2537C18.3904 24.0579 18.1578 23.9025 17.9019 23.7965C17.646 23.6905 17.3717 23.6359 17.0947 23.6359C16.8177 23.6359 16.5434 23.6905 16.2875 23.7965C16.0315 23.9025 15.799 24.0579 15.6031 24.2537L12.6338 27.2231L16.4006 30.99C16.8448 30.8387 17.3226 30.8153 17.7795 30.9224C18.2363 31.0295 18.6539 31.2629 18.9846 31.5958C19.3153 31.9287 19.5458 32.3478 19.6499 32.8054C19.7539 33.263 19.7273 33.7406 19.5731 34.1838L23.2037 37.8144C23.7403 37.6278 24.3243 37.6289 24.8601 37.8176C25.396 38.0062 25.8519 38.3713 26.1531 38.8529C26.4544 39.3345 26.5833 39.9041 26.5185 40.4684C26.4538 41.0328 26.1994 41.5585 25.7969 41.9594C25.5639 42.1926 25.2872 42.3777 24.9826 42.504C24.678 42.6302 24.3516 42.6952 24.0219 42.6952C23.6922 42.6952 23.3657 42.6302 23.0611 42.504C22.7566 42.3777 22.4799 42.1926 22.2469 41.9594C21.5094 41.2213 21.2319 40.1381 21.6062 39.2294L18.125 35.8437V44.7544C18.125 44.8725 18.6844 45.03 18.8838 45.2287C19.8638 46.2087 19.9112 47.7975 18.9306 48.7794C18.6998 49.0122 18.4252 49.197 18.1226 49.3232C17.82 49.4493 17.4954 49.5143 17.1675 49.5143C16.8396 49.5143 16.515 49.4493 16.2124 49.3232C15.9098 49.197 15.6352 49.0122 15.4044 48.7794C14.4244 47.7975 14.4362 46.2094 15.4169 45.2287C15.6594 44.9869 15.625 44.8037 16.25 44.6812V35.6881C15.625 35.5656 15.6706 35.3837 15.4288 35.1406C15.0766 34.7885 14.8372 34.3396 14.7409 33.851C14.6447 33.3624 14.6959 32.8563 14.8881 32.3969L11.1744 28.6825L1.36875 38.4881C1.17271 38.684 1.01718 38.9165 0.911073 39.1725C0.804963 39.4285 0.750347 39.7029 0.750347 39.98C0.750347 40.2571 0.804963 40.5315 0.911073 40.7875C1.01718 41.0435 1.17271 41.276 1.36875 41.4719L15.67 55.7725C16.0657 56.1678 16.6022 56.3898 17.1616 56.3898C17.7209 56.3898 18.2574 56.1678 18.6531 55.7725L32.8875 41.5375C33.2828 41.1416 33.5049 40.6051 33.5049 40.0456C33.5049 39.4862 33.2828 38.9496 32.8875 38.5538L18.5863 24.2537Z" fill="#F34F29"/>
</svg>
