<!-- mayurDayal2000 github icons -->
<svg width="80" height="80" viewBox="0 0 80 80" fill="none" xmlns="http://www.w3.org/2000/svg">
<path d="M68.267 15.6822L63.1166 73.3796L39.9654 79.7979L16.8779 73.3886L11.733 15.6822H68.267Z" fill="#E44D26"/>
<path d="M40 74.892L58.7073 69.7056L63.1087 20.4005H40V74.892Z" fill="#F16529"/>
<path d="M29.9879 34.5556H40V27.4781H22.2531L22.4225 29.3768L24.162 48.8804H40V41.803H30.6346L29.9879 34.5556Z" fill="#EBEBEB"/>
<path d="M31.5829 52.4193H24.4782L25.4698 63.5319L39.9674 67.5565L40 67.5475V60.184L39.969 60.1922L32.0868 58.0639L31.5829 52.4193Z" fill="#EBEBEB"/>
<path d="M16.993 0H20.5896V3.5535H23.8797V0H27.4766V10.7609H23.8799V7.1575H20.5898V10.7609H16.9931L16.993 0Z" fill="#E44D26"/>
<path d="M32.2063 3.56846H29.0399V0H38.971V3.56846H35.8033V10.7609H32.2065L32.2063 3.56846Z" fill="#E44D26"/>
<path d="M40.5472 0H44.2975L46.6045 3.78105L48.9091 0H52.6609V10.7609H49.079V5.42719L46.6045 9.25328H46.5426L44.0664 5.42719V10.7609H40.5472V0Z" fill="#E44D26"/>
<path d="M54.4509 0H58.0487V7.20394H63.1066V10.7609H54.4509V0Z" fill="#E44D26"/>
<path d="M39.9755 48.8804H48.6906L47.8691 58.0593L39.9755 60.1899V67.5531L54.4847 63.5319L54.5912 62.3362L56.2543 43.7035L56.427 41.803H39.9755V48.8804Z" fill="white"/>
<path d="M39.9755 34.5383V34.5556H57.071L57.213 32.9648L57.5354 29.3768L57.7047 27.4781H39.9755V34.5383Z" fill="white"/>
</svg>
