<!-- mayurDayal2000 github icons -->
<svg width="48" height="48" viewBox="0 0 48 48" fill="none" xmlns="http://www.w3.org/2000/svg">
<path d="M7.33838 10.125L10.371 43.8446L23.9794 47.4754L37.6256 43.9132L40.6616 10.125H7.33838ZM34.3538 17.8016L34.1636 19.9894L34.08 21H18.1166L18.498 25.5H33.7005L33.5989 26.3366L32.6183 37.1775L32.5463 37.8112L24 40.1115V40.1096L23.9899 40.1141L15.4485 37.8956L14.8688 31.5H19.0568L19.3534 34.6725L23.9978 35.8496L24 35.7619V35.7664L28.6545 34.773L29.1405 29.625H14.6824L13.6571 18.0615L13.557 16.875H34.4535L34.3538 17.8016ZM10.4835 0.610107H12.5918V2.69361H14.5208V0.610107H16.6294V6.91836H14.5208V4.80598H12.5921V6.91836H10.4835V0.610107ZM19.4018 2.70223H17.5455V0.610107H23.3674V2.70223H21.5104V6.91836H19.4018V2.70223ZM24.2914 0.610107H26.4896L27.8423 2.82673L29.1934 0.610107H31.3928V6.91836H29.2924V3.79161L27.8423 6.03448H27.8055L26.3543 3.79161V6.91836H24.291L24.2914 0.610107ZM32.4424 0.610107H34.5514V4.83336H37.5165V6.91873H32.4424V0.610107Z" fill="#E44D26"/>
</svg>
