<!-- mayurDayal2000 github icons -->
<svg width="80" height="80" viewBox="0 0 80 80" fill="none" xmlns="http://www.w3.org/2000/svg">
<path d="M66.6819 1.49187H38.4568C38.4568 8.52812 44.1531 14.2231 51.1862 14.2231H56.3793V19.2481C56.3793 26.2844 62.075 31.98 69.1112 31.98V3.92062C69.1106 3.27657 68.8544 2.6591 68.3989 2.20375C67.9434 1.7484 67.3259 1.49237 66.6819 1.49187Z" fill="#2684FF"/>
<path d="M52.6956 15.5638H24.4706C24.4706 22.6 30.1638 28.2938 37.2 28.2938H42.3925V33.32C42.3925 40.3563 48.0881 46.0525 55.1244 46.0525V17.9931C55.1239 17.3491 54.8679 16.7315 54.4125 16.2761C53.9572 15.8206 53.3397 15.5644 52.6956 15.5638Z" fill="url(#paint0_linear_7_147)"/>
<path d="M38.7088 29.6338H10.4813C10.4813 36.67 16.1769 42.3656 23.2125 42.3656H28.4063V47.3925C28.4063 54.4263 34.1013 60.1219 41.1375 60.1219V32.0631C41.137 31.4191 40.881 30.8015 40.4256 30.3461C39.9703 29.8906 39.3528 29.6344 38.7088 29.6338Z" fill="url(#paint1_linear_7_147)"/>
<path d="M28.75 63.2763H30.8963V73.8888C30.8963 76.6894 29.6194 78.6425 26.655 78.6425C25.5425 78.6425 24.6706 78.4569 24.0725 78.2469V76.2131C24.7269 76.4769 25.515 76.6088 26.3038 76.6088C28.125 76.6088 28.75 75.5544 28.75 74.0213V63.2763ZM34.8388 62.4563C35.6813 62.4563 36.2794 62.9588 36.2794 63.855C36.2794 64.7263 35.6813 65.2563 34.8388 65.2563C33.9969 65.2563 33.3988 64.7531 33.3988 63.855C33.3988 62.9863 33.9969 62.4563 34.8388 62.4563ZM33.7794 66.9188H35.845V78.5375H33.7794V66.9188ZM40.9544 78.5375H38.9438V66.9188H40.955V68.9525C41.6631 67.5781 42.8594 66.6019 45.1956 66.7338V68.6888C42.5594 68.425 40.955 69.1894 40.955 71.6725L40.9544 78.5375ZM54.8488 76.45C54.0869 77.9831 52.6463 78.775 50.7956 78.775C47.6175 78.775 46.0131 76.1594 46.0131 72.7269C46.0131 69.4531 47.6975 66.6819 51.0425 66.6819C52.7806 66.6819 54.1406 67.4463 54.8488 68.9525V66.9188H56.9144V78.5375H54.8488V76.45ZM51.3406 76.9263C53.1888 76.9263 54.8194 75.7913 54.8194 73.2031V72.28C54.8194 69.6925 53.3256 68.5569 51.5575 68.5569C49.2481 68.5569 48.0513 70.0344 48.0513 72.7269C48.0788 75.5269 49.2213 76.9263 51.3406 76.9263Z" fill="#253858"/>
<defs>
<linearGradient id="paint0_linear_7_147" x1="54.5376" y1="15.5954" x2="42.5281" y2="27.9786" gradientUnits="userSpaceOnUse">
<stop offset="0.176" stop-color="#0052CC"/>
<stop offset="1" stop-color="#2684FF"/>
</linearGradient>
<linearGradient id="paint1_linear_7_147" x1="41.3628" y1="29.7424" x2="27.4772" y2="43.2518" gradientUnits="userSpaceOnUse">
<stop offset="0.176" stop-color="#0052CC"/>
<stop offset="1" stop-color="#2684FF"/>
</linearGradient>
</defs>
</svg>
