<!-- mayurDayal2000 github icons -->
<svg width="48" height="48" viewBox="0 0 48 48" fill="none" xmlns="http://www.w3.org/2000/svg">
<path d="M40.0091 0.895142H23.0741C23.0741 5.11689 26.4918 8.53389 30.7117 8.53389H33.8276V11.5489C33.8276 15.7706 37.245 19.188 41.4667 19.188V2.35239C41.4663 1.96596 41.3126 1.59548 41.0393 1.32227C40.7661 1.04905 40.3955 0.895439 40.0091 0.895142Z" fill="#2684FF"/>
<path d="M31.6174 9.33826H14.6824C14.6824 13.56 18.0982 16.9763 22.32 16.9763H25.4355V19.992C25.4355 24.2138 28.8529 27.6315 33.0746 27.6315V10.7959C33.0743 10.4095 32.9207 10.0389 32.6475 9.76565C32.3743 9.49236 32.0038 9.33865 31.6174 9.33826Z" fill="url(#paint0_linear_17_49)"/>
<path d="M23.2253 17.7803H6.28876C6.28876 22.002 9.70613 25.4194 13.9275 25.4194H17.0438V28.4355C17.0438 32.6558 20.4608 36.0731 24.6825 36.0731V19.2379C24.6822 18.8515 24.5286 18.4809 24.2554 18.2077C23.9822 17.9344 23.6117 17.7807 23.2253 17.7803Z" fill="url(#paint1_linear_17_49)"/>
<path d="M17.25 37.9658H18.5377V44.3333C18.5377 46.0136 17.7716 47.1855 15.993 47.1855C15.3255 47.1855 14.8024 47.0741 14.4435 46.9481V45.7279C14.8361 45.8861 15.309 45.9653 15.7822 45.9653C16.875 45.9653 17.25 45.3326 17.25 44.4128V37.9658ZM20.9032 37.4738C21.4087 37.4738 21.7676 37.7753 21.7676 38.313C21.7676 38.8358 21.4087 39.1538 20.9032 39.1538C20.3981 39.1538 20.0392 38.8519 20.0392 38.313C20.0392 37.7918 20.3981 37.4738 20.9032 37.4738ZM20.2676 40.1513H21.507V47.1225H20.2676V40.1513ZM24.5726 47.1225H23.3662V40.1513H24.573V41.3715C24.9979 40.5469 25.7156 39.9611 27.1174 40.0403V41.2133C25.5356 41.055 24.573 41.5136 24.573 43.0035L24.5726 47.1225ZM32.9092 45.87C32.4521 46.7899 31.5877 47.265 30.4774 47.265C28.5705 47.265 27.6079 45.6956 27.6079 43.6361C27.6079 41.6719 28.6185 40.0091 30.6255 40.0091C31.6684 40.0091 32.4844 40.4678 32.9092 41.3715V40.1513H34.1486V47.1225H32.9092V45.87ZM30.8044 46.1558C31.9132 46.1558 32.8916 45.4748 32.8916 43.9219V43.368C32.8916 41.8155 31.9954 41.1341 30.9345 41.1341C29.5489 41.1341 28.8307 42.0206 28.8307 43.6361C28.8472 45.3161 29.5327 46.1558 30.8044 46.1558Z" fill="#253858"/>
<defs>
<linearGradient id="paint0_linear_17_49" x1="32.7225" y1="9.35724" x2="25.5169" y2="16.7872" gradientUnits="userSpaceOnUse">
<stop offset="0.176" stop-color="#0052CC"/>
<stop offset="1" stop-color="#2684FF"/>
</linearGradient>
<linearGradient id="paint1_linear_17_49" x1="24.8177" y1="17.8455" x2="16.4863" y2="25.9511" gradientUnits="userSpaceOnUse">
<stop offset="0.176" stop-color="#0052CC"/>
<stop offset="1" stop-color="#2684FF"/>
</linearGradient>
</defs>
</svg>
