<!-- mayurDayal2000 github icons -->
<svg width="48" height="48" viewBox="0 0 48 48" fill="none" xmlns="http://www.w3.org/2000/svg">
<path d="M3 3V45H45V3H3ZM25.5 35.625C25.5 39.7134 23.085 41.7066 19.5891 41.7066C16.4316 41.7066 14.5988 40.0716 13.6688 38.0981L16.8825 36.1528C17.5022 37.2525 17.9728 38.1825 19.3256 38.1825C20.4506 38.1825 21.375 37.6753 21.375 35.7019V22.5H25.5V35.625ZM34.8141 41.6128C31.1494 41.6128 28.7813 39.9591 27.6253 37.6753L30.8438 35.8125C31.6875 37.1944 32.7891 38.115 34.7344 38.115C36.3694 38.115 37.3191 37.3913 37.3191 36.2634C37.3191 34.9106 36.3413 34.4316 34.5366 33.6384L33.5503 33.2147C30.7022 32.0034 28.8141 30.4809 28.8141 27.2663C28.8141 24.3066 31.0687 22.1447 34.5928 22.1447C37.1025 22.1447 38.9053 22.9247 40.2038 25.2084L37.125 27.1875C36.4481 25.9753 35.7188 25.5 34.5881 25.5C33.4322 25.5 32.6991 26.2331 32.6991 27.1875C32.6991 28.3716 33.4322 28.8506 35.1234 29.5837L36.1097 30.0066C39.465 31.4447 41.3541 32.9128 41.3541 36.2091C41.355 39.7622 38.5641 41.6128 34.8141 41.6128Z" fill="#F0DB4F"/>
</svg>
