<!-- mayurDayal2000 github icons -->
<svg width="48" height="48" viewBox="0 0 48 48" fill="none" xmlns="http://www.w3.org/2000/svg">
<path fill-rule="evenodd" clip-rule="evenodd" d="M45.8629 21.9881C45.6379 21.501 45.5291 20.9246 45.5059 20.382C45.4481 19.0466 45.4972 17.7064 45.4369 16.371C45.3829 15.1751 44.9561 14.0974 43.8079 13.4809C42.7969 12.9382 41.625 12.8842 40.5 12.8715V15.0056C40.875 15.0184 40.7827 15.03 40.8743 15.0349C42.3851 15.1091 42.8914 15.5884 42.9105 17.0872C42.9248 18.2017 42.915 19.317 42.933 20.4311C42.9551 21.783 43.1569 23.0734 44.3932 23.9269C44.4143 23.9415 44.4124 23.9951 44.4244 24.0574C43.7951 24.5044 43.2971 25.08 43.1524 25.8656C43.0366 26.5038 42.9689 27.1497 42.9499 27.798C42.9139 28.9672 42.951 30.1391 42.9176 31.3084C42.8914 32.2241 42.4575 32.6539 41.5661 32.8579C41.2305 32.9351 40.875 32.9625 40.5 33.0101V35.139C41.25 35.094 41.6314 35.0644 42.1451 35.0089C44.0786 34.7996 45.1673 33.7935 45.3904 31.9177C45.4601 31.3297 45.4522 30.7305 45.4654 30.1365C45.4901 29.0231 45.4774 27.9045 45.5771 26.7979C45.6787 25.6687 46.5 25.0447 47.625 25.107V22.8754C46.875 23.0096 46.1839 22.6852 45.8629 21.9881ZM10.6178 26.538C10.6174 22.2071 10.5 17.8762 10.5 13.5457V12.8644C9.375 12.8644 8.16525 12.8535 6.97837 12.8696C6.4965 12.876 6.07162 12.9172 5.59387 12.9825C3.765 13.2315 2.88337 14.0899 2.55937 15.912C2.46562 16.4377 2.48438 16.9841 2.4765 17.5219C2.46187 18.5441 2.49113 19.5667 2.47463 20.5886C2.454 21.8756 1.84763 22.8731 0.535125 22.9489C0.488625 22.9515 0.75 23.0051 0.375 23.0374V25.0267C1.875 25.2622 2.35238 25.8679 2.45213 27.2614C2.46788 27.4834 2.472 27.7072 2.47425 27.9304C2.487 29.1754 2.47275 30.4222 2.529 31.665C2.58188 32.8249 2.8395 33.8614 3.93563 34.47C4.95937 35.0385 6.375 35.0846 7.125 35.1142V32.9902C7.125 32.9722 7.04625 32.9557 6.97312 32.9512C5.346 32.8519 4.97925 32.4101 4.9695 30.7819C4.96312 29.7037 5.00925 28.6256 4.992 27.5475C4.97025 26.193 4.77225 24.9082 3.546 24.051C3.52725 24.0379 3.54562 23.9824 3.53963 23.9074C4.36425 23.3861 4.80263 22.5889 4.92188 21.6221C4.98787 21.0889 5.01 20.5481 5.01937 20.01C5.03813 18.8951 5.01825 17.7791 5.04862 16.665C5.07 15.882 5.56988 15.3112 6.20775 15.183C6.81225 15.0611 7.125 15.0649 8.25 15.0082V15.7792C8.25 19.6455 8.11238 23.5114 8.13263 27.3776C8.13975 28.7017 8.28638 30.0071 9.70575 30.579C10.4775 30.8899 11.3044 30.9855 12.1909 31.1947C12.339 30.3277 12.3874 29.6085 12.5085 28.8967C10.8746 28.428 10.6178 28.185 10.6178 26.538ZM20.6205 19.0781C17.868 17.7619 14.5275 18.9127 13.2457 21.6735C12.2805 23.7525 12.315 25.8922 13.1647 28.0005C13.6256 29.1435 14.4585 29.9992 15.5921 30.5025C17.8061 31.4854 20.0467 31.2465 22.2791 30.5565C22.3995 30.519 22.5532 30.2872 22.5386 30.1642C22.4625 29.5414 22.3361 28.9245 22.2233 28.2814C21.6919 28.4152 21.2479 28.5521 20.7941 28.6372C19.5952 28.8626 18.3937 28.8622 17.2271 28.3984C16.0751 27.9409 15.3015 26.6246 15.4939 25.4996H23.3209C23.4165 24.3746 23.3786 22.8277 22.8997 21.5486C22.4722 20.4052 21.7342 19.611 20.6205 19.0781ZM20.604 23.625H15.4605C15.4631 22.125 16.6845 20.7787 18.2869 20.8095C19.6943 20.8365 20.6677 22.125 20.604 23.625ZM41.6445 28.2296C41.829 26.3344 41.2567 25.2679 39.5692 24.4444C38.9707 24.1522 38.3355 23.9359 37.7257 23.6651C37.2694 23.4626 36.81 23.2575 36.3833 23.001C35.9678 22.7516 35.7938 22.3376 35.8552 21.8527C35.9156 21.3739 36.2235 21.0581 36.6683 20.9681C37.2071 20.8586 37.7719 20.7649 38.3138 20.8091C39.0795 20.8717 39.8348 21.0679 40.6249 21.2122L41.1244 19.0305C40.0553 18.8677 39.0585 18.6574 38.0513 18.5779C36.9311 18.4897 35.8402 18.6757 34.815 19.2041C32.6486 20.3205 32.6089 23.7476 34.5998 24.8726C35.1945 25.2086 35.8309 25.4711 36.4496 25.7651C37.101 26.0752 37.776 26.3449 38.3993 26.7041C38.8725 26.9767 39.0416 27.4526 38.9149 28.0072C38.7975 28.5229 38.4071 28.7527 37.9485 28.7966C37.251 28.863 36.5355 28.9267 35.8451 28.8446C35.0137 28.7456 34.2 28.4932 33.3484 28.3005L32.9141 30.4717C34.914 31.2225 36.8929 31.3455 38.8909 30.9026C40.563 30.5321 41.5155 29.5541 41.6445 28.2296ZM30.9889 24.6851C30.2542 24.2955 29.4641 24.0112 28.7059 23.664C28.2353 23.4484 27.7369 23.2612 27.3221 22.9624C26.5245 22.3875 26.673 21.2854 27.6019 20.9906C28.1348 20.8211 28.7374 20.7686 29.2972 20.8106C30.06 20.868 30.8126 21.0652 31.608 21.2092L32.0798 19.1295C31.6759 19.0196 31.3103 18.9 30.9356 18.8212C29.4465 18.5077 27.9495 18.3862 26.4829 18.9019C25.2229 19.3451 24.3488 20.1739 24.1759 21.5681C23.9824 23.1251 24.4988 24.3544 25.9369 25.0939C26.5125 25.3901 27.1294 25.605 27.717 25.8795C28.3035 26.1532 28.9024 26.4146 29.4473 26.7581C29.8639 27.0206 30.0281 27.465 29.9108 27.9787C29.7941 28.488 29.4229 28.7445 28.9609 28.7921C28.2634 28.8637 27.5475 28.9301 26.8567 28.8495C26.022 28.752 25.2056 28.4989 24.339 28.3039C24.2111 28.9087 24.0611 29.5181 23.9678 30.1357C23.9475 30.27 24.0971 30.528 24.2231 30.5719C26.2421 31.2716 28.2971 31.3721 30.3506 30.7672C31.5769 30.4065 32.4345 29.6231 32.6074 28.2836C32.8035 26.763 32.4409 25.4546 30.9889 24.6851Z" fill="#2A4D80"/>
</svg>
