<!-- mayurDayal2000 github icons -->
<svg width="80" height="80" viewBox="0 0 80 80" fill="none" xmlns="http://www.w3.org/2000/svg">
<path d="M18.875 28.6875H33.9375V29.875H20.25V38.875H33.125V40.0625H20.25V49.9375H34.125V51.125H18.875V28.6875ZM35.3125 28.6875H36.9375L44.0625 38.5625L51.25 28.6875L61.125 16.1875L44.875 39.625L53.25 51.125H51.5625L44 40.625L36.375 51.125H34.75L43.1875 39.625L35.3125 28.6875ZM53.875 29.875V28.6875H71.0625V29.875H63.125V51.125H61.75V29.875H53.875ZM0 28.6875H1.6875L25.5625 64.1875L15.6875 51.125L1.4375 30.375L1.375 51.125H0V28.6875ZM70.9375 49.5625C71.25 49.5625 71.4375 49.375 71.4375 49.0625C71.4375 48.75 71.25 48.5625 70.9375 48.5625C70.625 48.5625 70.4375 48.75 70.4375 49.0625C70.4375 49.375 70.6875 49.5625 70.9375 49.5625ZM72.3125 48.25C72.3125 49.0625 72.9375 49.625 73.8125 49.625C74.75 49.625 75.3125 49.0625 75.3125 48.0625V44.625H74.5625V48.0625C74.5625 48.625 74.3125 48.875 73.8125 48.875C73.375 48.875 73.0625 48.625 73.0625 48.1875H72.3125V48.25ZM76.25 48.1875C76.3125 49.0625 77 49.625 78.125 49.625C79.25 49.625 80 49.0625 80 48.125C80 47.375 79.5625 47 78.625 46.75L78.0625 46.625C77.4375 46.5 77.1875 46.25 77.1875 45.9375C77.1875 45.5 77.5625 45.1875 78.1875 45.1875C78.75 45.1875 79.125 45.4375 79.1875 45.9375H79.9375C79.875 45.125 79.1875 44.5625 78.1875 44.5625C77.125 44.5625 76.4375 45.125 76.4375 46C76.4375 46.6875 76.8125 47.125 77.6875 47.3125L78.3125 47.4375C78.9375 47.5625 79.25 47.8125 79.25 48.1875C79.25 48.625 78.8125 48.9375 78.1875 48.9375C77.5625 48.9375 77.0625 48.625 77 48.1875H76.25Z" fill="#0C6D87"/>
</svg>
