<!-- mayurDayal2000 github icons -->
<svg width="80" height="80" viewBox="0 0 80 80" fill="none" xmlns="http://www.w3.org/2000/svg">
<path d="M70.4819 18.9588L42.9213 2.95563C41.1831 1.96563 38.92 1.96563 37.1681 2.95563L9.31313 18.9588C7.51938 19.9906 6.25 21.93 6.25 24.0044V55.9681C6.25 58.0425 7.5525 59.9825 9.34625 61.02L16.7056 65.2C20.2231 66.9325 21.4663 66.9325 23.0669 66.9325C28.275 66.9325 31.25 63.7831 31.25 58.29V26.7338C31.25 26.2881 31.0181 25.625 30.5806 25.625H27.0662C26.6212 25.625 25.625 26.2881 25.625 26.7331V58.2894C25.625 60.7244 23.4225 63.1475 19.3062 61.0894L11.7019 56.7063C11.4369 56.5625 11.25 56.2731 11.25 55.9681V24.0044C11.25 23.7031 11.5969 23.4006 11.8638 23.2463L39.6287 7.27063C39.8881 7.12375 40.2694 7.12375 40.5281 7.27063L67.9544 23.2425C68.2169 23.4006 68.1244 23.6938 68.1244 24.0044V55.9681C68.1244 56.2731 68.2387 56.57 67.9794 56.7169L40.4256 72.7019C40.1894 72.8438 39.8962 72.8438 39.6375 72.7019L32.5706 68.4838C32.3575 68.36 32.1044 68.3156 31.9 68.43C29.9338 69.5444 29.5712 69.6925 27.7269 70.3319C27.2731 70.49 26.6037 70.7644 27.9831 71.5375L37.2319 77.0087C38.1149 77.5188 39.1166 77.7873 40.1363 77.7875C41.1625 77.7875 42.1675 77.5212 43.0531 77.0087L70.4812 61.02C72.275 59.975 73.125 58.0425 73.125 55.9681V24.0044C73.125 21.93 72.275 19.9956 70.4819 18.9588ZM48.6938 50.9031C41.365 50.9031 39.7506 48.8813 39.2125 45.2369C39.15 44.8444 38.8169 44.375 38.4175 44.375H34.8356C34.3925 44.375 34.0363 44.9125 34.0363 45.3538C34.0363 50.02 36.5731 55.6738 48.6944 55.6738C57.4688 55.6738 62.4994 52.2644 62.4994 46.2306C62.4994 40.2481 58.4575 38.6781 49.9481 37.5519C41.3469 36.415 40.4731 35.8406 40.4731 33.8256C40.4731 32.1644 41.2131 29.9488 47.5819 29.9488C53.2725 29.9488 55.37 31.17 56.2331 35.0056C56.3069 35.3663 56.6362 35.625 57.0081 35.625H60.6044C60.8256 35.625 61.0369 35.5356 61.1919 35.3775C61.3419 35.2075 61.4212 34.9944 61.4012 34.7656C60.8444 28.1606 56.4562 25.0825 47.5812 25.0825C39.6869 25.0825 34.9775 28.4163 34.9775 34.0044C34.9775 40.0656 39.6631 41.7406 47.2412 42.49C56.3069 43.3788 57.0119 44.7038 57.0119 46.4869C57.0119 49.5838 54.5256 50.9031 48.6938 50.9031Z" fill="#83CD29"/>
</svg>
