<!-- mayurDayal2000 github icons -->
<svg width="140" height="140" viewBox="0 0 140 140" fill="none" xmlns="http://www.w3.org/2000/svg">
<path d="M37.8241 58.917C35.6317 56.078 32.6467 53.9527 29.2466 52.81C25.8464 51.6672 22.1838 51.5582 18.7217 52.4967C15.2607 53.437 12.1563 55.3825 9.80113 58.0874C7.44597 60.7922 5.9459 64.1347 5.49065 67.6922C5.03368 71.2493 5.64176 74.862 7.23798 78.0736C8.83421 81.2851 11.3469 83.9512 14.4583 85.7347C17.5708 87.517 21.1419 88.3364 24.72 88.0891C28.2981 87.8419 31.7226 86.5391 34.5603 84.3456C42.4944 78.2239 43.9294 66.8423 37.8241 58.917Z" fill="#FF6C37"/>
<path d="M31.5601 58.357C30.8707 58.3712 30.2077 58.6253 29.6855 59.0756C29.1311 59.5548 28.7773 60.225 28.6942 60.953C28.6112 61.681 28.8049 62.4137 29.237 63.0055C29.6658 63.5991 30.3018 64.0102 31.0192 64.1575C31.7366 64.3047 32.4831 64.1774 33.1111 63.8006L31.0603 61.7455L33.6547 59.1741C33.3767 58.9065 33.0485 58.6965 32.689 58.5563C32.3296 58.4161 31.9459 58.3484 31.5601 58.357ZM33.7148 59.2167L33.7017 59.2211L31.1292 61.7881L33.1844 63.8444C33.39 63.7243 33.5819 63.582 33.7564 63.42C34.2952 62.8503 34.5918 62.0938 34.5839 61.3097C34.5759 60.5257 34.264 59.7753 33.7137 59.2167H33.7148ZM27.9836 62.5636C26.7422 62.5614 24.722 63.9658 19.7805 68.9062L19.7969 68.9237L19.7684 68.9194L17.9101 70.7645C17.8631 70.8092 17.8322 70.8682 17.8223 70.9324C17.8124 70.9965 17.8241 71.0621 17.8555 71.1189C17.8848 71.177 17.9323 71.2239 17.9907 71.2526C18.0491 71.2812 18.1153 71.29 18.1792 71.2775L21.3533 70.5983C21.3665 70.5847 21.3756 70.5676 21.3795 70.5491L21.443 70.6147L20.3372 71.7128H20.3153L13.8644 78.2119L15.9316 80.1937C15.9906 80.2441 16.0636 80.2752 16.1407 80.283C16.2179 80.2909 16.2957 80.275 16.3636 80.2375C16.4313 80.1988 16.4856 80.1404 16.5192 80.0701C16.5529 79.9997 16.5642 79.9207 16.5517 79.8437L16.2476 78.5313C16.2272 78.5052 16.216 78.473 16.216 78.4399C16.216 78.4068 16.2272 78.3746 16.2476 78.3486V78.3617C19.0752 77.0132 21.7046 75.2835 24.0625 73.2211L22.7281 71.8889L22.7598 71.8845L21.9778 71.0937L22.0216 71.0489L22.0839 71.1112L22.0511 71.1441L24.1347 73.255V73.2594C28.0295 69.5844 30.8219 66.6028 30.2794 64.5564C30.2794 64.5557 30.2794 64.5549 30.2794 64.5542C30.2794 64.5546 30.2794 64.5539 30.2794 64.5542C30.2794 64.5535 30.2794 64.5517 30.2794 64.5509C30.2794 64.5502 30.2794 64.5495 30.2794 64.5487C30.2794 64.2403 30.1459 63.9472 29.9195 63.7361H29.9075C29.7922 63.6316 29.6562 63.5526 29.5083 63.5042L29.5914 63.42H29.6023C29.0719 62.953 28.6355 62.5647 27.9836 62.5636ZM13.8141 78.2414L12.3014 79.7541C12.2485 79.7887 12.2074 79.8387 12.1837 79.8974C12.1601 79.956 12.1549 80.0205 12.1691 80.0822C12.1847 80.1438 12.2189 80.1991 12.267 80.2406C12.3152 80.282 12.3749 80.3077 12.4381 80.3141L16.1426 80.57L13.8141 78.2414Z" fill="white"/>
<path d="M31.4158 58.1208C30.649 58.1746 29.9263 58.4995 29.3771 59.0373C28.9447 59.4764 28.6481 60.0308 28.5228 60.6341C28.3975 61.2374 28.4488 61.864 28.6705 62.4389C28.4371 62.3391 28.1849 62.2906 27.9311 62.2967C26.5574 62.3241 24.4442 63.8498 19.5858 68.7094C19.5749 68.7203 19.5716 68.7312 19.5639 68.7422C19.5565 68.7467 19.5492 68.7514 19.5421 68.7564L17.6969 70.6158C17.6083 70.7022 17.5503 70.8152 17.5318 70.9376C17.5132 71.06 17.5351 71.1851 17.5941 71.2939C17.6452 71.3801 17.7176 71.4517 17.8044 71.5019C17.8911 71.5521 17.9893 71.5791 18.0896 71.5805L18.1967 71.5214L20.638 70.9975L19.4655 72.1831C19.4412 72.219 19.4262 72.2603 19.4217 72.3034L13.7014 78.0237C13.682 78.0347 13.6637 78.0475 13.6467 78.062L12.1374 79.5747C12.0613 79.6519 12.0091 79.7494 11.9872 79.8556C11.9653 79.9617 11.9745 80.0719 12.0138 80.173C12.0515 80.2744 12.1175 80.3629 12.2039 80.4281C12.2904 80.4932 12.3937 80.5322 12.5016 80.5405L16.1875 80.7964V80.8008C16.2488 80.7757 16.3011 80.7326 16.3374 80.6772C16.3671 80.6358 16.3842 80.5867 16.3865 80.5359C16.3889 80.485 16.3763 80.4345 16.3505 80.3906C16.4826 80.326 16.589 80.2187 16.6525 80.0862C16.716 79.9536 16.7329 79.8034 16.7005 79.66L16.3975 78.4514C19.157 77.1322 21.7423 75.4761 24.0942 73.5208C24.1075 73.5246 24.121 73.5276 24.1347 73.5295H24.1478C24.2218 73.5231 24.2913 73.4914 24.3447 73.4398C28.3063 69.6927 30.6338 67.1213 30.6338 65.0825C30.6414 64.8069 30.5999 64.532 30.5113 64.2709C30.8621 64.4091 31.2346 64.4843 31.6116 64.493V64.4755C32.1366 64.4622 32.6507 64.3222 33.11 64.0675C33.1147 64.0684 33.1195 64.0691 33.1242 64.0697C33.1849 64.089 33.2507 64.0843 33.308 64.0566C33.5302 63.9249 33.7327 63.7625 33.9096 63.5742C34.2083 63.2826 34.4465 62.9348 34.6103 62.5509C34.7742 62.1669 34.8605 61.7543 34.8644 61.3368C34.8683 60.9194 34.7896 60.5053 34.6328 60.1183C34.4761 59.7314 34.2444 59.3793 33.9511 59.0822C33.9469 59.0769 33.9426 59.0718 33.938 59.0669C33.9297 59.0563 33.9205 59.0465 33.9106 59.0373C33.9027 59.0307 33.8946 59.0242 33.8866 59.0177C33.866 58.9918 33.8408 58.9699 33.8122 58.9531C33.4894 58.6602 33.1107 58.4355 32.6989 58.2925C32.2871 58.1494 31.8507 58.091 31.4158 58.1208ZM31.6127 58.6305C32.2031 58.6346 32.776 58.8312 33.2446 59.1905L30.8897 61.5617C30.8469 61.5952 30.8174 61.6429 30.8066 61.6962V61.7006C30.8028 61.7168 30.8006 61.7333 30.8 61.7498C30.8 61.7506 30.8 61.7513 30.8 61.752V61.7542C30.8016 61.7642 30.8038 61.774 30.8066 61.7837C30.8125 61.8454 30.8424 61.9024 30.8897 61.9423L32.6725 63.7241C32.2178 63.9223 31.7165 63.9885 31.2259 63.915C30.7353 63.8415 30.2754 63.6313 29.8988 63.3084L29.89 63.303C29.8856 63.2986 29.8824 63.292 29.8769 63.2877C29.8744 63.2862 29.8718 63.2847 29.8692 63.2833C29.8249 63.245 29.7819 63.2052 29.7402 63.1641C29.371 62.7926 29.12 62.3202 29.0188 61.8064C28.9176 61.2926 28.9707 60.7603 29.1714 60.2766C29.37 59.7918 29.7078 59.3767 30.1421 59.0838C30.5764 58.7908 31.0888 58.6331 31.6127 58.6305ZM33.693 59.6345C34.0758 60.0994 34.2869 60.6845 34.2869 61.2927C34.287 61.6439 34.2174 61.9917 34.0822 62.3159C33.9471 62.6402 33.749 62.9344 33.4994 63.1816C33.4043 63.2727 33.3027 63.3568 33.1953 63.4331L31.4628 61.7455L33.693 59.6345ZM33.5191 60.8442C33.4873 60.845 33.456 60.8524 33.4272 60.8661C33.3767 60.894 33.3365 60.9373 33.3124 60.9897C33.2828 61.0444 33.2992 61.1045 33.3255 61.1559C33.3776 61.265 33.3981 61.3864 33.3845 61.5065C33.371 61.6266 33.324 61.7405 33.2489 61.8352C33.2299 61.8539 33.2149 61.8762 33.2046 61.9008C33.1943 61.9254 33.189 61.9518 33.189 61.9784C33.189 62.0051 33.1943 62.0315 33.2046 62.0561C33.2149 62.0807 33.2299 62.103 33.2489 62.1217C33.2684 62.1301 33.2895 62.1344 33.3107 62.1344C33.332 62.1344 33.353 62.1301 33.3725 62.1217C33.4077 62.1305 33.4446 62.1295 33.4793 62.1189C33.514 62.1083 33.5451 62.0885 33.5694 62.0616C33.6933 61.9091 33.7717 61.7248 33.7957 61.5298C33.8197 61.3348 33.7883 61.137 33.705 60.9591L33.7138 60.9547C33.6937 60.921 33.6652 60.8931 33.631 60.8737C33.5969 60.8543 33.5583 60.8442 33.5191 60.8442ZM27.7944 62.8414C28.2068 62.8114 28.6152 62.9388 28.9374 63.198C28.6357 63.2365 28.3551 63.3734 28.1389 63.5873L21.4758 70.2045L20.1742 68.9062C23.6272 65.4719 25.7381 63.6923 27.0485 63.0875C27.2734 62.946 27.5294 62.8616 27.7944 62.8414ZM28.98 63.6814C29.112 63.6602 29.2471 63.6708 29.3742 63.7123C29.5012 63.7538 29.6166 63.8249 29.7106 63.9198C29.7359 63.9434 29.7597 63.9686 29.7817 63.9953C29.8313 64.0684 29.8752 64.1452 29.913 64.225C29.9152 64.2301 29.9174 64.2352 29.9196 64.2403C29.9536 64.3349 29.9696 64.4351 29.9666 64.5356C29.9631 64.651 29.936 64.7644 29.8869 64.8688C29.8378 64.9732 29.7677 65.0664 29.6811 65.1427L22.575 71.3234L21.8181 70.5677L28.513 63.9187C28.639 63.7917 28.8022 63.7082 28.9789 63.6803L28.98 63.6814ZM28.9888 64.2042C28.9521 64.2296 28.919 64.2598 28.8903 64.2939L28.9888 64.2042ZM29.9731 65.672C29.4438 67.6244 26.8669 70.2461 24.1478 72.8197L23.0541 71.7259L29.9731 65.672ZM19.7816 69.2814L19.8111 69.3098L20.8885 70.3872L18.0721 70.9909L19.7816 69.2825V69.2814ZM21.4736 70.9745L21.8324 71.342C21.8336 71.3497 21.835 71.3574 21.8367 71.365L21.8553 71.3672L22.1835 71.7008L20.5056 71.9545L20.5013 71.9458L21.4736 70.9745ZM22.5805 72.1809L23.6524 73.2419C21.339 75.1637 18.8013 76.798 16.0946 78.1091C16.0073 78.1514 15.9371 78.2223 15.8959 78.3101C15.8547 78.3979 15.8449 78.4972 15.8681 78.5914L16.1711 79.9083C16.1834 79.9224 16.1901 79.9405 16.1901 79.9591C16.1901 79.9778 16.1834 79.9959 16.1711 80.01C16.1545 80.0247 16.1331 80.0328 16.111 80.0328C16.0888 80.0328 16.0674 80.0247 16.0508 80.01L14.2702 78.1988L19.7881 72.602L22.5805 72.1809ZM13.8688 78.5914L13.9967 78.7117L15.4263 80.1402L12.5016 79.9509L13.8688 78.5914ZM78.2414 63.863C78.0406 63.8604 77.8401 63.8787 77.6431 63.9177C75.7455 64.2972 74.8792 65.3669 75.0411 67.328C75.1483 68.7936 75.9642 69.4914 77.0449 69.9781C77.8017 70.3719 78.5706 70.63 79.1558 71.2797C79.4588 71.598 79.6654 71.9957 79.7515 72.4266C79.8377 72.8575 79.7999 73.3041 79.6425 73.7144C79.3144 74.6364 78.7205 75.0138 77.9122 75.0695C77.0449 75.1122 76.3405 74.9109 75.6919 74.2055C75.46 73.932 75.1527 73.7133 74.8792 74.037C74.5544 74.4177 74.8278 74.7961 75.0411 75.0695C75.7521 75.9314 76.6642 76.148 77.8017 76.148V76.1348C78.1813 76.0255 78.7752 76.0823 79.3188 75.7017C80.5099 75.0006 80.8347 73.9156 80.8347 72.5102C80.8347 70.9931 80.1861 69.9552 78.9939 69.37C78.2371 68.9937 77.4255 68.763 76.7211 68.1822C76.1786 67.69 76.0703 67.0447 76.1775 66.2856C76.288 65.5287 76.8403 65.1481 77.4255 65.042C78.131 64.9348 78.8878 64.9348 79.5911 65.3155C79.917 65.473 80.2911 65.6906 80.4552 65.147C80.617 64.6767 80.2922 64.3519 79.916 64.2403C79.3877 64.0391 78.8277 63.8684 78.2414 63.863ZM117.99 63.8848C117.414 63.9209 117.359 64.5695 117.206 65.0223L114.553 74.8234C114.447 75.2555 114.284 75.798 114.826 76.0113C115.365 76.1611 115.42 75.635 115.532 75.2555C116.18 73.2889 116.18 73.29 118.018 73.29H118.497C119.976 73.29 119.977 73.29 120.458 74.9525C120.515 75.1734 120.621 75.4436 120.676 75.6569C120.774 75.9817 120.987 76.0364 121.256 75.9817C121.581 75.9259 121.637 75.6569 121.637 75.2762L121.628 75.3069C121.583 74.9769 121.512 74.651 121.415 74.3323L118.923 65.0223C118.817 64.5389 118.697 63.9406 118.112 63.8859C118.072 63.8824 118.031 63.8828 117.99 63.8848ZM65.0825 63.9198C63.4594 63.9198 62.3788 64.6767 62.16 66.2495C61.8352 68.6777 61.891 71.1605 62.16 73.5973C62.3777 75.2795 63.408 76.0364 65.193 76.0364C66.873 76.0364 67.7906 75.2084 68.0608 73.5459C68.2249 72.357 68.1177 71.2228 68.1713 70.0383C68.1166 68.7914 68.2785 67.5467 68.005 66.2484C67.736 64.7314 66.7056 63.9198 65.0825 63.9198ZM87.4399 63.9242C87.1719 63.9242 86.9531 64.143 86.9531 64.4667C86.9531 64.8856 87.1752 65.0552 87.4956 65.0552C87.8161 65.0552 88.1978 65.1055 88.5216 65.0552C89.3342 64.9436 89.7127 65.2706 89.658 66.2955V75.0116C89.658 75.4305 89.658 75.9172 90.2005 75.9172C90.6883 75.9172 90.743 75.4436 90.743 75.0116V66.1358C90.743 65.3242 90.9617 64.9436 91.7164 64.9983C92.0971 65.053 92.5291 64.9983 92.9042 64.9983C93.2335 64.9983 93.4467 64.7938 93.4467 64.4142C93.4467 64.0938 93.2335 63.9242 92.96 63.9242H87.4399ZM50.026 63.933C49.3894 63.933 49.1203 64.202 49.1203 65.0136V70.0295L49.0952 70.0492V75.1352C49.0952 75.5672 49.0952 76.0025 49.5819 76.0025C50.0686 76.0025 50.12 75.5716 50.12 75.1909C50.12 74.2853 50.1758 73.2955 50.12 72.322C50.0686 71.5094 50.3421 71.132 51.0989 71.1834C51.5944 71.2381 52.0133 71.1834 52.5 71.1834C54.1921 71.0762 55.1666 69.9584 55.2213 67.9919C55.277 65.1208 54.3539 63.9887 51.8635 63.9341L50.026 63.933ZM134.202 64.0489C133.89 64.0489 133.676 64.2152 133.621 64.5914C133.565 64.8605 133.567 65.0737 133.567 65.3472V71.6909C133.567 71.9097 133.621 72.2345 133.352 72.3461C133.023 72.4522 133.024 72.1284 132.916 71.9097C132.754 71.4744 132.536 71.0981 132.373 70.6661L129.724 64.762C129.502 64.33 129.232 63.9483 128.751 64.1123C128.315 64.2217 128.37 64.7106 128.37 65.0858V75.063C128.37 75.4939 128.37 76.0889 128.955 76.0364C129.498 76.0364 129.387 75.4392 129.387 75.063V68.6208C129.387 68.2391 129.28 67.8081 129.606 67.4833L129.617 67.4614C129.985 67.6211 130.041 68.0006 130.203 68.3255L133.233 75.0367C133.452 75.5245 133.677 76.1173 134.261 75.9041C134.8 75.7367 134.638 75.1483 134.638 74.7119V64.6975C134.638 64.3727 134.527 64.1036 134.202 64.0489ZM100.809 64.0806C100.743 64.0846 100.679 64.0967 100.616 64.1167C100.13 64.2808 100.24 64.8725 100.24 65.3045V75.4819C100.291 75.7509 100.403 75.9686 100.728 76.0244C101.04 76.0244 101.254 75.8056 101.309 75.4819C101.363 75.157 101.363 74.8311 101.363 74.5084V67.9569C101.363 67.7534 101.309 67.4275 101.582 67.3772C101.795 67.3214 101.795 67.6462 101.907 67.8081L103.364 71.0041C103.53 71.3803 103.581 71.8112 104.018 71.8112C104.324 71.8112 104.436 71.3803 104.598 71.0555L106.385 67.2142L106.392 67.1967C106.824 67.6331 106.714 68.0641 106.769 68.4961V74.7206C106.769 75.2675 106.598 76.0244 107.354 76.0244C108.059 76.0244 107.893 75.2631 107.893 74.7775V65.3603C107.893 64.8703 108.042 64.2797 107.461 64.1134C106.867 64.0062 106.594 64.493 106.38 64.9797L104.718 68.5519C104.552 68.8767 104.499 69.5253 104.013 69.5253C103.576 69.4575 103.526 68.8767 103.364 68.5519L101.697 64.8725C101.511 64.447 101.238 64.0588 100.809 64.0806ZM52.103 65.0289C52.6236 65.0355 53.1235 65.1602 53.5555 65.5933C54.3714 66.4562 54.367 67.5402 54.098 68.6755C53.8278 69.8163 53.235 70.1947 51.6622 70.1947C50.1463 70.1947 50.1463 70.1947 50.1463 68.46V66.0242C50.1463 65.6436 50.1463 65.1602 50.5258 65.1602C51.041 65.1317 51.5824 65.0223 52.103 65.0289ZM65.0355 65.1033C66.2802 65.0486 67.036 65.8645 67.0906 67.2689V70.047C67.0906 71.0216 67.1453 71.9523 67.0906 72.8623C67.0392 74.328 66.2791 75.0805 65.0344 75.0805C63.8258 75.0247 63.1247 74.2634 63.07 72.8623V67.27C63.1422 65.8591 63.8488 65.1033 65.0355 65.1033ZM118.065 66.3513C118.39 66.3513 118.335 66.7275 118.39 67.0009L119.42 70.8422C119.795 72.1919 119.74 72.2477 118.553 72.2477H118.01L118.013 72.2695C116.28 72.2695 116.224 72.2695 116.767 70.303L117.634 67.0567C117.689 66.7275 117.74 66.3513 118.065 66.3513Z" fill="#F37036"/>
</svg>
