<!-- mayurDayal2000 github icons -->
<svg width="48" height="48" viewBox="0 0 48 48" fill="none" xmlns="http://www.w3.org/2000/svg">
<path d="M24 21.3C25.926 21.3 27.4875 19.7385 27.4875 17.8125C27.4875 15.8864 25.926 14.325 24 14.325C22.0739 14.325 20.5125 15.8864 20.5125 17.8125C20.5125 19.7385 22.0739 21.3 24 21.3Z" fill="#61DAFB"/>
<path d="M24 30.6375C26.7375 33.3 29.4375 34.875 31.6125 34.875C32.325 34.875 33 34.725 33.5625 34.3875C35.5125 33.2625 36.225 30.45 35.55 26.4375C35.4375 25.725 35.2875 25.0125 35.1 24.2625C35.85 24.0375 36.525 23.8125 37.2 23.5875C40.9875 22.125 43.0875 20.1 43.0875 17.8875C43.0875 15.6375 40.9875 13.6125 37.2 12.1875C36.525 11.925 35.85 11.7 35.1 11.5125C35.2875 10.7625 35.4375 10.05 35.55 9.33748C36.1875 5.24998 35.475 2.39998 33.525 1.27498C32.9625 0.937476 32.2875 0.787476 31.575 0.787476C29.4375 0.787476 26.7 2.36248 23.9625 5.02498C21.2625 2.36248 18.5625 0.787476 16.3875 0.787476C15.675 0.787476 15 0.937476 14.4375 1.27498C12.4875 2.39998 11.775 5.21248 12.45 9.22498C12.5625 9.93748 12.7125 10.65 12.9 11.4C12.15 11.625 11.475 11.85 10.8 12.075C7.01248 13.5375 4.91248 15.5625 4.91248 17.775C4.91248 20.025 7.01248 22.05 10.8 23.475C11.475 23.7375 12.15 23.9625 12.9 24.15C12.7125 24.9 12.5625 25.6125 12.45 26.325C11.8125 30.3375 12.525 33.1875 14.4375 34.275C15 34.6125 15.675 34.7625 16.3875 34.7625C18.5625 34.8375 21.2625 33.2625 24 30.6375ZM21.9 25.575C22.575 25.6125 23.2875 25.6125 24 25.6125C24.7125 25.6125 25.425 25.6125 26.1 25.575C25.425 26.475 24.7125 27.3 24 28.0875C23.2875 27.3 22.575 26.475 21.9 25.575ZM17.25 21.7125C17.625 22.35 17.9625 22.95 18.375 23.55C17.2125 23.4 16.125 23.2125 15.075 22.9875C15.4125 21.975 15.7875 20.925 16.2375 19.875C16.5375 20.475 16.875 21.1125 17.25 21.7125ZM15.075 12.675C16.125 12.45 17.2125 12.2625 18.375 12.1125C18 12.7125 17.625 13.3125 17.25 13.95C16.875 14.5875 16.5375 15.1875 16.2375 15.825C15.75 14.7375 15.375 13.6875 15.075 12.675ZM17.1375 17.8125C17.625 16.8 18.15 15.7875 18.75 14.775C19.3125 13.8 19.95 12.825 20.5875 11.85C21.7125 11.775 22.8375 11.7375 24 11.7375C25.2 11.7375 26.325 11.775 27.4125 11.85C28.0875 12.825 28.6875 13.8 29.25 14.775C29.85 15.7875 30.375 16.8 30.8625 17.8125C30.375 18.825 29.85 19.8375 29.25 20.85C28.6875 21.825 28.05 22.8 27.4125 23.775C26.2875 23.85 25.1625 23.8875 24 23.8875C22.8 23.8875 21.675 23.85 20.5875 23.775C19.9125 22.8 19.3125 21.825 18.75 20.85C18.15 19.8375 17.625 18.825 17.1375 17.8125ZM31.8 15.7875L30.7875 13.9125C30.4125 13.275 30.075 12.675 29.6625 12.075C30.825 12.225 31.9125 12.4125 32.9625 12.6375C32.625 13.6875 32.25 14.7375 31.8 15.7875ZM31.8 19.8375C32.25 20.8875 32.625 21.9375 32.9625 22.95C31.9125 23.175 30.825 23.3625 29.6625 23.5125C30.0375 22.9125 30.4125 22.3125 30.7875 21.675C31.125 21.1125 31.4625 20.475 31.8 19.8375ZM32.6625 32.85C32.3625 33.0375 31.9875 33.1125 31.575 33.1125C29.7375 33.1125 27.45 31.6125 25.2 29.3625C26.2875 28.2 27.3375 26.8875 28.3875 25.425C30.15 25.275 31.8375 25.0125 33.4125 24.6375C33.6 25.3125 33.7125 25.9875 33.825 26.6625C34.35 29.85 33.9375 32.1375 32.6625 32.85ZM34.6125 13.0875C38.8125 14.2875 41.325 16.125 41.325 17.8125C41.325 19.275 39.6 20.7375 36.5625 21.9C35.9625 22.125 35.2875 22.35 34.6125 22.5375C34.125 21 33.525 19.425 32.775 17.8125C33.525 16.2 34.1625 14.625 34.6125 13.0875ZM31.6125 2.51248C32.025 2.51248 32.3625 2.58748 32.7 2.77498C33.9375 3.48748 34.3875 5.73748 33.8625 8.96248C33.75 9.59998 33.6 10.275 33.45 10.9875C31.875 10.65 30.1875 10.3875 28.425 10.2C27.4125 8.73748 26.325 7.42498 25.2375 6.26248C27.4875 4.04998 29.775 2.51248 31.6125 2.51248ZM26.1 10.05C25.425 10.0125 24.7125 10.0125 24 10.0125C23.2875 10.0125 22.575 10.0125 21.9 10.05C22.575 9.14998 23.2875 8.32498 24 7.53748C24.7125 8.32498 25.425 9.18748 26.1 10.05ZM15.3375 2.77498C15.6375 2.58748 16.0125 2.51248 16.425 2.51248C18.2625 2.51248 20.55 4.01248 22.8 6.26248C21.7125 7.42498 20.6625 8.73748 19.6125 10.2C17.85 10.35 16.1625 10.6125 14.5875 10.9875C14.4 10.3125 14.2875 9.63748 14.175 8.96248C13.65 5.77498 14.0625 3.52498 15.3375 2.77498ZM13.3875 22.5375C9.18748 21.3375 6.67498 19.5 6.67498 17.8125C6.67498 16.35 8.39998 14.8875 11.4375 13.725C12.0375 13.5 12.7125 13.275 13.3875 13.0875C13.875 14.625 14.475 16.2 15.225 17.8125C14.475 19.425 13.8375 21.0375 13.3875 22.5375ZM14.175 26.6625C14.2875 26.025 14.4375 25.35 14.5875 24.6375C16.1625 24.975 17.85 25.2375 19.6125 25.425C20.625 26.8875 21.7125 28.2 22.8 29.3625C20.55 31.575 18.2625 33.1125 16.425 33.1125C16.0125 33.1125 15.675 33.0375 15.3375 32.85C14.0625 32.1375 13.65 29.85 14.175 26.6625ZM12.6 42.1125C13.425 41.1 13.4625 39.975 13.0125 38.85C12.5625 37.725 11.625 37.2 10.4625 37.1625C9.07498 37.125 7.64998 37.1625 6.26248 37.1625H5.99998V46.875H7.12498V43.2H8.88748C9.11248 43.2 9.29998 43.275 9.41248 43.4625L11.6625 46.95C11.7 47.025 11.8125 47.1375 11.8875 47.1375H13.35C12.45 45.75 11.5875 44.4375 10.6875 43.0875C11.475 42.975 12.15 42.7125 12.6 42.1125ZM7.12498 42.0375V38.325H7.53748C8.39998 38.325 9.29998 38.2875 10.1625 38.3625C11.175 38.4 11.8875 39.1875 11.8875 40.2C11.8875 41.2125 11.0625 42 10.05 42.0375C9.14998 42.075 8.24998 42.0375 7.12498 42.0375ZM21.6375 42.525C21.0375 39.9 18.6375 39.225 16.8 40.05C15.375 40.6875 14.7375 41.925 14.7 43.4625C14.6625 44.625 15 45.675 15.9 46.4625C16.9125 47.3625 18.15 47.475 19.425 47.25C20.1375 47.1 20.775 46.7625 21.2625 46.2375C21.075 45.975 20.8875 45.7125 20.7 45.4875C19.65 46.3875 18.4875 46.6875 17.2125 46.0875C16.3875 45.675 15.975 44.6625 15.9 43.9125H21.7125V43.425C21.75 43.0875 21.7125 42.7875 21.6375 42.525ZM15.975 43.125C15.8625 42 16.9875 40.8 18.225 40.8C19.65 40.7625 20.55 41.625 20.5875 43.125H15.975ZM27.4875 39.8625C26.925 39.75 26.325 39.7125 25.7625 39.75C24.8625 39.825 24.075 40.2375 23.4375 40.9125C23.625 41.175 23.775 41.4375 24 41.7375C24.075 41.6625 24.15 41.5875 24.225 41.55C24.825 40.9875 25.5375 40.6875 26.4 40.7625C27.075 40.8 27.7125 41.025 27.9 41.7C28.05 42.225 28.0125 42.7875 28.05 43.35C27.9375 43.35 27.9 43.3125 27.8625 43.275C26.9625 42.525 25.95 42.375 24.8625 42.6375C23.85 42.9 23.2125 43.6875 23.1375 44.7C23.0625 45.8625 23.5875 46.725 24.6 47.1375C25.2375 47.4 25.95 47.4 26.625 47.25C27.15 47.1375 27.375 46.8375 28.125 46.425V46.9125H29.175C29.175 45.4125 29.2125 43.575 29.175 41.85C29.175 40.7625 28.5375 40.0875 27.4875 39.8625ZM28.0125 44.5875C27.975 44.7 28.0125 44.8125 28.0125 44.925C28.0125 45.7125 27.825 45.975 27.075 46.275C26.55 46.4625 25.9875 46.5375 25.425 46.35C24.7875 46.1625 24.3375 45.6 24.3375 44.9625C24.3 44.325 24.7125 43.6875 25.35 43.5C26.2125 43.2 27 43.3875 27.7125 43.9125C27.9375 44.1 28.0875 44.2875 28.0125 44.5875ZM33.8625 40.875C34.8375 40.575 35.7375 40.7625 36.4125 41.5875L36.525 41.6625C36.7875 41.4375 37.0125 41.2125 37.3125 40.95C37.2 40.8375 37.1625 40.7625 37.0875 40.65C36 39.4875 33.8625 39.3375 32.55 40.275C30.7125 41.625 30.75 44.25 31.65 45.6375C32.5125 46.95 33.75 47.4 35.2125 47.2125C36.075 47.1 36.7875 46.6875 37.35 45.975C37.0875 45.75 36.825 45.525 36.5625 45.2625C36.4875 45.3375 36.45 45.375 36.4125 45.45C35.4 46.575 33.7125 46.4625 32.8125 45.2625C32.2875 44.55 32.175 43.725 32.325 42.9C32.4 41.9625 32.8875 41.2125 33.8625 40.875ZM41.6625 45.975C41.5875 46.0125 41.55 46.05 41.55 46.05C41.25 46.275 40.95 46.3125 40.6125 46.2C40.275 46.05 40.2375 45.75 40.2 45.45V41.175C40.2 41.1 40.2 41.25 40.2375 40.875H41.6625V39.75H40.1625V37.875H39.0375V39.9H38.0625C37.9875 39.9 37.875 39.975 37.875 40.05C37.8375 40.3125 37.875 40.5 37.875 40.875H39.075V45.675C39.075 46.275 39.225 46.8 39.75 47.1C40.3125 47.4375 41.4 47.3625 41.8875 46.95C41.9625 46.9125 42 46.7625 42 46.725C41.8875 46.5 41.775 46.2375 41.6625 45.975Z" fill="#61DAFB"/>
</svg>
