<!-- mayurDayal2000 github icons -->
<svg width="48" height="48" viewBox="0 0 48 48" fill="none" xmlns="http://www.w3.org/2000/svg">
<path fill-rule="evenodd" clip-rule="evenodd" d="M0.457153 21.0585C0.457153 21.3221 0.534778 21.4961 0.578278 21.6652C0.861778 22.7651 1.47115 23.709 2.19415 24.57C3.2239 25.797 4.48503 26.7847 5.7769 27.7136C6.8974 28.5191 8.04078 29.3066 9.16578 30.1061C9.3589 30.2434 9.54153 30.4012 9.75115 30.5696C9.57078 30.6671 9.42078 30.753 9.26478 30.8321C7.78015 31.5851 6.35178 32.4293 5.03515 33.4519C4.24165 34.0684 3.4744 34.7235 2.93253 35.5796C2.06065 36.9566 1.75203 38.4236 2.4019 39.99C2.59165 40.4475 2.88115 40.8428 3.28953 41.1349C3.4219 41.2294 3.5704 41.3231 3.72528 41.3599C4.12203 41.4533 4.52628 41.5144 4.9279 41.5882L6.06528 41.5875C7.32303 41.4754 8.4679 41.0445 9.50253 40.3305C11.1195 39.2145 12.2089 37.7183 12.6773 35.7979C13.0178 34.4021 13.0317 33.0049 12.6304 31.6155C12.592 31.4868 12.5477 31.3599 12.4977 31.2352C12.4489 31.1104 12.3915 30.9889 12.324 30.8333L14.9025 29.3505L14.9412 29.3835C14.8943 29.5369 14.8444 29.6899 14.802 29.8447C14.4957 30.9637 14.292 32.1023 14.3652 33.2636C14.4432 34.5011 14.7885 35.6595 15.513 36.6934C16.0988 37.5296 17.4945 37.5608 18.117 36.7215C18.3379 36.4234 18.552 36.1118 18.7129 35.7791C19.1333 34.911 19.5225 34.0275 19.9242 33.15L19.9943 32.9895C19.9654 33.405 19.9317 33.7699 19.9163 34.1351C19.8923 34.7055 19.9257 35.2725 20.1207 35.8151C20.2875 36.2794 20.5714 36.6262 21.1032 36.6874C21.4669 36.729 21.7568 36.5625 22.0242 36.3514C22.4384 36.024 22.7817 35.6159 23.0333 35.1517C23.7462 33.8426 24.4782 32.5414 25.1243 31.1992C25.8233 29.7476 26.4345 28.2536 27.0837 26.7772L27.1909 26.5155C27.3443 27.1181 27.4511 27.7084 27.648 28.2671C27.8768 28.9155 28.1599 29.5485 28.4682 30.1639C28.614 30.4545 28.5972 30.6431 28.395 30.8869C27.549 31.9069 26.7177 32.9392 25.8855 33.9705C25.7014 34.1981 25.518 34.4299 25.3647 34.6785C25.2716 34.8355 25.2104 35.0093 25.1846 35.19C25.1588 35.3563 25.1984 35.5262 25.2951 35.664C25.3918 35.8018 25.5381 35.8968 25.7033 35.9291C26.0367 36.0009 26.3786 36.0253 26.7188 36.0015C27.8801 35.916 28.9346 35.5084 29.8669 34.8176C31.0748 33.9229 31.4625 32.7019 31.17 31.2547C31.0909 30.8621 30.951 30.4804 30.8149 30.102C30.7538 29.9314 30.7496 29.8117 30.861 29.6527C31.8266 28.2739 32.6516 26.811 33.4189 25.3144C33.4493 25.2555 33.4804 25.1966 33.5336 25.1336C33.7823 26.4274 34.1565 27.6743 34.827 28.8056C34.485 29.1353 34.1464 29.4341 33.84 29.7634C33.1654 30.4886 32.5804 31.2761 32.2752 32.2365C32.1439 32.6505 32.043 33.0713 32.1015 33.5134C32.1923 34.2 32.7548 34.6462 33.4302 34.4899C34.8754 34.1554 36.123 33.4744 37.0346 32.268C37.6482 31.4557 37.704 30.5497 37.4472 29.6006C37.3767 29.3426 37.293 29.0887 37.203 28.7929C37.5597 28.6822 37.9073 28.5495 38.2669 28.4674C40.134 28.0414 41.9809 28.1156 43.7802 28.7899C44.8305 29.1836 45.6791 29.8425 46.1824 30.879C46.797 32.1461 46.4573 33.3484 45.2629 34.1494C45.1515 34.224 45.024 34.2829 44.9318 34.3762C44.9022 34.4105 44.8801 34.4505 44.8669 34.4938C44.8537 34.537 44.8496 34.5826 44.8549 34.6275C44.8628 34.6736 44.9846 34.7314 45.0548 34.7306C45.4474 34.7276 45.7658 34.5218 46.0714 34.3103C46.8372 33.7804 47.3959 33.0675 47.5163 32.1289L47.5399 32.0584L47.511 31.4471C47.4994 31.4119 47.5196 31.377 47.517 31.3504C47.3543 29.9835 46.6241 28.9234 45.5621 28.0924C44.3321 27.1305 42.8798 26.7345 41.3438 26.6719C40.098 26.6183 38.8539 26.8098 37.6819 27.2355C37.3455 27.3574 37.0121 27.5017 36.6739 27.6379C36.6285 27.5557 36.5798 27.477 36.5396 27.3956C36.1924 26.6846 35.7716 26.0051 35.6786 25.1899C35.6126 24.6109 35.5316 24.0326 35.6693 23.46C35.8016 22.9091 35.9741 22.3676 36.1365 21.8243C36.2201 21.5445 36.1613 21.3878 35.8943 21.2618C35.8012 21.2154 35.702 21.1828 35.5995 21.165C34.9433 21.0697 34.296 21.1241 33.6604 21.309C33.4354 21.3746 33.2719 21.5006 33.222 21.7496C33.1935 21.8925 33.1354 22.0294 33.0949 22.1704C32.9288 22.7565 32.811 23.3539 32.5425 23.9123C31.8698 25.3129 31.1018 26.6606 30.3158 27.9986C30.2307 28.143 30.141 28.2847 30.0338 28.4599C29.7578 27.8824 29.4634 27.3641 29.3742 26.7566C29.2733 26.0696 29.1938 25.3838 29.3648 24.702C29.4919 24.1935 29.658 23.6944 29.811 23.1926C29.8834 22.9541 29.85 22.8289 29.634 22.7033C29.5249 22.6399 29.4015 22.5836 29.2785 22.5653C28.6056 22.4627 27.9181 22.519 27.2708 22.7295C27.0672 22.7955 26.9603 22.9271 26.898 23.1371C26.715 23.7566 26.559 24.3911 26.3022 24.9802C25.2619 27.3652 24.1917 29.7379 23.1225 32.1101C22.8994 32.6055 22.638 33.0836 22.3864 33.5659C22.3227 33.6881 22.2297 33.7957 22.1502 33.9105C22.0864 33.8351 22.0617 33.7834 22.062 33.7316C22.0639 33.4267 22.0275 33.1129 22.0857 32.8181C22.2641 31.9267 22.4614 31.0391 22.6774 30.156C22.8537 29.4263 23.0588 28.7033 23.2542 27.9784C23.3198 27.7358 23.3209 27.5089 23.1465 27.3049C22.8537 26.9633 22.2416 26.8883 21.8787 27.1515L21.7182 27.2423L21.7493 26.9835C21.8258 26.4289 21.8412 25.8761 21.6889 25.3298C21.4992 24.6487 21.0132 24.2569 20.3067 24.2786C19.9774 24.2887 19.6317 24.345 19.3268 24.465C18.0447 24.9675 17.0588 25.8574 16.2195 26.928C16.1417 27.0274 16.0453 27.1107 15.9357 27.1732C14.8508 27.7747 13.7625 28.3687 12.6747 28.965L11.4638 29.6284C11.139 29.3186 10.8439 28.9972 10.509 28.7246C9.4864 27.8906 8.44728 27.0773 7.41753 26.2526C6.50478 25.5218 5.62053 24.7605 4.94403 23.7926C4.44078 23.0726 4.1164 22.2847 4.08528 21.3945C4.0459 20.2601 4.36765 19.2236 4.94515 18.2587C5.6839 17.0242 6.69153 16.0335 7.79928 15.1361C8.97115 14.1874 10.2387 13.3819 11.5523 12.6465C13.3902 11.6179 15.2805 10.7074 17.3074 10.1063C19.3857 9.48975 21.4943 9.13687 23.6693 9.38287C24.5243 9.47962 25.3545 9.67538 26.1169 10.0935C26.7008 10.4134 27.1796 10.8323 27.4024 11.487C27.6222 12.1312 27.6154 12.7841 27.4632 13.4385C27.1538 14.7637 26.4282 15.8561 25.515 16.8323C24.0173 18.4324 22.1903 19.5218 20.1334 20.2414C18.9508 20.6557 17.7203 20.9182 16.4715 21.0225C15.4482 21.1084 14.4462 21.0176 13.4772 20.6617C12.8355 20.4259 12.2768 20.0651 11.8275 19.5416C11.7473 19.4479 11.6445 19.3463 11.4949 19.434C11.3483 19.5203 11.3224 19.6598 11.3715 19.8011C11.4537 20.0359 11.5294 20.2804 11.6573 20.4904C11.9787 21.0172 12.4474 21.3994 12.9634 21.7271C13.9545 22.3575 15.0623 22.5694 16.2109 22.6185C17.9539 22.6939 19.6545 22.4336 21.3312 21.966C23.7248 21.2985 25.806 20.1195 27.4751 18.2595C28.8649 16.7108 29.8575 14.9629 30.0701 12.8524C30.174 11.8222 30.0634 10.8131 29.5812 9.87338C29.058 8.85525 28.2263 8.09813 27.2318 7.5765C25.7835 6.81713 24.2205 6.375 22.6073 6.375H20.991C19.0373 6.375 17.1484 6.93488 15.3124 7.60275C13.9227 8.10863 12.5599 8.70562 11.2369 9.36637C8.35578 10.806 5.67265 12.5419 3.46878 14.9288C2.37078 16.1179 1.44115 17.43 0.906403 18.975C0.745005 19.4363 0.605968 19.9051 0.489778 20.3798M10.9294 33.8846C10.8045 35.5568 10.0467 36.9124 8.80803 38.0104C8.11128 38.6276 7.31215 39.0671 6.3814 39.2216C6.0439 39.2775 5.69853 39.291 5.37115 39.1511C4.90428 38.9516 4.79965 38.5373 4.79065 38.0959C4.77678 37.3924 5.02315 36.7564 5.36103 36.1511C5.80203 35.3621 6.44853 34.7606 7.1389 34.1989C8.2264 33.3135 9.40615 32.5643 10.6144 31.857L10.7055 31.8195C10.8923 32.5095 10.9812 33.1909 10.9294 33.8846ZM20.3637 26.6175C20.2755 27.1515 20.1653 27.6859 20.0093 28.2034C19.47 29.9947 18.7774 31.7306 18.0285 33.4432C17.8902 33.7601 17.6888 34.0492 17.5137 34.3496C17.4839 34.3958 17.4482 34.4379 17.4075 34.4749C17.1908 34.689 16.9853 34.6777 16.8758 34.3976C16.7483 34.0721 16.6699 33.7238 16.6024 33.3791C16.557 33.1478 16.5679 32.9047 16.5537 32.6677C16.5683 30.9825 17.0824 29.451 17.9547 28.0252C18.3143 27.4373 18.7058 26.877 19.3039 26.505C19.49 26.3893 19.6913 26.3002 19.902 26.2402C20.2208 26.1506 20.4165 26.298 20.3637 26.6175ZM26.8002 34.818L29.1135 32.1169C29.2099 33.12 27.5048 35.1225 26.8002 34.818ZM34.1888 33.0004C34.0253 33.0941 33.8471 33.1616 33.6795 33.2483C33.5261 33.3278 33.4755 33.2475 33.471 33.1155C33.4688 33.0241 33.4805 32.9329 33.5059 32.8451C33.8183 31.7434 34.3932 30.8029 35.2485 30.0379L35.3085 30.0071C35.7154 31.1452 35.2451 32.3951 34.1888 33.0004Z" fill="#CB6699"/>
</svg>
