<!-- mayurDayal2000 github icons -->
<svg width="194" height="25" viewBox="0 0 194 25" fill="none" xmlns="http://www.w3.org/2000/svg">
<path d="M20.0315 0C14.6898 0 11.3512 2.67087 10.0157 8.0126C12.0189 5.34173 14.3559 4.34016 17.0268 5.00787C18.5506 5.38884 19.6398 6.49436 20.8454 7.71813C22.8094 9.71164 25.0825 12.0189 30.0472 12.0189C35.389 12.0189 38.7275 9.34803 40.063 4.0063C38.0598 6.67716 35.7228 7.67874 33.052 7.01102C31.5281 6.63005 30.4389 5.52454 29.2333 4.30076C27.2693 2.30726 24.9963 0 20.0315 0ZM10.0157 12.0189C4.67401 12.0189 1.33543 14.6898 0 20.0315C2.00315 17.3606 4.34016 16.359 7.01102 17.0268C8.5349 17.4077 9.62409 18.5133 10.8297 19.737C12.7937 21.7305 15.0667 24.0378 20.0315 24.0378C25.3732 24.0378 28.7118 21.3669 30.0472 16.0252C28.0441 18.6961 25.7071 19.6976 23.0362 19.0299C21.5123 18.6489 20.4231 17.5434 19.2175 16.3197C17.2536 14.3262 14.9805 12.0189 10.0157 12.0189Z" fill="url(#paint0_linear_4_70)"/>
<path d="M60.0915 10.1285H56.5956V16.8947C56.5956 18.699 57.7797 18.6708 60.0915 18.5581V21.2927C55.4116 21.8566 53.5509 20.5597 53.5509 16.8947V10.1285H50.9571V7.1965H53.5509V3.4098L56.5956 2.50765V7.1965H60.0915V10.1285ZM73.4176 7.1965H76.4624V21.2927H73.4176V19.2629C72.3463 20.7571 70.683 21.6592 68.484 21.6592C64.6498 21.6592 61.464 18.4171 61.464 14.2446C61.464 10.0439 64.6498 6.83 68.484 6.83C70.683 6.83 72.3463 7.73216 73.4176 9.19816V7.1965ZM68.9632 18.7554C71.5006 18.7554 73.4176 16.8665 73.4176 14.2446C73.4176 11.6227 71.5006 9.73382 68.9632 9.73382C66.4259 9.73382 64.5088 11.6227 64.5088 14.2446C64.5088 16.8665 66.4259 18.7554 68.9632 18.7554ZM81.5371 5.08206C80.4658 5.08206 79.5918 4.1799 79.5918 3.13678C79.5918 2.06547 80.4658 1.1915 81.5371 1.1915C82.6084 1.1915 83.4824 2.06547 83.4824 3.13678C83.4824 4.1799 82.6084 5.08206 81.5371 5.08206ZM80.0147 21.2927V7.1965H83.0595V21.2927H80.0147ZM86.5835 21.2927V0.712231H89.6283V21.2927H86.5835ZM109.391 7.1965H112.605L108.179 21.2927H105.191L102.259 11.7919L99.2983 21.2927H96.3099L91.8837 7.1965H95.0977L97.8323 16.9229L100.793 7.1965H103.696L106.628 16.9229L109.391 7.1965ZM116.383 5.08206C115.312 5.08206 114.438 4.1799 114.438 3.13678C114.438 2.06547 115.312 1.1915 116.383 1.1915C117.454 1.1915 118.328 2.06547 118.328 3.13678C118.328 4.1799 117.454 5.08206 116.383 5.08206ZM114.861 21.2927V7.1965H117.905V21.2927H114.861ZM128.844 6.83C132.002 6.83 134.257 8.97262 134.257 12.6376V21.2927H131.212V12.9478C131.212 10.8051 129.972 9.67744 128.055 9.67744C126.053 9.67744 124.474 10.8615 124.474 13.7372V21.2927H121.429V7.1965H124.474V9.00082C125.405 7.53481 126.927 6.83 128.844 6.83ZM148.692 1.558H151.736V21.2927H148.692V19.2629C147.62 20.7571 145.957 21.6592 143.758 21.6592C139.924 21.6592 136.738 18.4171 136.738 14.2446C136.738 10.0439 139.924 6.83 143.758 6.83C145.957 6.83 147.62 7.73216 148.692 9.19816V1.558ZM144.237 18.7554C146.774 18.7554 148.692 16.8665 148.692 14.2446C148.692 11.6227 146.774 9.73382 144.237 9.73382C141.7 9.73382 139.783 11.6227 139.783 14.2446C139.783 16.8665 141.7 18.7554 144.237 18.7554ZM161.942 21.6592C157.685 21.6592 154.499 18.4171 154.499 14.2446C154.499 10.0439 157.685 6.83 161.942 6.83C164.705 6.83 167.101 8.26781 168.229 10.4668L165.607 11.9892C164.987 10.6642 163.605 9.8184 161.914 9.8184C159.433 9.8184 157.544 11.7073 157.544 14.2446C157.544 16.7819 159.433 18.6708 161.914 18.6708C163.605 18.6708 164.987 17.7969 165.663 16.5L168.285 17.9942C167.101 20.2214 164.705 21.6592 161.942 21.6592ZM173.304 11.0871C173.304 13.6526 180.887 12.102 180.887 17.3176C180.887 20.1368 178.435 21.6592 175.39 21.6592C172.571 21.6592 170.541 20.3906 169.639 18.3607L172.26 16.8383C172.712 18.107 173.839 18.8682 175.39 18.8682C176.743 18.8682 177.786 18.4171 177.786 17.2894C177.786 14.7803 170.202 16.1899 170.202 11.1434C170.202 8.49335 172.486 6.83 175.362 6.83C177.673 6.83 179.59 7.90131 180.577 9.76201L178.012 11.1998C177.504 10.1003 176.517 9.59286 175.362 9.59286C174.262 9.59286 173.304 10.0721 173.304 11.0871ZM186.3 11.0871C186.3 13.6526 193.884 12.102 193.884 17.3176C193.884 20.1368 191.431 21.6592 188.387 21.6592C185.567 21.6592 183.537 20.3906 182.635 18.3607L185.257 16.8383C185.708 18.107 186.836 18.8682 188.387 18.8682C189.74 18.8682 190.783 18.4171 190.783 17.2894C190.783 14.7803 183.199 16.1899 183.199 11.1434C183.199 8.49335 185.483 6.83 188.358 6.83C190.67 6.83 192.587 7.90131 193.574 9.76201L191.008 11.1998C190.501 10.1003 189.514 9.59286 188.358 9.59286C187.259 9.59286 186.3 10.0721 186.3 11.0871Z" fill="#2298BD"/>
<defs>
<linearGradient id="paint0_linear_4_70" x1="-111.286" y1="769.209" x2="3348.81" y2="2764.22" gradientUnits="userSpaceOnUse">
<stop stop-color="#2298BD"/>
<stop offset="1" stop-color="#0ED7B5"/>
</linearGradient>
</defs>
</svg>
