<!-- mayurDayal2000 github icons -->
<svg width="128" height="48" viewBox="0 0 128 48" fill="none" xmlns="http://www.w3.org/2000/svg">
<g clip-path="url(#clip0_21_207)">
<path d="M13.2168 16C9.69225 16 7.48925 17.7623 6.60825 21.2868C7.93 19.5243 9.472 18.8635 11.2343 19.3043C12.2395 19.5555 12.9583 20.285 13.7538 21.0925C15.0495 22.4075 16.5493 23.93 19.825 23.93C23.3495 23.93 25.5523 22.1678 26.4333 18.6433C25.1118 20.4058 23.5698 21.0665 21.8075 20.6258C20.802 20.3745 20.0835 19.645 19.288 18.8375C17.992 17.5225 16.4925 16 13.2168 16ZM6.60825 23.93C3.084 23.93 0.881 25.6923 0 29.2168C1.32175 27.4543 2.8635 26.7935 4.62575 27.2343C5.63125 27.4855 6.35 28.215 7.14525 29.0223C8.44125 30.3378 9.941 31.8598 13.2168 31.8598C16.741 31.8598 18.9438 30.0978 19.825 26.5733C18.5033 28.3358 16.9613 28.9965 15.1993 28.5558C14.1938 28.3045 13.475 27.575 12.6795 26.7675C11.3838 25.4525 9.884 23.93 6.60825 23.93Z" fill="url(#paint0_linear_21_207)"/>
<path d="M39.648 22.6825H37.3415V27.147C37.3415 28.3375 38.1228 28.319 39.648 28.2445V30.0487C36.5603 30.4207 35.3325 29.5652 35.3325 27.147V22.6827H33.6213V20.7482H35.3325V18.2497L37.3415 17.6547V20.7482H39.648V22.6827V22.6825ZM48.4405 20.7482H50.4495V30.0487H48.4405V28.7095C47.7338 29.6955 46.6363 30.2907 45.1855 30.2907C42.6555 30.2907 40.5535 28.1515 40.5535 25.3985C40.5535 22.627 42.6555 20.5065 45.1853 20.5065C46.6363 20.5065 47.7338 21.1015 48.4405 22.069V20.7482ZM45.5015 28.3747C47.1755 28.3747 48.4405 27.1285 48.4405 25.3985C48.4405 23.6685 47.1755 22.4222 45.5015 22.4222C43.8275 22.4222 42.5625 23.6685 42.5625 25.3985C42.5625 27.1285 43.8275 28.3747 45.5015 28.3747ZM53.7978 19.353C53.0908 19.353 52.5143 18.758 52.5143 18.0697C52.5149 17.7295 52.6504 17.4034 52.8909 17.1629C53.1315 16.9223 53.4576 16.7869 53.7978 16.7862C54.138 16.7869 54.4641 16.9223 54.7046 17.1629C54.9452 17.4034 55.0806 17.7295 55.0813 18.0697C55.0813 18.758 54.5045 19.353 53.7978 19.353ZM52.7933 30.0487V20.7482H54.802V30.0487H52.7933ZM57.1273 30.0487V16.47H59.1363V30.0487H57.1273ZM72.1758 20.7482H74.2963L71.3758 30.0487H69.404L67.4695 23.7802L65.5165 30.0487H63.5448L60.6243 20.7482H62.7448L64.5493 27.1657L66.5023 20.7482H68.4183L70.3528 27.1657L72.1758 20.7482ZM76.7888 19.3532C76.082 19.3532 75.5053 18.758 75.5053 18.0697C75.5059 17.7295 75.6414 17.4034 75.8819 17.1629C76.1225 16.9223 76.4486 16.7869 76.7888 16.7862C77.129 16.7869 77.4551 16.9223 77.6956 17.1629C77.9362 17.4034 78.0716 17.7295 78.0723 18.0697C78.0723 18.758 77.4955 19.353 76.7888 19.353V19.3532ZM75.7843 30.0487V20.7482H77.7933V30.0487H75.7843ZM85.0105 20.5062C87.0938 20.5062 88.582 21.92 88.582 24.3382V30.0487H86.573V24.5427C86.573 23.1292 85.7545 22.3852 84.4898 22.3852C83.169 22.3852 82.1273 23.1662 82.1273 25.0637V30.0487H80.1183V20.7482H82.1273V21.9387C82.7413 20.9712 83.7455 20.5062 85.0105 20.5062ZM98.1058 17.028H100.115V30.0487H98.1058V28.7095C97.399 29.6955 96.3015 30.2907 94.8508 30.2907C92.3208 30.2907 90.2188 28.1515 90.2188 25.3985C90.2188 22.627 92.3208 20.5065 94.8505 20.5065C96.3015 20.5065 97.399 21.1015 98.1058 22.069V17.028ZM95.1668 28.3747C96.8408 28.3747 98.1058 27.1285 98.1058 25.3985C98.1058 23.6685 96.8408 22.4222 95.1668 22.4222C93.4928 22.4222 92.2278 23.6685 92.2278 25.3985C92.2278 27.1285 93.4928 28.3747 95.1668 28.3747ZM106.848 30.2907C104.04 30.2907 101.938 28.1515 101.938 25.3985C101.938 22.627 104.04 20.5065 106.848 20.5065C108.671 20.5065 110.252 21.455 110.997 22.906L109.267 23.9105C108.857 23.0362 107.946 22.478 106.83 22.478C105.193 22.478 103.947 23.7245 103.947 25.3985C103.947 27.0725 105.193 28.319 106.83 28.319C107.946 28.319 108.857 27.7422 109.304 26.8865L111.034 27.8725C110.252 29.342 108.671 30.2907 106.848 30.2907ZM114.345 23.3152C114.345 25.0077 119.348 23.9847 119.348 27.426C119.348 29.286 117.73 30.2907 115.721 30.2907C113.861 30.2907 112.522 29.4535 111.927 28.1142L113.657 27.1097C113.954 27.947 114.698 28.449 115.721 28.449C116.614 28.449 117.302 28.1515 117.302 27.4075C117.302 25.752 112.299 26.682 112.299 23.3525C112.299 21.6037 113.805 20.5065 115.703 20.5065C117.228 20.5065 118.493 21.2132 119.144 22.441L117.451 23.3895C117.116 22.6642 116.465 22.3295 115.703 22.3295C114.977 22.3295 114.345 22.6455 114.345 23.3152ZM122.92 23.3152C122.92 25.0077 127.924 23.9847 127.924 27.426C127.924 29.286 126.305 30.2907 124.296 30.2907C122.436 30.2907 121.097 29.4535 120.502 28.1142L122.232 27.1097C122.529 27.947 123.273 28.449 124.296 28.449C125.189 28.449 125.877 28.1515 125.877 27.4075C125.877 25.752 120.874 26.682 120.874 23.3525C120.874 21.6037 122.38 20.5065 124.278 20.5065C125.803 20.5065 127.068 21.2132 127.719 22.441L126.026 23.3895C125.691 22.6642 125.04 22.3295 124.278 22.3295C123.552 22.3295 122.92 22.6455 122.92 23.3152Z" fill="#2298BD"/>
</g>
<defs>
<linearGradient id="paint0_linear_21_207" x1="-73.4316" y1="523.512" x2="2209.5" y2="1839.83" gradientUnits="userSpaceOnUse">
<stop stop-color="#2298BD"/>
<stop offset="1" stop-color="#0ED7B5"/>
</linearGradient>
<clipPath id="clip0_21_207">
<rect width="128" height="16" fill="white" transform="translate(0 16)"/>
</clipPath>
</defs>
</svg>
