<!-- mayurDayal2000 github icons -->
<svg width="304" height="38" viewBox="0 0 304 38" fill="none" xmlns="http://www.w3.org/2000/svg">
<g clip-path="url(#clip0_1_30)">
<path d="M31.3898 0C23.0191 0 17.787 4.18534 15.6946 12.556C18.8338 8.3701 22.496 6.80081 26.6814 7.8476C29.0688 8.44431 30.7759 10.1769 32.6652 12.0947C35.7426 15.2178 39.3045 18.8338 47.0844 18.8338C55.4551 18.8338 60.6866 14.6484 62.779 6.27772C59.6404 10.4637 55.9782 12.0329 51.7928 10.9862C49.4048 10.3894 47.6983 8.65688 45.809 6.73906C42.731 3.61594 39.1697 0 31.3898 0ZM15.6946 18.8338C7.3245 18.8338 2.09238 23.0191 0 31.3898C3.13916 27.2038 6.80081 25.6346 10.9862 26.6813C13.3742 27.2781 15.0813 29.0106 16.97 30.9279C20.048 34.0522 23.6099 37.6669 31.3898 37.6669C39.7599 37.6669 44.9914 33.4822 47.0844 25.1115C43.9452 29.2974 40.283 30.8667 36.0982 29.8199C33.7102 29.2232 32.0031 27.4906 30.1138 25.5728C27.0364 22.4497 23.4745 18.8338 15.6946 18.8338Z" fill="url(#paint0_linear_1_30)"/>
<path d="M94.164 15.871H88.6861V26.4741C88.6861 29.3016 90.5415 29.2577 94.164 29.0807V33.3658C86.8306 34.2493 83.9147 32.2175 83.9147 26.4741V15.8716H79.8505V11.2771H83.9147V5.34318L88.6861 3.93005V11.2771H94.164V15.8716V15.871ZM115.046 11.2771H119.818V33.3658H115.046V30.1851C113.368 32.5268 110.761 33.9406 107.316 33.9406C101.307 33.9406 96.3146 28.8598 96.3146 22.3215C96.3146 15.7391 101.307 10.703 107.315 10.703C110.761 10.703 113.368 12.1161 115.046 14.4139V11.2771ZM108.066 29.3901C112.042 29.3901 115.046 26.4302 115.046 22.3215C115.046 18.2127 112.042 15.2529 108.066 15.2529C104.09 15.2529 101.086 18.2127 101.086 22.3215C101.086 26.4302 104.09 29.3901 108.066 29.3901ZM127.77 7.9634C126.091 7.9634 124.721 6.55027 124.721 4.91568C124.723 4.1077 125.045 3.33326 125.616 2.76193C126.187 2.1906 126.962 1.86893 127.77 1.86737C128.578 1.86893 129.352 2.1906 129.923 2.76193C130.495 3.33326 130.816 4.1077 130.818 4.91568C130.818 6.55027 129.448 7.9634 127.77 7.9634ZM125.384 33.3658V11.2771H130.155V33.3658H125.384ZM135.677 33.3658V1.11627H140.449V33.3658H135.677ZM171.417 11.2771H176.454L169.517 33.3658H164.834L160.24 18.4781L155.602 33.3658H150.919L143.983 11.2771H149.019L153.304 26.5187L157.943 11.2771H162.493L167.088 26.5187L171.417 11.2771ZM182.373 7.96399C180.695 7.96399 179.325 6.55027 179.325 4.91568C179.327 4.1077 179.648 3.33326 180.22 2.76193C180.791 2.1906 181.565 1.86893 182.373 1.86737C183.181 1.86893 183.956 2.1906 184.527 2.76193C185.098 3.33326 185.42 4.1077 185.422 4.91568C185.422 6.55027 184.052 7.9634 182.373 7.9634V7.96399ZM179.988 33.3658V11.2771H184.759V33.3658H179.988ZM201.9 10.7024C206.848 10.7024 210.382 14.06 210.382 19.8034V33.3658H205.611V20.2891C205.611 16.932 203.667 15.165 200.663 15.165C197.526 15.165 195.052 17.0199 195.052 21.5264V33.3658H190.281V11.2771H195.052V14.1046C196.51 11.8067 198.896 10.7024 201.9 10.7024ZM233.001 2.44152H237.773V33.3658H233.001V30.1851C231.323 32.5268 228.716 33.9406 225.271 33.9406C219.262 33.9406 214.27 28.8598 214.27 22.3215C214.27 15.7391 219.262 10.703 225.27 10.703C228.716 10.703 231.323 12.1161 233.001 14.4139V2.44152ZM226.021 29.3901C229.997 29.3901 233.001 26.4302 233.001 22.3215C233.001 18.2127 229.997 15.2529 226.021 15.2529C222.045 15.2529 219.041 18.2127 219.041 22.3215C219.041 26.4302 222.045 29.3901 226.021 29.3901ZM253.765 33.9406C247.094 33.9406 242.102 28.8598 242.102 22.3215C242.102 15.7391 247.094 10.703 253.765 10.703C258.094 10.703 261.849 12.9556 263.617 16.4018L259.508 18.7875C258.536 16.7111 256.371 15.3853 253.721 15.3853C249.833 15.3853 246.873 18.3457 246.873 22.3215C246.873 26.2972 249.833 29.2577 253.721 29.2577C256.371 29.2577 258.536 27.8879 259.596 25.8555L263.705 28.1972C261.849 31.6873 258.094 33.9406 253.765 33.9406ZM271.568 17.3737C271.568 21.3934 283.452 18.9638 283.452 27.1368C283.452 31.5543 279.609 33.9406 274.837 33.9406C270.42 33.9406 267.239 31.9521 265.825 28.7714L269.934 26.3857C270.641 28.3741 272.408 29.5664 274.837 29.5664C276.958 29.5664 278.593 28.8598 278.593 27.0928C278.593 23.161 266.709 25.3698 266.709 17.4622C266.709 13.3089 270.287 10.703 274.793 10.703C278.416 10.703 281.42 12.3815 282.966 15.2974L278.947 17.5501C278.151 15.8276 276.605 15.0326 274.793 15.0326C273.07 15.0326 271.568 15.7831 271.568 17.3737ZM291.934 17.3737C291.934 21.3934 303.818 18.9638 303.818 27.1368C303.818 31.5543 299.975 33.9406 295.204 33.9406C290.786 33.9406 287.605 31.9521 286.191 28.7714L290.3 26.3857C291.006 28.3741 292.774 29.5664 295.204 29.5664C297.324 29.5664 298.958 28.8598 298.958 27.0928C298.958 23.161 287.075 25.3698 287.075 17.4622C287.075 13.3089 290.653 10.703 295.16 10.703C298.782 10.703 301.786 12.3815 303.333 15.2974L299.312 17.5501C298.517 15.8276 296.971 15.0326 295.16 15.0326C293.437 15.0326 291.934 15.7831 291.934 17.3737Z" fill="#2298BD"/>
</g>
<defs>
<linearGradient id="paint0_linear_1_30" x1="-174.4" y1="1205.34" x2="5247.56" y2="4331.59" gradientUnits="userSpaceOnUse">
<stop stop-color="#2298BD"/>
<stop offset="1" stop-color="#0ED7B5"/>
</linearGradient>
<clipPath id="clip0_1_30">
<rect width="304" height="38" fill="white"/>
</clipPath>
</defs>
</svg>
