<!-- mayurDayal2000 github icons -->
<svg width="80" height="80" viewBox="0 0 80 80" fill="none" xmlns="http://www.w3.org/2000/svg">
<path d="M40.0125 0.997498C24.7875 0.997498 12.4456 13.3394 12.4456 28.5644C12.4456 43.7869 24.7875 56.13 40.0125 56.13C55.2369 56.13 67.5787 43.7869 67.5787 28.5644C67.5787 13.3394 55.2369 0.997498 40.0125 0.997498ZM46.1975 10.4912C46.4347 10.0648 46.7543 9.68977 47.1378 9.38802C47.5212 9.08626 47.9609 8.8638 48.4312 8.73357C48.9014 8.60335 49.3929 8.56797 49.877 8.6295C50.3611 8.69102 50.828 8.84822 51.2508 9.09194C51.6735 9.33567 52.0436 9.66104 52.3394 10.0491C52.6352 10.4372 52.8508 10.8803 52.9737 11.3525C53.0967 11.8247 53.1245 12.3167 53.0555 12.7997C52.9865 13.2828 52.8221 13.7473 52.5719 14.1662C52.0765 14.9956 51.2749 15.5968 50.3401 15.8402C49.4053 16.0836 48.4122 15.9496 47.5754 15.4671C46.7385 14.9846 46.1249 14.1924 45.8671 13.2614C45.6093 12.3305 45.728 11.3355 46.1975 10.4912ZM40.0125 12.5756C41.4925 12.5756 42.9237 12.7806 44.2837 13.1562C44.4052 13.9135 44.6942 14.6341 45.1296 15.2655C45.5651 15.8968 46.1359 16.423 46.8006 16.8056C47.4635 17.189 48.2034 17.4199 48.9666 17.4817C49.7298 17.5436 50.4972 17.4347 51.2131 17.1631C53.9344 19.8394 55.7056 23.4787 55.9644 27.5331L50.7194 27.61C50.2356 22.1187 45.6281 17.8131 40.0125 17.8131C38.3944 17.8131 36.86 18.1725 35.4837 18.8131L32.9262 14.23C35.129 13.1391 37.5544 12.5729 40.0125 12.5756ZM21.2675 32.2444C20.7801 32.2508 20.2962 32.1603 19.8441 31.9782C19.3919 31.7961 18.9804 31.526 18.6334 31.1836C18.2865 30.8412 18.011 30.4333 17.8229 29.9836C17.6349 29.5338 17.538 29.0512 17.538 28.5638C17.5379 28.0763 17.6347 27.5937 17.8227 27.1439C18.0106 26.6941 18.2861 26.2862 18.633 25.9437C18.9799 25.6013 19.3913 25.3311 19.8435 25.1489C20.2956 24.9667 20.7794 24.8762 21.2669 24.8825C22.2348 24.895 23.1589 25.2883 23.8389 25.9772C24.519 26.6661 24.9004 27.5951 24.9005 28.5631C24.9006 29.5311 24.5193 30.4602 23.8394 31.1492C23.1594 31.8382 22.2354 32.2317 21.2675 32.2444ZM24.5312 32.5719C25.1268 32.0874 25.6068 31.4763 25.9363 30.7829C26.2659 30.0896 26.4367 29.3314 26.4362 28.5637C26.4367 27.7959 26.266 27.0375 25.9364 26.344C25.6069 25.6504 25.1268 25.039 24.5312 24.5544C25.5269 20.7025 27.9225 17.4137 31.1425 15.2606L33.8331 19.7675C31.0687 21.7125 29.2625 24.9262 29.2625 28.5637C29.2625 32.2 31.0687 35.4131 33.8331 37.3575L31.1425 41.8656C27.9212 39.7137 25.525 36.425 24.5312 32.5719ZM51.2244 47.9831C50.806 48.2249 50.344 48.3818 49.8649 48.4449C49.3859 48.508 48.899 48.476 48.4323 48.3509C47.9656 48.2257 47.5281 48.0098 47.1448 47.7155C46.7616 47.4212 46.4401 47.0542 46.1987 46.6356C45.835 46.0053 45.6662 45.2814 45.7139 44.5552C45.7616 43.829 46.0236 43.1333 46.4666 42.556C46.9097 41.9787 47.5141 41.5458 48.2032 41.312C48.8924 41.0782 49.6354 41.054 50.3383 41.2424C51.0412 41.4309 51.6724 41.8236 52.1521 42.3708C52.6318 42.918 52.9385 43.5952 53.0334 44.3167C53.1282 45.0383 53.007 45.7717 52.685 46.4243C52.363 47.0769 51.8547 47.6194 51.2244 47.9831ZM51.2131 39.9637C50.4972 39.692 49.7298 39.5832 48.9666 39.645C48.2033 39.7068 47.4634 39.9378 46.8006 40.3212C46.1362 40.7042 45.5656 41.2305 45.1302 41.8618C44.6948 42.4931 44.4056 43.2135 44.2837 43.9706C42.8928 44.3564 41.456 44.5522 40.0125 44.5525C37.4681 44.5525 35.0631 43.9544 32.9269 42.8969L35.4844 38.3144C36.9028 38.9744 38.4486 39.3158 40.0131 39.3144C45.6287 39.3144 50.2362 35.0094 50.7194 29.5169L55.965 29.5937C55.7062 33.6481 53.935 37.2875 51.2131 39.9637ZM10 76.0369C9.375 76.0712 9.68187 76.1012 9.48562 76.1269C9.28875 76.1531 9.02437 76.1781 8.78437 76.2037C8.54437 76.23 8.26437 76.2512 7.99 76.2681C7.71562 76.2856 7.43875 76.2944 7.18187 76.2944C5.965 76.2944 5.0675 75.9431 4.55312 75.24C4.03875 74.5375 3.75 73.3712 3.75 71.7431V65H1.875V72.2575C1.875 73.1662 1.7375 73.9931 1.92625 74.7381C2.115 75.4831 2.3075 76.1306 2.73562 76.6787C3.16375 77.2275 3.67187 77.6512 4.375 77.9519C5.07687 78.2506 5.91375 78.4012 6.94187 78.4012C8.125 78.4012 8.985 78.3244 9.88437 78.17C10.7837 78.0162 11.2494 77.87 11.8744 77.7331V65H9.99937V76.0369H10ZM25.86 66.3956C25.3468 65.7795 24.7009 65.2874 23.9706 64.9562C23.225 64.6137 22.3725 64.4419 21.4125 64.4419C20.6419 64.4419 20 64.5444 19.4087 64.7506C18.8175 64.9562 18.75 65.1537 18.125 65.3412V58.1694L15.625 58.5812V77.7337C15.625 77.8881 16.8906 78.0425 17.7475 78.1962C18.605 78.3506 19.5975 78.4275 20.7112 78.4275C21.74 78.4275 22.6694 78.2637 23.4919 77.9387C24.3144 77.6131 25.0181 77.1506 25.6012 76.5506C26.1837 75.9506 26.6344 75.2181 26.9519 74.3531C27.2687 73.4869 27.4281 72.5137 27.4281 71.4344C27.4281 70.4062 27.295 69.4637 27.0294 68.6069C26.7637 67.75 26.3744 67.0131 25.86 66.3956ZM23.7781 75.0462C23.0069 75.895 21.9787 76.3194 20.6925 76.3194C20.0412 76.3194 19.5375 76.2894 19.1 76.2294C18.6631 76.1694 18.7494 76.105 18.1244 76.0362V67.5775C18.7494 67.3375 18.795 67.1062 19.3437 66.8837C19.8925 66.6612 20.4719 66.5494 21.1244 66.5494C21.8094 66.5494 22.3869 66.6737 22.875 66.9219C23.3507 67.1613 23.7597 67.5147 24.0656 67.9506C24.3737 68.3875 24.5937 68.9062 24.7312 69.5062C24.8687 70.1069 24.9356 70.7494 24.9356 71.4344C24.9356 72.995 24.5487 74.1981 23.7781 75.0462ZM38.125 76.0369C38.125 76.0712 38.0244 76.1012 37.8275 76.1269C37.6306 76.1531 37.4756 76.1781 37.2356 76.2037C36.9956 76.23 36.77 76.2512 36.4962 76.2681C36.2225 76.2856 35.9725 76.2944 35.7156 76.2944C34.4981 76.2944 33.71 75.9431 33.1956 75.24C32.6812 74.5375 32.5 73.3712 32.5 71.7431V65H30V72.2575C30 73.1662 30.0806 73.9925 30.2694 74.7381C30.4581 75.4831 30.76 76.1306 31.1887 76.6787C31.6169 77.2275 32.1787 77.6512 32.8819 77.9519C33.585 78.2506 34.4487 78.4012 35.4775 78.4012C36.66 78.4012 37.6269 78.3244 38.5269 78.17C39.4262 78.0162 40 77.87 40.625 77.7331V65H38.125V76.0369ZM53.8687 66.1775C53.4481 65.6375 52.8875 65.2181 52.185 64.9181C51.4819 64.6187 50.5994 64.4681 49.5369 64.4681C48.3544 64.4681 47.0762 64.545 46.1681 64.6994C45.2587 64.8537 44.375 64.9994 43.75 65.1369V77.5H46.25V66.8331L46.8525 66.7562C47.0487 66.7219 47.3606 66.6919 47.6094 66.6656C47.8575 66.64 48.1637 66.6181 48.4381 66.6012C48.7109 66.5845 48.9842 66.576 49.2575 66.5756C49.8912 66.5756 50.4337 66.6569 50.8619 66.82C51.2912 66.9825 51.6394 67.2444 51.8962 67.6037C52.1537 67.9631 52.2794 68.4344 52.3912 69.0175C52.5019 69.6 52.5 70.3031 52.5 71.125V77.5H55V70.6119C55 69.7037 54.9206 68.8725 54.7494 68.1175C54.5775 67.3644 54.2881 66.7175 53.8687 66.1775ZM64.7556 76.0494C64.3275 76.2119 63.7444 76.2937 63.0075 76.2937C62.5962 76.2937 62.2362 76.2419 61.9281 76.1394C61.6259 76.0412 61.3582 75.8584 61.1569 75.6125C60.9512 75.3637 60.5269 75.0219 60.4244 74.5837C60.3212 74.1469 60 73.5937 60 72.9262V66.875H65.625V65H60V60.6112L58.125 61.0231V72.9512C58.125 73.8431 58.2094 74.6269 58.355 75.3037C58.5006 75.9812 58.7594 76.5506 59.1194 77.0137C59.4794 77.4762 59.9575 77.8231 60.5494 78.0544C61.1406 78.2862 61.8919 78.4019 62.8012 78.4019C63.5725 78.4019 64.2625 78.3075 64.8712 78.1187C65.48 77.93 65.9037 77.7769 66.1444 77.6562L65.6312 75.7019C65.4756 75.7706 65.1837 75.8862 64.7556 76.0494ZM76.25 65V76.0369C76.25 76.0712 76.0081 76.1012 75.8119 76.1269C75.615 76.1531 75.3881 76.1781 75.1487 76.2037C74.9087 76.23 74.6481 76.2512 74.3744 76.2681C74.1 76.2856 73.8325 76.2944 73.5756 76.2944C72.3587 76.2944 71.3894 75.9431 70.8756 75.24C70.3612 74.5375 70.0006 73.3719 70.0006 71.7431V65H68.1256V72.2575C68.1256 73.1662 68.0644 73.9925 68.2537 74.7381C68.4419 75.4831 68.6725 76.1306 69.1012 76.6787C69.5335 77.2401 70.1049 77.679 70.7587 77.9519C71.4619 78.2506 72.3081 78.4012 73.3362 78.4012C74.5194 78.4012 75.3069 78.3244 76.2069 78.17C77.1062 78.0162 77.4881 77.87 78.1256 77.7331V65H76.25Z" fill="#DD4814"/>
</svg>
