<!-- mayurDayal2000 github icons -->
<svg width="48" height="48" viewBox="0 0 48 48" fill="none" xmlns="http://www.w3.org/2000/svg">
<path d="M24.0075 0.598511C14.8725 0.598511 7.46739 8.00363 7.46739 17.1386C7.46739 26.2721 14.8725 33.678 24.0075 33.678C33.1421 33.678 40.5473 26.2721 40.5473 17.1386C40.5473 8.00363 33.1421 0.598511 24.0075 0.598511ZM27.7185 6.29476C27.8608 6.03889 28.0526 5.81388 28.2827 5.63282C28.5128 5.45177 28.7766 5.31829 29.0587 5.24016C29.3409 5.16202 29.6358 5.1408 29.9262 5.17771C30.2167 5.21463 30.4968 5.30895 30.7505 5.45518C31.0041 5.60141 31.2262 5.79664 31.4036 6.02949C31.5811 6.26235 31.7105 6.52818 31.7843 6.81151C31.858 7.09484 31.8747 7.39002 31.8333 7.67986C31.7919 7.9697 31.6933 8.24841 31.5431 8.49976C31.2459 8.99735 30.765 9.3581 30.2041 9.50413C29.6432 9.65015 29.0474 9.56975 28.5452 9.28026C28.0431 8.99077 27.675 8.51543 27.5203 7.95686C27.3656 7.39829 27.4368 6.80129 27.7185 6.29476ZM24.0075 7.54539C24.8955 7.54539 25.7543 7.66839 26.5703 7.89376C26.6432 8.34812 26.8165 8.78047 27.0778 9.15929C27.3391 9.5381 27.6816 9.85381 28.0804 10.0834C28.4781 10.3134 28.922 10.452 29.38 10.4891C29.8379 10.5262 30.2983 10.4609 30.7279 10.2979C32.3606 11.9036 33.4234 14.0873 33.5786 16.5199L30.4316 16.566C30.1414 13.2713 27.3769 10.6879 24.0075 10.6879C23.0366 10.6879 22.116 10.9035 21.2903 11.2879L19.7558 8.53801C21.0774 7.88348 22.5327 7.54374 24.0075 7.54539ZM12.7605 19.3466C12.4681 19.3505 12.1778 19.2962 11.9065 19.1869C11.6352 19.0777 11.3882 18.9156 11.1801 18.7102C10.9719 18.5047 10.8066 18.26 10.6938 17.9901C10.5809 17.7203 10.5228 17.4307 10.5228 17.1383C10.5228 16.8458 10.5808 16.5562 10.6936 16.2864C10.8064 16.0165 10.9717 15.7717 11.1798 15.5662C11.3879 15.3608 11.6348 15.1987 11.9061 15.0894C12.1774 14.9801 12.4677 14.9257 12.7601 14.9295C13.3409 14.937 13.8953 15.173 14.3034 15.5863C14.7114 15.9997 14.9403 16.5571 14.9403 17.1379C14.9404 17.7187 14.7116 18.2762 14.3036 18.6896C13.8957 19.103 13.3413 19.339 12.7605 19.3466ZM14.7188 19.5431C15.0761 19.2525 15.3641 18.8858 15.5618 18.4698C15.7596 18.0537 15.862 17.5989 15.8618 17.1383C15.8621 16.6775 15.7596 16.2225 15.5619 15.8064C15.3642 15.3903 15.0761 15.0234 14.7188 14.7326C15.3161 12.4215 16.7535 10.4483 18.6855 9.15639L20.2999 11.8605C18.6413 13.0275 17.5575 14.9558 17.5575 17.1383C17.5575 19.32 18.6413 21.2479 20.2999 22.4145L18.6855 25.1194C16.7528 23.8283 15.315 21.855 14.7188 19.5431ZM30.7346 28.7899C30.4836 28.9349 30.2064 29.0291 29.919 29.0669C29.6315 29.1048 29.3394 29.0856 29.0594 29.0105C28.7794 28.9355 28.5169 28.8059 28.2869 28.6293C28.057 28.4527 27.8641 28.2326 27.7193 27.9814C27.501 27.6032 27.3998 27.1688 27.4284 26.7331C27.457 26.2974 27.6142 25.88 27.88 25.5336C28.1459 25.1873 28.5085 24.9275 28.9219 24.7872C29.3354 24.6469 29.7812 24.6324 30.203 24.7455C30.6247 24.8586 31.0035 25.0942 31.2913 25.4225C31.5791 25.7508 31.7631 26.1571 31.82 26.5901C31.877 27.023 31.8042 27.463 31.611 27.8546C31.4178 28.2462 31.1128 28.5717 30.7346 28.7899ZM30.7279 23.9783C30.2984 23.8152 29.8379 23.7499 29.38 23.787C28.922 23.8241 28.4781 23.9627 28.0804 24.1928C27.6818 24.4225 27.3394 24.7383 27.0781 25.1171C26.8169 25.4959 26.6434 25.9281 26.5703 26.3824C25.7357 26.6139 24.8736 26.7313 24.0075 26.7315C22.4809 26.7315 21.0379 26.3726 19.7561 25.7381L21.2906 22.9886C22.1417 23.3847 23.0692 23.5895 24.0079 23.5886C27.3773 23.5886 30.1418 21.0056 30.4316 17.7101L33.579 17.7563C33.4238 20.1889 32.361 22.3725 30.7279 23.9783ZM6.00002 45.6221C5.62502 45.6428 5.80914 45.6608 5.69139 45.6761C5.57327 45.6919 5.41464 45.7069 5.27064 45.7223C5.12664 45.738 4.95864 45.7508 4.79402 45.7609C4.62939 45.7714 4.46327 45.7766 4.30914 45.7766C3.57902 45.7766 3.04052 45.5659 2.73189 45.144C2.42327 44.7225 2.25002 44.0228 2.25002 43.0459V39H1.12502V43.3545C1.12502 43.8998 1.04252 44.3959 1.15577 44.8429C1.26902 45.2899 1.38452 45.6784 1.64139 46.0073C1.89827 46.3365 2.20314 46.5908 2.62502 46.7711C3.04614 46.9504 3.54827 47.0408 4.16514 47.0408C4.87502 47.0408 5.39102 46.9946 5.93064 46.902C6.47027 46.8098 6.74964 46.722 7.12464 46.6399V39H5.99964V45.6221H6.00002ZM15.516 39.8374C15.2081 39.4677 14.8206 39.1724 14.3824 38.9738C13.935 38.7683 13.4235 38.6651 12.8475 38.6651C12.3851 38.6651 12 38.7266 11.6453 38.8504C11.2905 38.9738 11.25 39.0923 10.875 39.2048V34.9016L9.37502 35.1488V46.6403C9.37502 46.7329 10.1344 46.8255 10.6485 46.9178C11.163 47.0104 11.7585 47.0565 12.4268 47.0565C13.044 47.0565 13.6016 46.9583 14.0951 46.7633C14.5886 46.5679 15.0109 46.2904 15.3608 45.9304C15.7103 45.5704 15.9806 45.1309 16.1711 44.6119C16.3613 44.0921 16.4569 43.5083 16.4569 42.8606C16.4569 42.2438 16.377 41.6783 16.2176 41.1641C16.0583 40.65 15.8246 40.2079 15.516 39.8374ZM14.2669 45.0278C13.8041 45.537 13.1873 45.7916 12.4155 45.7916C12.0248 45.7916 11.7225 45.7736 11.46 45.7376C11.1979 45.7016 11.2496 45.663 10.8746 45.6218V40.5465C11.2496 40.4025 11.277 40.2638 11.6063 40.1303C11.9355 39.9968 12.2831 39.9296 12.6746 39.9296C13.0856 39.9296 13.4321 40.0043 13.725 40.1531C14.0104 40.2968 14.2558 40.5089 14.4394 40.7704C14.6243 41.0325 14.7563 41.3438 14.8388 41.7038C14.9213 42.0641 14.9614 42.4496 14.9614 42.8606C14.9614 43.797 14.7293 44.5189 14.2669 45.0278ZM22.875 45.6221C22.875 45.6428 22.8146 45.6608 22.6965 45.6761C22.5784 45.6919 22.4854 45.7069 22.3414 45.7223C22.1974 45.738 22.062 45.7508 21.8978 45.7609C21.7335 45.7714 21.5835 45.7766 21.4294 45.7766C20.6989 45.7766 20.226 45.5659 19.9174 45.144C19.6088 44.7225 19.5 44.0228 19.5 43.0459V39H18V43.3545C18 43.8998 18.0484 44.3955 18.1616 44.8429C18.2749 45.2899 18.456 45.6784 18.7133 46.0073C18.9701 46.3365 19.3073 46.5908 19.7291 46.7711C20.151 46.9504 20.6693 47.0408 21.2865 47.0408C21.996 47.0408 22.5761 46.9946 23.1161 46.902C23.6558 46.8098 24 46.722 24.375 46.6399V39H22.875V45.6221ZM32.3213 39.7065C32.0689 39.3825 31.7325 39.1309 31.311 38.9509C30.8891 38.7713 30.3596 38.6809 29.7221 38.6809C29.0126 38.6809 28.2458 38.727 27.7009 38.8196C27.1553 38.9123 26.625 38.9996 26.25 39.0821V46.5H27.75V40.0999L28.1115 40.0538C28.2293 40.0331 28.4164 40.0151 28.5656 39.9994C28.7145 39.984 28.8983 39.9709 29.0629 39.9608C29.2266 39.9507 29.3905 39.9456 29.5545 39.9454C29.9348 39.9454 30.2603 39.9941 30.5171 40.092C30.7748 40.1895 30.9836 40.3466 31.1378 40.5623C31.2923 40.7779 31.3676 41.0606 31.4348 41.4105C31.5011 41.76 31.5 42.1819 31.5 42.675V46.5H33V42.3671C33 41.8223 32.9524 41.3235 32.8496 40.8705C32.7465 40.4186 32.5729 40.0305 32.3213 39.7065ZM38.8534 45.6296C38.5965 45.7271 38.2466 45.7763 37.8045 45.7763C37.5578 45.7763 37.3418 45.7451 37.1569 45.6836C36.9755 45.6248 36.8149 45.515 36.6941 45.3675C36.5708 45.2183 36.3161 45.0131 36.2546 44.7503C36.1928 44.4881 36 44.1563 36 43.7558V40.125H39.375V39H36V36.3668L34.875 36.6139V43.7708C34.875 44.3059 34.9256 44.7761 35.013 45.1823C35.1004 45.5888 35.2556 45.9304 35.4716 46.2083C35.6876 46.4858 35.9745 46.6939 36.3296 46.8326C36.6844 46.9718 37.1351 47.0411 37.6808 47.0411C38.1435 47.0411 38.5575 46.9845 38.9228 46.8713C39.288 46.758 39.5423 46.6661 39.6866 46.5938L39.3788 45.4211C39.2854 45.4624 39.1103 45.5318 38.8534 45.6296ZM45.75 39V45.6221C45.75 45.6428 45.6049 45.6608 45.4871 45.6761C45.369 45.6919 45.2329 45.7069 45.0893 45.7223C44.9453 45.738 44.7889 45.7508 44.6246 45.7609C44.46 45.7714 44.2995 45.7766 44.1454 45.7766C43.4153 45.7766 42.8336 45.5659 42.5254 45.144C42.2168 44.7225 42.0004 44.0231 42.0004 43.0459V39H40.8754V43.3545C40.8754 43.8998 40.8386 44.3955 40.9523 44.8429C41.0651 45.2899 41.2035 45.6784 41.4608 46.0073C41.7201 46.3441 42.0629 46.6074 42.4553 46.7711C42.8771 46.9504 43.3849 47.0408 44.0018 47.0408C44.7116 47.0408 45.1841 46.9946 45.7241 46.902C46.2638 46.8098 46.4929 46.722 46.8754 46.6399V39H45.75Z" fill="#DD4814"/>
</svg>
